{
.appVersion = "1352";
DisplayStrings = (
"aá/abreve/abreveacute/abrevedotbelow/abrevegrave/abrevehookabove/abrevetilde/acaron â/acircumflexacute/acircumflexdotbelow/acircumflexgrave/acircumflexhookabove/acircumflextilde/adblgrave ä/adotbelow à/ahookabove/ainvertedbreve/amacron/aogonek å/aringacute ãæ/aeacute",
"oó/obreve ô/ocircumflexacute/ocircumflexdotbelow/ocircumflexgrave/ocircumflexhookabove/ocircumflextilde/odblgrave ö/dieresiscomb/macroncomb/amacron/emacron/imacron/odieresismacron/odotaccentmacron/omacron/umacron/ymacron/amacron.fina/emacron.fina/imacron.fina/odieresismacron.fina/odotaccentmacron.fina/omacron.fina/umacron.fina/ymacron.fina/amacron.init/emacron.fina.ss01/umacron.fina.ss01/ymacron.fina.ss01/umacron.ss01/odieresismacron.ss03/odotaccentmacron.ss03/omacron.ss03/imacron.ss04/space/tildecomb_macroncomb/macronbelowcomb ¯/macroncomb/odieresismacron/odotaccentmacron/odotbelow ò/ohookabove/ohorn/ohornacute/ohorndotbelow/ohorngrave/ohornhookabove/ohorntilde/ohungarumlaut/oinvertedbreve/omacron/oogonek ø/oslashacute õ/otildemacron",
"/a.fina/space/aacute.fina/space/abreve.fina/space/abreveacute.fina/abrevedotbelow.fina/abrevegrave.fina/abrevehookabove.fina/abrevetilde.fina/acaron.fina/acircumflex.fina/acircumflexacute.fina/acircumflexdotbelow.fina/acircumflexgrave.fina/acircumflexhookabove.fina/acircumflextilde.fina/adblgrave.fina/adieresis.fina/adotbelow.fina/agrave.fina/ahookabove.fina/ainvertedbreve.fina/amacron.fina/aogonek.fina/aring.fina/aringacute.fina/atilde.fina",
"HH0H1HH2HH3H\012HH4HH5HH6HH\012HH7H8HH9HH/zero.lf \0120/Placeholder 0/space 1/Placeholder 1/space 2/Placeholder 2/space 3/Placeholder 3/space 4/Placeholder 4/space 5/Placeholder 5/space 6/Placeholder 6/space 7/Placeholder 7/space 8/Placeholder 8/space 9/Placeholder 9\01201823977847507964989/nbspace \012/one.lf/two.lf/three.lf/four.lf/five.lf/six.lf/seven.lf/eight.lf/nine.lf \012nn/Placeholder no/Placeholder oo\012",

glyphs = (
{
glyphname = .notdef;
lastChange = "2021-11-09 11:09:27 +0000";
layers = (
{
layerId = "1A0EDF0C-2B61-4714-947B-2452868211A8";
paths = (
{
closed = 1;
nodes = (
"443 -5 LINE",
"454 7 LINE",
"454 575 LINE",
"443 587 LINE",
"52 587 LINE",
"40 575 LINE",
"40 7 LINE",
"52 -5 LINE"
);
},
{
closed = 1;
nodes = (
"147 139 LINE",
"230 292 LINE",
"147 443 LINE",
"158 465 LINE",
"241 314 LINE",
"326 466 LINE",
"339 443 LINE",
"253 290 LINE",
"339 139 LINE",
"326 117 LINE",
"241 267 LINE",
"158 117 LINE"
);
},
{
closed = 1;
nodes = (
"66 561 LINE",
"430 561 LINE",
"430 21 LINE",
"66 21 LINE"
);
},
{
closed = 1;
nodes = (
"407 40 LINE",
"407 538 LINE",
"87 538 LINE",
"87 40 LINE"
);
}
);
width = 494;
}
);
note = .notdef;
},
{
glyphname = A;
lastChange = "2021-11-17 23:01:46 +0000";
layers = (
{
anchors = (
{
name = bottom;
position = "{541, 0}";
},
{
name = ogonek;
position = "{836, -15}";
},
{
name = top;
position = "{894, 579}";
}
);
guideLines = (
{
position = "{3964, 560}";
}
);
layerId = "1A0EDF0C-2B61-4714-947B-2452868211A8";
paths = (
{
closed = 1;
nodes = (
"262 -80 OFFCURVE",
"443 85 OFFCURVE",
"545 192 CURVE SMOOTH",
"565 213 LINE",
"628 208 OFFCURVE",
"682 198 OFFCURVE",
"717 188 CURVE",
"711 161 OFFCURVE",
"707 135 OFFCURVE",
"707 111 CURVE SMOOTH",
"707 45 OFFCURVE",
"732 -8 OFFCURVE",
"800 -23 CURVE SMOOTH",
"808 -25 OFFCURVE",
"816 -26 OFFCURVE",
"824 -26 CURVE SMOOTH",
"850 -26 OFFCURVE",
"876 -16 OFFCURVE",
"898 8 CURVE SMOOTH",
"902 12 OFFCURVE",
"896 17 OFFCURVE",
"890 17 CURVE SMOOTH",
"888 17 OFFCURVE",
"886 17 OFFCURVE",
"884 15 CURVE SMOOTH",
"865 -7 OFFCURVE",
"843 -14 OFFCURVE",
"823 -14 CURVE SMOOTH",
"816 -14 OFFCURVE",
"810 -14 OFFCURVE",
"804 -12 CURVE SMOOTH",
"756 -1 OFFCURVE",
"737 38 OFFCURVE",
"737 91 CURVE SMOOTH",
"737 117 OFFCURVE",
"742 146 OFFCURVE",
"749 176 CURVE",
"753 173 OFFCURVE",
"756 171 OFFCURVE",
"758 169 CURVE",
"761 163 OFFCURVE",
"768 169 OFFCURVE",
"768 175 CURVE SMOOTH",
"768 177 OFFCURVE",
"768 178 OFFCURVE",
"767 179 CURVE",
"765 183 OFFCURVE",
"760 187 OFFCURVE",
"752 191 CURVE",
"792 342 OFFCURVE",
"898 529 OFFCURVE",
"932 576 CURVE SMOOTH",
"935 581 OFFCURVE",
"930 584 OFFCURVE",
"921 584 CURVE SMOOTH",
"910 584 OFFCURVE",
"894 579 OFFCURVE",
"887 570 CURVE SMOOTH",
"866 540 OFFCURVE",
"785 384 OFFCURVE",
"734 244 CURVE SMOOTH",
"729 230 OFFCURVE",
"725 217 OFFCURVE",
"721 203 CURVE",
"687 213 OFFCURVE",
"636 222 OFFCURVE",
"579 228 CURVE",
"676 333 OFFCURVE",
"783 468 OFFCURVE",
"841 549 CURVE",
"845 553 OFFCURVE",
"841 558 OFFCURVE",
"837 558 CURVE SMOOTH",
"835 558 OFFCURVE",
"833 558 OFFCURVE",
"832 556 CURVE SMOOTH",
"823 543 OFFCURVE",
"814 530 OFFCURVE",
"803 517 CURVE",
"804 520 OFFCURVE",
"804 522 OFFCURVE",
"803 524 CURVE",
"796 550 OFFCURVE",
"737 559 OFFCURVE",
"668 559 CURVE SMOOTH",
"580 559 OFFCURVE",
"476 544 OFFCURVE",
"446 532 CURVE SMOOTH",
"412 519 OFFCURVE",
"393 497 OFFCURVE",
"393 474 CURVE SMOOTH",
"393 456 OFFCURVE",
"405 438 OFFCURVE",
"432 423 CURVE SMOOTH",
"435 421 OFFCURVE",
"438 425 OFFCURVE",
"438 429 CURVE SMOOTH",
"438 430 OFFCURVE",
"438 432 OFFCURVE",
"436 433 CURVE SMOOTH",
"416 445 OFFCURVE",
"407 456 OFFCURVE",
"407 467 CURVE SMOOTH",
"407 484 OFFCURVE",
"429 500 OFFCURVE",
"462 513 CURVE SMOOTH",
"497 527 OFFCURVE",
"569 540 OFFCURVE",
"639 545 CURVE SMOOTH",
"648 545 OFFCURVE",
"785 552 OFFCURVE",
"790 506 CURVE SMOOTH",
"790 504 OFFCURVE",
"791 502 OFFCURVE",
"791 501 CURVE",
"727 418 OFFCURVE",
"642 319 OFFCURVE",
"554 230 CURVE",
"528 232 OFFCURVE",
"501 233 OFFCURVE",
"473 233 CURVE SMOOTH",
"406 233 OFFCURVE",
"336 227 OFFCURVE",
"271 212 CURVE SMOOTH",
"100 174 OFFCURVE",
"2 64 OFFCURVE",
"2 -11 CURVE SMOOTH",
"2 -20 OFFCURVE",
"3 -28 OFFCURVE",
"6 -36 CURVE SMOOTH",
"14 -58 OFFCURVE",
"35 -72 OFFCURVE",
"66 -77 CURVE SMOOTH",
"77 -79 OFFCURVE",
"88 -80 OFFCURVE",
"100 -80 CURVE SMOOTH"
);
},
{
closed = 1;
nodes = (
"71 -54 OFFCURVE",
"51 -32 OFFCURVE",
"51 -2 CURVE SMOOTH",
"51 32 OFFCURVE",
"77 77 OFFCURVE",
"111 109 CURVE SMOOTH",
"151 147 OFFCURVE",
"212 182 OFFCURVE",
"292 201 CURVE SMOOTH",
"346 213 OFFCURVE",
"402 218 OFFCURVE",
"459 218 CURVE SMOOTH",
"486 218 OFFCURVE",
"513 217 OFFCURVE",
"540 215 CURVE",
"430 103 OFFCURVE",
"270 -54 OFFCURVE",
"123 -54 CURVE SMOOTH"
);
}
);
width = 893;
}
);
leftKerningGroup = A;
note = A;
rightKerningGroup = A;
unicode = 0041;
},
{
glyphname = AE;
lastChange = "2021-11-17 23:01:55 +0000";
layers = (
{
anchors = (
{
name = bottom;
position = "{578, 0}";
},
{
name = top;
position = "{1065, 560}";
}
);
layerId = "1A0EDF0C-2B61-4714-947B-2452868211A8";
paths = (
{
closed = 1;
nodes = (
"262 -80 OFFCURVE",
"443 85 OFFCURVE",
"545 192 CURVE SMOOTH",
"565 213 LINE",
"640 207 OFFCURVE",
"688 199 OFFCURVE",
"749 176 CURVE",
"757 176 OFFCURVE",
"761 178 OFFCURVE",
"761 181 CURVE SMOOTH",
"761 187 OFFCURVE",
"745 198 OFFCURVE",
"721 203 CURVE SMOOTH",
"687 213 OFFCURVE",
"636 222 OFFCURVE",
"579 228 CURVE",
"699 376 OFFCURVE",
"879 527 OFFCURVE",
"984 544 CURVE SMOOTH",
"988 545 OFFCURVE",
"989 551 OFFCURVE",
"978 551 CURVE SMOOTH",
"855 547 OFFCURVE",
"673 364 OFFCURVE",
"554 230 CURVE",
"528 232 OFFCURVE",
"501 233 OFFCURVE",
"473 233 CURVE SMOOTH",
"406 233 OFFCURVE",
"336 227 OFFCURVE",
"271 212 CURVE SMOOTH",
"100 174 OFFCURVE",
"2 64 OFFCURVE",
"2 -11 CURVE SMOOTH",
"2 -20 OFFCURVE",
"3 -28 OFFCURVE",
"6 -36 CURVE SMOOTH",
"14 -58 OFFCURVE",
"35 -72 OFFCURVE",
"66 -77 CURVE SMOOTH",
"77 -79 OFFCURVE",
"88 -80 OFFCURVE",
"100 -80 CURVE SMOOTH"
);
},
{
closed = 1;
nodes = (
"71 -54 OFFCURVE",
"51 -32 OFFCURVE",
"51 -2 CURVE SMOOTH",
"51 32 OFFCURVE",
"77 77 OFFCURVE",
"111 109 CURVE SMOOTH",
"151 147 OFFCURVE",
"212 182 OFFCURVE",
"292 201 CURVE SMOOTH",
"346 213 OFFCURVE",
"402 218 OFFCURVE",
"459 218 CURVE SMOOTH",
"486 218 OFFCURVE",
"513 217 OFFCURVE",
"540 215 CURVE",
"430 103 OFFCURVE",
"270 -54 OFFCURVE",
"123 -54 CURVE SMOOTH"
);
},
{
closed = 1;
nodes = (
"922 -57 OFFCURVE",
"1049 -35 OFFCURVE",
"1137 52 CURVE SMOOTH",
"1156 71 OFFCURVE",
"1171 94 OFFCURVE",
"1185 116 CURVE SMOOTH",
"1187 119 OFFCURVE",
"1188 123 OFFCURVE",
"1188 126 CURVE SMOOTH",
"1188 129 OFFCURVE",
"1187 131 OFFCURVE",
"1185 131 CURVE SMOOTH",
"1184 131 OFFCURVE",
"1182 130 OFFCURVE",
"1180 127 CURVE SMOOTH",
"1165 104 OFFCURVE",
"1147 82 OFFCURVE",
"1125 65 CURVE SMOOTH",
"1032 -10 OFFCURVE",
"883 -36 OFFCURVE",
"796 -36 CURVE SMOOTH",
"727 -36 OFFCURVE",
"669 -16 OFFCURVE",
"669 58 CURVE SMOOTH",
"669 71 OFFCURVE",
"671 86 OFFCURVE",
"675 102 CURVE SMOOTH",
"689 165 OFFCURVE",
"728 235 OFFCURVE",
"770 293 CURVE",
"827 303 OFFCURVE",
"930 310 OFFCURVE",
"1015 310 CURVE SMOOTH",
"1036 310 OFFCURVE",
"1056 309 OFFCURVE",
"1073 309 CURVE SMOOTH",
"1080 309 OFFCURVE",
"1092 314 OFFCURVE",
"1092 319 CURVE SMOOTH",
"1092 322 OFFCURVE",
"1088 325 OFFCURVE",
"1076 326 CURVE SMOOTH",
"1039 330 OFFCURVE",
"1005 331 OFFCURVE",
"973 331 CURVE SMOOTH",
"908 331 OFFCURVE",
"850 325 OFFCURVE",
"788 319 CURVE",
"824 362 OFFCURVE",
"970 529 OFFCURVE",
"1000 537 CURVE SMOOTH",
"1011 540 OFFCURVE",
"1033 542 OFFCURVE",
"1058 542 CURVE SMOOTH",
"1130 542 OFFCURVE",
"1235 528 OFFCURVE",
"1241 491 CURVE SMOOTH",
"1244 475 OFFCURVE",
"1237 456 OFFCURVE",
"1219 437 CURVE SMOOTH",
"1216 434 OFFCURVE",
"1215 431 OFFCURVE",
"1215 429 CURVE SMOOTH",
"1215 425 OFFCURVE",
"1217 423 OFFCURVE",
"1221 423 CURVE SMOOTH",
"1224 423 OFFCURVE",
"1227 424 OFFCURVE",
"1231 428 CURVE SMOOTH",
"1252 451 OFFCURVE",
"1271 478 OFFCURVE",
"1271 501 CURVE SMOOTH",
"1271 506 OFFCURVE",
"1270 511 OFFCURVE",
"1268 515 CURVE SMOOTH",
"1254 548 OFFCURVE",
"1153 559 OFFCURVE",
"1037 559 CURVE SMOOTH",
"884 559 OFFCURVE",
"704 540 OFFCURVE",
"660 527 CURVE SMOOTH",
"612 512 OFFCURVE",
"585 488 OFFCURVE",
"585 464 CURVE SMOOTH",
"585 444 OFFCURVE",
"602 424 OFFCURVE",
"640 408 CURVE",
"645 407 OFFCURVE",
"649 411 OFFCURVE",
"649 415 CURVE SMOOTH",
"649 417 OFFCURVE",
"649 418 OFFCURVE",
"647 419 CURVE SMOOTH",
"618 432 OFFCURVE",
"605 444 OFFCURVE",
"605 456 CURVE SMOOTH",
"605 475 OFFCURVE",
"636 492 OFFCURVE",
"682 506 CURVE SMOOTH",
"736 523 OFFCURVE",
"854 538 OFFCURVE",
"961 541 CURVE",
"870 460 OFFCURVE",
"774 355 OFFCURVE",
"715 258 CURVE SMOOTH",
"682 205 OFFCURVE",
"655 153 OFFCURVE",
"642 106 CURVE SMOOTH",
"636 86 OFFCURVE",
"634 68 OFFCURVE",
"634 52 CURVE SMOOTH",
"634 -37 OFFCURVE",
"719 -57 OFFCURVE",
"811 -57 CURVE SMOOTH"
);
}
);
width = 1156;
}
);
leftKerningGroup = A;
rightKerningGroup = E;
unicode = 00C6;
},
{
glyphname = B;
lastChange = "2021-11-09 10:50:25 +0000";
layers = (
{
layerId = "1A0EDF0C-2B61-4714-947B-2452868211A8";
paths = (
{
closed = 1;
nodes = (
"445 -60 OFFCURVE",
"568 -19 OFFCURVE",
"618 44 CURVE SMOOTH",
"634 64 OFFCURVE",
"642 86 OFFCURVE",
"642 109 CURVE SMOOTH",
"642 144 OFFCURVE",
"622 180 OFFCURVE",
"579 211 CURVE SMOOTH",
"538 242 OFFCURVE",
"457 273 OFFCURVE",
"389 294 CURVE",
"440 298 OFFCURVE",
"503 309 OFFCURVE",
"553 336 CURVE SMOOTH",
"593 358 OFFCURVE",
"616 392 OFFCURVE",
"616 428 CURVE SMOOTH",
"616 466 OFFCURVE",
"591 506 OFFCURVE",
"534 535 CURVE",
"535 536 LINE",
"578 557 OFFCURVE",
"618 567 OFFCURVE",
"642 567 CURVE SMOOTH",
"656 567 OFFCURVE",
"665 563 OFFCURVE",
"665 557 CURVE",
"665 557 OFFCURVE",
"664 558 OFFCURVE",
"664 559 CURVE",
"659 570 OFFCURVE",
"644 574 OFFCURVE",
"625 574 CURVE SMOOTH",
"592 574 OFFCURVE",
"546 561 OFFCURVE",
"512 545 CURVE",
"498 551 OFFCURVE",
"483 556 OFFCURVE",
"466 560 CURVE SMOOTH",
"386 580 OFFCURVE",
"293 591 OFFCURVE",
"212 591 CURVE SMOOTH",
"201 591 OFFCURVE",
"191 590 OFFCURVE",
"181 590 CURVE SMOOTH",
"79 586 OFFCURVE",
"25 562 OFFCURVE",
"12 531 CURVE SMOOTH",
"10 527 OFFCURVE",
"9 523 OFFCURVE",
"9 519 CURVE SMOOTH",
"9 475 OFFCURVE",
"112 453 OFFCURVE",
"140 449 CURVE",
"146 449 OFFCURVE",
"147 459 OFFCURVE",
"141 460 CURVE SMOOTH",
"119 462 OFFCURVE",
"45 483 OFFCURVE",
"45 517 CURVE SMOOTH",
"45 520 OFFCURVE",
"46 524 OFFCURVE",
"47 527 CURVE SMOOTH",
"56 550 OFFCURVE",
"106 571 OFFCURVE",
"198 575 CURVE SMOOTH",
"210 575 OFFCURVE",
"222 576 OFFCURVE",
"235 576 CURVE SMOOTH",
"304 576 OFFCURVE",
"384 569 OFFCURVE",
"452 550 CURVE SMOOTH",
"467 545 OFFCURVE",
"481 541 OFFCURVE",
"493 535 CURVE",
"414 492 OFFCURVE",
"266 391 OFFCURVE",
"201 303 CURVE SMOOTH",
"135 215 OFFCURVE",
"109 145 OFFCURVE",
"109 91 CURVE SMOOTH",
"109 -16 OFFCURVE",
"215 -60 OFFCURVE",
"332 -60 CURVE SMOOTH"
);
},
{
closed = 1;
nodes = (
"287 305 OFFCURVE",
"277 308 OFFCURVE",
"271 311 CURVE",
"273 312 LINE",
"278 312 OFFCURVE",
"293 309 OFFCURVE",
"312 304 CURVE",
"298 304 LINE SMOOTH"
);
},
{
closed = 1;
nodes = (
"229 -47 OFFCURVE",
"143 -9 OFFCURVE",
"143 85 CURVE SMOOTH",
"143 138 OFFCURVE",
"171 209 OFFCURVE",
"239 301 CURVE SMOOTH",
"302 385 OFFCURVE",
"436 481 OFFCURVE",
"514 525 CURVE",
"561 498 OFFCURVE",
"581 463 OFFCURVE",
"581 430 CURVE SMOOTH",
"581 396 OFFCURVE",
"561 365 OFFCURVE",
"529 346 CURVE SMOOTH",
"477 315 OFFCURVE",
"407 306 OFFCURVE",
"357 304 CURVE",
"318 315 OFFCURVE",
"286 322 OFFCURVE",
"274 322 CURVE SMOOTH",
"271 322 OFFCURVE",
"257 321 OFFCURVE",
"257 312 CURVE SMOOTH",
"257 299 OFFCURVE",
"294 294 OFFCURVE",
"298 294 CURVE SMOOTH",
"306 293 OFFCURVE",
"325 292 OFFCURVE",
"349 292 CURVE",
"414 271 OFFCURVE",
"502 235 OFFCURVE",
"545 201 CURVE SMOOTH",
"581 172 OFFCURVE",
"598 139 OFFCURVE",
"598 108 CURVE SMOOTH",
"598 88 OFFCURVE",
"591 69 OFFCURVE",
"578 51 CURVE SMOOTH",
"536 -8 OFFCURVE",
"426 -47 OFFCURVE",
"326 -47 CURVE SMOOTH"
);
}
);
width = 677;
}
);
note = B;
unicode = 0042;
},
{
glyphname = C;
lastChange = "2021-11-17 22:47:05 +0000";
layers = (
{
anchors = (
{
name = bottom;
position = "{196, -34}";
},
{
name = top;
position = "{585, 569}";
}
);
layerId = "1A0EDF0C-2B61-4714-947B-2452868211A8";
paths = (
{
closed = 1;
nodes = (
"338 -41 OFFCURVE",
"447 -9 OFFCURVE",
"532 37 CURVE SMOOTH",
"573 60 OFFCURVE",
"614 97 OFFCURVE",
"637 124 CURVE SMOOTH",
"644 133 OFFCURVE",
"647 138 OFFCURVE",
"647 141 CURVE SMOOTH",
"647 144 OFFCURVE",
"646 145 OFFCURVE",
"643 145 CURVE SMOOTH",
"639 145 OFFCURVE",
"634 142 OFFCURVE",
"630 138 CURVE SMOOTH",
"608 111 OFFCURVE",
"553 69 OFFCURVE",
"524 53 CURVE SMOOTH",
"448 11 OFFCURVE",
"355 -14 OFFCURVE",
"273 -14 CURVE SMOOTH",
"192 -14 OFFCURVE",
"122 11 OFFCURVE",
"91 66 CURVE SMOOTH",
"77 90 OFFCURVE",
"71 120 OFFCURVE",
"71 152 CURVE SMOOTH",
"71 281 OFFCURVE",
"180 455 OFFCURVE",
"406 531 CURVE SMOOTH",
"430 539 OFFCURVE",
"483 549 OFFCURVE",
"535 549 CURVE SMOOTH",
"572 549 OFFCURVE",
"608 544 OFFCURVE",
"635 531 CURVE SMOOTH",
"661 518 OFFCURVE",
"674 491 OFFCURVE",
"674 464 CURVE SMOOTH",
"674 440 OFFCURVE",
"664 417 OFFCURVE",
"644 404 CURVE SMOOTH",
"635 398 OFFCURVE",
"631 392 OFFCURVE",
"631 388 CURVE SMOOTH",
"631 386 OFFCURVE",
"632 385 OFFCURVE",
"635 385 CURVE SMOOTH",
"639 385 OFFCURVE",
"646 387 OFFCURVE",
"655 393 CURVE SMOOTH",
"665 399 OFFCURVE",
"684 415 OFFCURVE",
"692 431 CURVE SMOOTH",
"700 448 OFFCURVE",
"704 464 OFFCURVE",
"704 479 CURVE SMOOTH",
"704 508 OFFCURVE",
"689 533 OFFCURVE",
"653 550 CURVE SMOOTH",
"624 564 OFFCURVE",
"585 569 OFFCURVE",
"547 569 CURVE SMOOTH",
"488 569 OFFCURVE",
"428 558 OFFCURVE",
"400 548 CURVE SMOOTH",
"152 467 OFFCURVE",
"24 276 OFFCURVE",
"24 137 CURVE SMOOTH",
"24 109 OFFCURVE",
"30 83 OFFCURVE",
"40 60 CURVE SMOOTH",
"73 -12 OFFCURVE",
"152 -41 OFFCURVE",
"243 -41 CURVE SMOOTH"
);
}
);
width = 654;
}
);
note = C;
unicode = 0043;
},
{
glyphname = D;
lastChange = "2021-11-09 11:10:08 +0000";
layers = (
{
anchors = (
{
name = bottom;
position = "{357, 0}";
},
{
name = center;
position = "{245, 290}";
},
{
name = top;
position = "{657, 580}";
}
);
layerId = "1A0EDF0C-2B61-4714-947B-2452868211A8";
paths = (
{
closed = 1;
nodes = (
"360 -40 OFFCURVE",
"467 -15 OFFCURVE",
"550 32 CURVE SMOOTH",
"655 92 OFFCURVE",
"709 189 OFFCURVE",
"709 284 CURVE SMOOTH",
"709 383 OFFCURVE",
"652 480 OFFCURVE",
"534 535 CURVE",
"535 536 LINE",
"578 557 OFFCURVE",
"618 567 OFFCURVE",
"642 567 CURVE SMOOTH",
"656 567 OFFCURVE",
"665 563 OFFCURVE",
"665 557 CURVE",
"665 557 OFFCURVE",
"664 558 OFFCURVE",
"664 559 CURVE",
"659 570 OFFCURVE",
"644 574 OFFCURVE",
"625 574 CURVE SMOOTH",
"592 574 OFFCURVE",
"545 561 OFFCURVE",
"512 545 CURVE",
"497 551 OFFCURVE",
"482 556 OFFCURVE",
"466 560 CURVE SMOOTH",
"388 582 OFFCURVE",
"296 591 OFFCURVE",
"216 591 CURVE SMOOTH",
"204 591 OFFCURVE",
"192 590 OFFCURVE",
"181 590 CURVE SMOOTH",
"79 586 OFFCURVE",
"25 562 OFFCURVE",
"12 531 CURVE SMOOTH",
"10 527 OFFCURVE",
"9 523 OFFCURVE",
"9 519 CURVE SMOOTH",
"9 475 OFFCURVE",
"112 453 OFFCURVE",
"140 449 CURVE",
"146 449 OFFCURVE",
"147 459 OFFCURVE",
"141 460 CURVE SMOOTH",
"119 462 OFFCURVE",
"45 483 OFFCURVE",
"45 517 CURVE SMOOTH",
"45 520 OFFCURVE",
"46 524 OFFCURVE",
"47 527 CURVE SMOOTH",
"56 550 OFFCURVE",
"106 571 OFFCURVE",
"198 575 CURVE SMOOTH",
"210 575 OFFCURVE",
"222 576 OFFCURVE",
"235 576 CURVE SMOOTH",
"304 576 OFFCURVE",
"384 569 OFFCURVE",
"452 550 CURVE SMOOTH",
"467 545 OFFCURVE",
"481 541 OFFCURVE",
"494 535 CURVE",
"400 476 OFFCURVE",
"85 210 OFFCURVE",
"85 61 CURVE SMOOTH",
"85 22 OFFCURVE",
"106 -9 OFFCURVE",
"160 -26 CURVE SMOOTH",
"191 -36 OFFCURVE",
"228 -40 OFFCURVE",
"268 -40 CURVE SMOOTH"
);
},
{
closed = 1;
nodes = (
"234 -27 OFFCURVE",
"199 -22 OFFCURVE",
"172 -10 CURVE SMOOTH",
"136 5 OFFCURVE",
"121 30 OFFCURVE",
"121 61 CURVE SMOOTH",
"121 200 OFFCURVE",
"422 462 OFFCURVE",
"517 525 CURVE",
"621 474 OFFCURVE",
"673 383 OFFCURVE",
"673 289 CURVE SMOOTH",
"673 203 OFFCURVE",
"629 114 OFFCURVE",
"537 52 CURVE SMOOTH",
"460 0 OFFCURVE",
"358 -27 OFFCURVE",
"273 -27 CURVE SMOOTH"
);
}
);
width = 713;
}
);
note = D;
unicode = 0044;
},
{
glyphname = Eth;
lastChange = "2021-11-09 10:50:25 +0000";
layers = (
{
layerId = "1A0EDF0C-2B61-4714-947B-2452868211A8";
paths = (
{
closed = 1;
nodes = (
"360 -40 OFFCURVE",
"467 -15 OFFCURVE",
"550 32 CURVE SMOOTH",
"655 92 OFFCURVE",
"709 189 OFFCURVE",
"709 284 CURVE SMOOTH",
"709 383 OFFCURVE",
"652 480 OFFCURVE",
"534 535 CURVE",
"535 536 LINE",
"578 557 OFFCURVE",
"618 567 OFFCURVE",
"642 567 CURVE SMOOTH",
"651 567 OFFCURVE",
"658 565 OFFCURVE",
"662 562 CURVE",
"656 571 OFFCURVE",
"642 574 OFFCURVE",
"625 574 CURVE SMOOTH",
"592 574 OFFCURVE",
"545 561 OFFCURVE",
"512 545 CURVE",
"497 551 OFFCURVE",
"482 556 OFFCURVE",
"466 560 CURVE SMOOTH",
"388 582 OFFCURVE",
"296 591 OFFCURVE",
"216 591 CURVE SMOOTH",
"204 591 OFFCURVE",
"192 590 OFFCURVE",
"181 590 CURVE SMOOTH",
"79 586 OFFCURVE",
"25 562 OFFCURVE",
"12 531 CURVE SMOOTH",
"10 527 OFFCURVE",
"9 523 OFFCURVE",
"9 519 CURVE SMOOTH",
"9 475 OFFCURVE",
"112 453 OFFCURVE",
"140 449 CURVE",
"146 449 OFFCURVE",
"147 459 OFFCURVE",
"141 460 CURVE SMOOTH",
"119 462 OFFCURVE",
"45 483 OFFCURVE",
"45 517 CURVE SMOOTH",
"45 520 OFFCURVE",
"46 524 OFFCURVE",
"47 527 CURVE SMOOTH",
"56 550 OFFCURVE",
"106 571 OFFCURVE",
"198 575 CURVE SMOOTH",
"210 575 OFFCURVE",
"222 576 OFFCURVE",
"235 576 CURVE SMOOTH",
"304 576 OFFCURVE",
"384 569 OFFCURVE",
"452 550 CURVE SMOOTH",
"467 545 OFFCURVE",
"481 541 OFFCURVE",
"494 535 CURVE",
"426 492 OFFCURVE",
"241 340 OFFCURVE",
"145 203 CURVE",
"118 202 OFFCURVE",
"79 201 OFFCURVE",
"61 197 CURVE",
"60 196 LINE",
"60 190 OFFCURVE",
"66 177 OFFCURVE",
"74 177 CURVE SMOOTH",
"88 177 OFFCURVE",
"107 177 OFFCURVE",
"128 178 CURVE",
"101 135 OFFCURVE",
"85 95 OFFCURVE",
"85 61 CURVE SMOOTH",
"85 22 OFFCURVE",
"106 -9 OFFCURVE",
"160 -26 CURVE SMOOTH",
"191 -36 OFFCURVE",
"228 -40 OFFCURVE",
"268 -40 CURVE SMOOTH"
);
},
{
closed = 1;
nodes = (
"234 -27 OFFCURVE",
"199 -22 OFFCURVE",
"172 -10 CURVE SMOOTH",
"136 5 OFFCURVE",
"121 30 OFFCURVE",
"121 61 CURVE SMOOTH",
"121 95 OFFCURVE",
"139 135 OFFCURVE",
"166 179 CURVE",
"200 180 OFFCURVE",
"233 181 OFFCURVE",
"255 183 CURVE SMOOTH",
"269 184 OFFCURVE",
"273 187 OFFCURVE",
"273 190 CURVE SMOOTH",
"273 193 OFFCURVE",
"271 193 OFFCURVE",
"262 196 CURVE SMOOTH",
"249 201 OFFCURVE",
"211 202 OFFCURVE",
"183 203 CURVE",
"276 334 OFFCURVE",
"449 480 OFFCURVE",
"517 525 CURVE",
"621 474 OFFCURVE",
"673 383 OFFCURVE",
"673 289 CURVE SMOOTH",
"673 203 OFFCURVE",
"629 114 OFFCURVE",
"537 52 CURVE SMOOTH",
"460 0 OFFCURVE",
"358 -27 OFFCURVE",
"273 -27 CURVE SMOOTH"
);
},
{
closed = 1;
nodes = (
"665 559 OFFCURVE",
"664 561 OFFCURVE",
"662 562 CURVE",
"664 559 LINE",
"664 558 OFFCURVE",
"665 557 OFFCURVE",
"665 557 CURVE"
);
}
);
width = 713;
}
);
unicode = 00D0;
},
{
glyphname = E;
lastChange = "2021-11-17 23:02:22 +0000";
layers = (
{
anchors = (
{
name = bottom;
position = "{253, -49}";
},
{
name = ogonek;
position = "{539, -5}";
},
{
name = top;
position = "{569, 558}";
},
{
name = topleft;
position = "{20, 580}";
}
);
layerId = "1A0EDF0C-2B61-4714-947B-2452868211A8";
paths = (
{
closed = 1;
nodes = (
"370 -57 OFFCURVE",
"497 -35 OFFCURVE",
"585 52 CURVE SMOOTH",
"604 71 OFFCURVE",
"619 94 OFFCURVE",
"633 116 CURVE SMOOTH",
"635 119 OFFCURVE",
"636 123 OFFCURVE",
"636 126 CURVE SMOOTH",
"636 129 OFFCURVE",
"635 131 OFFCURVE",
"633 131 CURVE SMOOTH",
"632 131 OFFCURVE",
"630 130 OFFCURVE",
"628 127 CURVE SMOOTH",
"613 104 OFFCURVE",
"595 82 OFFCURVE",
"573 65 CURVE SMOOTH",
"480 -10 OFFCURVE",
"331 -36 OFFCURVE",
"244 -36 CURVE SMOOTH",
"175 -36 OFFCURVE",
"117 -16 OFFCURVE",
"117 58 CURVE SMOOTH",
"117 71 OFFCURVE",
"119 86 OFFCURVE",
"123 102 CURVE SMOOTH",
"137 165 OFFCURVE",
"176 235 OFFCURVE",
"218 293 CURVE",
"275 303 OFFCURVE",
"378 310 OFFCURVE",
"463 310 CURVE SMOOTH",
"484 310 OFFCURVE",
"504 309 OFFCURVE",
"521 309 CURVE SMOOTH",
"528 309 OFFCURVE",
"540 314 OFFCURVE",
"540 319 CURVE SMOOTH",
"540 322 OFFCURVE",
"536 325 OFFCURVE",
"524 326 CURVE SMOOTH",
"487 330 OFFCURVE",
"453 331 OFFCURVE",
"421 331 CURVE SMOOTH",
"356 331 OFFCURVE",
"298 325 OFFCURVE",
"236 319 CURVE",
"272 362 OFFCURVE",
"418 529 OFFCURVE",
"448 537 CURVE SMOOTH",
"459 540 OFFCURVE",
"481 542 OFFCURVE",
"506 542 CURVE SMOOTH",
"578 542 OFFCURVE",
"683 528 OFFCURVE",
"689 491 CURVE SMOOTH",
"692 475 OFFCURVE",
"685 456 OFFCURVE",
"667 437 CURVE SMOOTH",
"664 434 OFFCURVE",
"663 431 OFFCURVE",
"663 429 CURVE SMOOTH",
"663 425 OFFCURVE",
"665 423 OFFCURVE",
"669 423 CURVE SMOOTH",
"672 423 OFFCURVE",
"675 424 OFFCURVE",
"679 428 CURVE SMOOTH",
"700 451 OFFCURVE",
"719 478 OFFCURVE",
"719 501 CURVE SMOOTH",
"719 506 OFFCURVE",
"718 511 OFFCURVE",
"716 515 CURVE SMOOTH",
"702 548 OFFCURVE",
"601 559 OFFCURVE",
"485 559 CURVE SMOOTH",
"332 559 OFFCURVE",
"152 540 OFFCURVE",
"108 527 CURVE SMOOTH",
"60 512 OFFCURVE",
"33 488 OFFCURVE",
"33 464 CURVE SMOOTH",
"33 444 OFFCURVE",
"50 424 OFFCURVE",
"88 408 CURVE",
"93 407 OFFCURVE",
"97 411 OFFCURVE",
"97 415 CURVE SMOOTH",
"97 417 OFFCURVE",
"97 418 OFFCURVE",
"95 419 CURVE SMOOTH",
"66 432 OFFCURVE",
"53 444 OFFCURVE",
"53 456 CURVE SMOOTH",
"53 475 OFFCURVE",
"84 492 OFFCURVE",
"130 506 CURVE SMOOTH",
"184 523 OFFCURVE",
"302 538 OFFCURVE",
"409 541 CURVE",
"318 457 OFFCURVE",
"222 355 OFFCURVE",
"163 258 CURVE SMOOTH",
"130 205 OFFCURVE",
"103 153 OFFCURVE",
"90 106 CURVE SMOOTH",
"84 86 OFFCURVE",
"82 68 OFFCURVE",
"82 52 CURVE SMOOTH",
"82 -37 OFFCURVE",
"167 -57 OFFCURVE",
"259 -57 CURVE SMOOTH"
);
}
);
width = 604;
}
);
leftKerningGroup = E;
note = E;
rightKerningGroup = E;
unicode = 0045;
},
{
glyphname = F;
lastChange = "2021-11-17 23:14:15 +0000";
layers = (
{
layerId = "1A0EDF0C-2B61-4714-947B-2452868211A8";
paths = (
{
closed = 1;
nodes = (
"166 -61 OFFCURVE",
"170 -61 OFFCURVE",
"175 -60 CURVE SMOOTH",
"183 -59 OFFCURVE",
"186 -56 OFFCURVE",
"186 -53 CURVE SMOOTH",
"186 -50 OFFCURVE",
"183 -47 OFFCURVE",
"178 -47 CURVE",
"174 -48 LINE SMOOTH",
"155 -54 OFFCURVE",
"130 -36 OFFCURVE",
"124 -10 CURVE SMOOTH",
"120 8 OFFCURVE",
"118 27 OFFCURVE",
"118 46 CURVE SMOOTH",
"118 79 OFFCURVE",
"124 114 OFFCURVE",
"134 148 CURVE SMOOTH",
"149 197 OFFCURVE",
"172 247 OFFCURVE",
"201 294 CURVE",
"260 303 OFFCURVE",
"358 310 OFFCURVE",
"440 310 CURVE SMOOTH",
"460 310 OFFCURVE",
"479 309 OFFCURVE",
"496 309 CURVE SMOOTH",
"503 309 OFFCURVE",
"515 314 OFFCURVE",
"515 319 CURVE SMOOTH",
"515 322 OFFCURVE",
"511 325 OFFCURVE",
"499 326 CURVE SMOOTH",
"461 330 OFFCURVE",
"427 331 OFFCURVE",
"394 331 CURVE SMOOTH",
"331 331 OFFCURVE",
"275 326 OFFCURVE",
"216 319 CURVE",
"272 408 OFFCURVE",
"342 487 OFFCURVE",
"397 541 CURVE",
"414 542 OFFCURVE",
"437 542 OFFCURVE",
"462 542 CURVE SMOOTH",
"554 542 OFFCURVE",
"682 534 OFFCURVE",
"689 491 CURVE SMOOTH",
"692 475 OFFCURVE",
"685 456 OFFCURVE",
"667 437 CURVE SMOOTH",
"664 434 OFFCURVE",
"663 431 OFFCURVE",
"663 429 CURVE SMOOTH",
"663 425 OFFCURVE",
"665 423 OFFCURVE",
"669 423 CURVE SMOOTH",
"672 423 OFFCURVE",
"675 424 OFFCURVE",
"679 428 CURVE SMOOTH",
"700 451 OFFCURVE",
"719 478 OFFCURVE",
"719 501 CURVE SMOOTH",
"719 506 OFFCURVE",
"718 511 OFFCURVE",
"716 515 CURVE SMOOTH",
"703 548 OFFCURVE",
"603 559 OFFCURVE",
"487 559 CURVE SMOOTH",
"463 559 OFFCURVE",
"439 559 OFFCURVE",
"414 558 CURVE",
"418 563 OFFCURVE",
"420 568 OFFCURVE",
"420 572 CURVE SMOOTH",
"420 579 OFFCURVE",
"415 585 OFFCURVE",
"408 585 CURVE SMOOTH",
"405 585 OFFCURVE",
"401 584 OFFCURVE",
"397 580 CURVE SMOOTH",
"389 573 OFFCURVE",
"381 565 OFFCURVE",
"372 556 CURVE",
"253 550 OFFCURVE",
"141 537 OFFCURVE",
"108 527 CURVE SMOOTH",
"60 512 OFFCURVE",
"33 488 OFFCURVE",
"33 464 CURVE SMOOTH",
"33 444 OFFCURVE",
"50 424 OFFCURVE",
"88 408 CURVE",
"93 407 OFFCURVE",
"97 411 OFFCURVE",
"97 415 CURVE SMOOTH",
"97 417 OFFCURVE",
"97 418 OFFCURVE",
"95 419 CURVE SMOOTH",
"66 432 OFFCURVE",
"53 444 OFFCURVE",
"53 456 CURVE SMOOTH",
"53 475 OFFCURVE",
"84 492 OFFCURVE",
"130 506 CURVE SMOOTH",
"175 520 OFFCURVE",
"264 533 OFFCURVE",
"355 539 CURVE",
"269 449 OFFCURVE",
"159 309 OFFCURVE",
"114 173 CURVE SMOOTH",
"102 139 OFFCURVE",
"91 90 OFFCURVE",
"91 46 CURVE SMOOTH",
"91 23 OFFCURVE",
"94 2 OFFCURVE",
"101 -16 CURVE SMOOTH",
"112 -42 OFFCURVE",
"131 -61 OFFCURVE",
"162 -61 CURVE SMOOTH"
);
}
);
width = 485;
}
);
note = F;
unicode = 0046;
},
{
glyphname = G;
lastChange = "2021-11-17 22:54:40 +0000";
layers = (
{
anchors = (
{
name = bottom;
position = "{264, -31}";
},
{
name = top;
position = "{640, 549}";
}
);
layerId = "1A0EDF0C-2B61-4714-947B-2452868211A8";
paths = (
{
closed = 1;
nodes = (
"272 -39 OFFCURVE",
"303 -36 OFFCURVE",
"335 -31 CURVE SMOOTH",
"444 -13 OFFCURVE",
"618 56 OFFCURVE",
"679 159 CURVE SMOOTH",
"691 179 OFFCURVE",
"697 200 OFFCURVE",
"697 219 CURVE SMOOTH",
"697 238 OFFCURVE",
"690 255 OFFCURVE",
"675 265 CURVE",
"694 263 OFFCURVE",
"725 261 OFFCURVE",
"732 257 CURVE SMOOTH",
"740 253 OFFCURVE",
"745 257 OFFCURVE",
"745 262 CURVE SMOOTH",
"745 266 OFFCURVE",
"742 270 OFFCURVE",
"737 273 CURVE SMOOTH",
"722 280 OFFCURVE",
"669 286 OFFCURVE",
"651 287 CURVE SMOOTH",
"631 289 OFFCURVE",
"601 291 OFFCURVE",
"566 291 CURVE SMOOTH",
"544 291 OFFCURVE",
"521 291 OFFCURVE",
"497 289 CURVE SMOOTH",
"411 283 OFFCURVE",
"322 263 OFFCURVE",
"304 214 CURVE SMOOTH",
"303 211 OFFCURVE",
"303 208 OFFCURVE",
"303 206 CURVE SMOOTH",
"303 196 OFFCURVE",
"310 188 OFFCURVE",
"316 188 CURVE SMOOTH",
"319 188 OFFCURVE",
"322 190 OFFCURVE",
"324 196 CURVE SMOOTH",
"341 241 OFFCURVE",
"418 261 OFFCURVE",
"499 268 CURVE SMOOTH",
"514 269 OFFCURVE",
"528 270 OFFCURVE",
"540 270 CURVE SMOOTH",
"622 270 OFFCURVE",
"662 244 OFFCURVE",
"662 203 CURVE SMOOTH",
"662 84 OFFCURVE",
"424 0 OFFCURVE",
"333 -12 CURVE SMOOTH",
"310 -15 OFFCURVE",
"288 -17 OFFCURVE",
"266 -17 CURVE SMOOTH",
"172 -17 OFFCURVE",
"93 13 OFFCURVE",
"70 76 CURVE SMOOTH",
"65 91 OFFCURVE",
"62 108 OFFCURVE",
"62 126 CURVE SMOOTH",
"62 257 OFFCURVE",
"206 447 OFFCURVE",
"467 517 CURVE SMOOTH",
"488 523 OFFCURVE",
"531 529 OFFCURVE",
"576 529 CURVE SMOOTH",
"620 529 OFFCURVE",
"667 523 OFFCURVE",
"696 505 CURVE SMOOTH",
"716 493 OFFCURVE",
"725 473 OFFCURVE",
"725 452 CURVE SMOOTH",
"725 426 OFFCURVE",
"711 399 OFFCURVE",
"685 386 CURVE SMOOTH",
"681 384 OFFCURVE",
"679 380 OFFCURVE",
"679 376 CURVE SMOOTH",
"679 371 OFFCURVE",
"683 366 OFFCURVE",
"688 366 CURVE SMOOTH",
"689 366 OFFCURVE",
"691 366 OFFCURVE",
"692 367 CURVE",
"704 373 OFFCURVE",
"716 387 OFFCURVE",
"727 403 CURVE SMOOTH",
"743 427 OFFCURVE",
"753 449 OFFCURVE",
"753 470 CURVE SMOOTH",
"753 491 OFFCURVE",
"743 509 OFFCURVE",
"718 524 CURVE SMOOTH",
"687 542 OFFCURVE",
"640 549 OFFCURVE",
"594 549 CURVE SMOOTH",
"543 549 OFFCURVE",
"493 541 OFFCURVE",
"467 534 CURVE SMOOTH",
"185 461 OFFCURVE",
"27 257 OFFCURVE",
"27 117 CURVE SMOOTH",
"27 102 OFFCURVE",
"28 88 OFFCURVE",
"32 75 CURVE SMOOTH",
"54 -6 OFFCURVE",
"140 -39 OFFCURVE",
"242 -39 CURVE SMOOTH"
);
}
);
width = 733;
}
);
note = G;
unicode = 0047;
},
{
glyphname = H;
lastChange = "2021-11-09 10:50:25 +0000";
layers = (
{
anchors = (
{
name = bottom;
position = "{447, 0}";
},
{
name = center;
position = "{447, 290}";
},
{
name = top;
position = "{727, 580}";
},
{
name = topleft;
position = "{20, 580}";
}
);
layerId = "1A0EDF0C-2B61-4714-947B-2452868211A8";
paths = (
{
closed = 1;
nodes = (
"122 -65 OFFCURVE",
"192 -36 OFFCURVE",
"218 -21 CURVE SMOOTH",
"253 -1 OFFCURVE",
"287 25 OFFCURVE",
"319 53 CURVE SMOOTH",
"376 103 OFFCURVE",
"425 161 OFFCURVE",
"466 222 CURVE",
"490 224 OFFCURVE",
"512 224 OFFCURVE",
"533 224 CURVE SMOOTH",
"554 224 OFFCURVE",
"574 224 OFFCURVE",
"592 222 CURVE SMOOTH",
"627 220 OFFCURVE",
"660 216 OFFCURVE",
"690 212 CURVE",
"680 178 OFFCURVE",
"675 143 OFFCURVE",
"675 111 CURVE SMOOTH",
"675 46 OFFCURVE",
"699 -8 OFFCURVE",
"764 -23 CURVE SMOOTH",
"772 -25 OFFCURVE",
"779 -26 OFFCURVE",
"787 -26 CURVE SMOOTH",
"812 -26 OFFCURVE",
"837 -16 OFFCURVE",
"858 8 CURVE SMOOTH",
"862 12 OFFCURVE",
"856 17 OFFCURVE",
"850 17 CURVE SMOOTH",
"848 17 OFFCURVE",
"846 17 OFFCURVE",
"845 15 CURVE",
"826 -7 OFFCURVE",
"805 -14 OFFCURVE",
"786 -14 CURVE SMOOTH",
"779 -14 OFFCURVE",
"773 -14 OFFCURVE",
"767 -12 CURVE SMOOTH",
"721 -2 OFFCURVE",
"703 37 OFFCURVE",
"703 90 CURVE SMOOTH",
"703 124 OFFCURVE",
"711 164 OFFCURVE",
"723 206 CURVE",
"784 194 OFFCURVE",
"825 178 OFFCURVE",
"831 168 CURVE SMOOTH",
"834 162 OFFCURVE",
"844 166 OFFCURVE",
"844 171 CURVE SMOOTH",
"844 172 OFFCURVE",
"844 173 OFFCURVE",
"843 174 CURVE",
"835 187 OFFCURVE",
"790 206 OFFCURVE",
"727 220 CURVE",
"771 368 OFFCURVE",
"866 539 OFFCURVE",
"903 592 CURVE SMOOTH",
"907 597 OFFCURVE",
"902 600 OFFCURVE",
"894 600 CURVE SMOOTH",
"883 600 OFFCURVE",
"867 595 OFFCURVE",
"861 585 CURVE SMOOTH",
"840 556 OFFCURVE",
"749 384 OFFCURVE",
"700 244 CURVE SMOOTH",
"698 238 OFFCURVE",
"696 233 OFFCURVE",
"695 227 CURVE",
"669 232 OFFCURVE",
"640 236 OFFCURVE",
"611 238 CURVE SMOOTH",
"582 240 OFFCURVE",
"551 242 OFFCURVE",
"517 242 CURVE SMOOTH",
"505 242 OFFCURVE",
"491 242 OFFCURVE",
"478 241 CURVE",
"533 328 OFFCURVE",
"571 420 OFFCURVE",
"589 504 CURVE",
"591 509 OFFCURVE",
"593 515 OFFCURVE",
"593 521 CURVE SMOOTH",
"593 524 LINE",
"586 550 OFFCURVE",
"526 559 OFFCURVE",
"456 559 CURVE SMOOTH",
"367 559 OFFCURVE",
"261 544 OFFCURVE",
"231 532 CURVE SMOOTH",
"197 519 OFFCURVE",
"178 497 OFFCURVE",
"178 474 CURVE SMOOTH",
"178 456 OFFCURVE",
"190 438 OFFCURVE",
"217 423 CURVE SMOOTH",
"220 421 OFFCURVE",
"223 425 OFFCURVE",
"223 429 CURVE SMOOTH",
"223 430 OFFCURVE",
"223 432 OFFCURVE",
"221 433 CURVE SMOOTH",
"200 445 OFFCURVE",
"191 456 OFFCURVE",
"191 467 CURVE SMOOTH",
"191 484 OFFCURVE",
"213 500 OFFCURVE",
"246 513 CURVE SMOOTH",
"282 527 OFFCURVE",
"354 540 OFFCURVE",
"424 545 CURVE SMOOTH",
"431 545 OFFCURVE",
"517 549 OFFCURVE",
"556 529 CURVE",
"546 439 OFFCURVE",
"503 333 OFFCURVE",
"447 240 CURVE",
"323 232 OFFCURVE",
"188 204 OFFCURVE",
"99 137 CURVE SMOOTH",
"38 90 OFFCURVE",
"4 34 OFFCURVE",
"4 -9 CURVE SMOOTH",
"4 -51 OFFCURVE",
"32 -65 OFFCURVE",
"69 -65 CURVE SMOOTH"
);
},
{
closed = 1;
nodes = (
"56 -44 OFFCURVE",
"40 -26 OFFCURVE",
"40 -1 CURVE SMOOTH",
"40 33 OFFCURVE",
"70 81 OFFCURVE",
"107 114 CURVE SMOOTH",
"180 181 OFFCURVE",
"315 211 OFFCURVE",
"435 220 CURVE",
"398 161 OFFCURVE",
"355 108 OFFCURVE",
"312 68 CURVE SMOOTH",
"247 6 OFFCURVE",
"169 -44 OFFCURVE",
"97 -44 CURVE SMOOTH"
);
}
);
width = 893;
}
);
note = H;
unicode = 0048;
},
{
glyphname = Hbar;
lastChange = "2021-11-09 10:50:25 +0000";
layers = (
{
layerId = "1A0EDF0C-2B61-4714-947B-2452868211A8";
paths = (
{
closed = 1;
nodes = (
"122 -65 OFFCURVE",
"192 -36 OFFCURVE",
"218 -21 CURVE SMOOTH",
"253 -1 OFFCURVE",
"287 25 OFFCURVE",
"319 53 CURVE SMOOTH",
"376 103 OFFCURVE",
"425 161 OFFCURVE",
"466 222 CURVE",
"490 224 OFFCURVE",
"512 224 OFFCURVE",
"533 224 CURVE SMOOTH",
"554 224 OFFCURVE",
"574 224 OFFCURVE",
"592 222 CURVE SMOOTH",
"627 220 OFFCURVE",
"660 216 OFFCURVE",
"690 212 CURVE",
"680 178 OFFCURVE",
"675 143 OFFCURVE",
"675 111 CURVE SMOOTH",
"675 46 OFFCURVE",
"699 -8 OFFCURVE",
"764 -23 CURVE SMOOTH",
"772 -25 OFFCURVE",
"779 -26 OFFCURVE",
"787 -26 CURVE SMOOTH",
"812 -26 OFFCURVE",
"837 -16 OFFCURVE",
"858 8 CURVE SMOOTH",
"862 12 OFFCURVE",
"856 17 OFFCURVE",
"850 17 CURVE SMOOTH",
"848 17 OFFCURVE",
"846 17 OFFCURVE",
"845 15 CURVE",
"826 -7 OFFCURVE",
"805 -14 OFFCURVE",
"786 -14 CURVE SMOOTH",
"779 -14 OFFCURVE",
"773 -14 OFFCURVE",
"767 -12 CURVE SMOOTH",
"721 -2 OFFCURVE",
"703 37 OFFCURVE",
"703 90 CURVE SMOOTH",
"703 124 OFFCURVE",
"711 164 OFFCURVE",
"723 206 CURVE",
"784 194 OFFCURVE",
"825 178 OFFCURVE",
"831 168 CURVE SMOOTH",
"834 162 OFFCURVE",
"844 166 OFFCURVE",
"844 171 CURVE SMOOTH",
"844 172 OFFCURVE",
"844 173 OFFCURVE",
"843 174 CURVE",
"835 187 OFFCURVE",
"790 206 OFFCURVE",
"727 220 CURVE",
"771 368 OFFCURVE",
"866 539 OFFCURVE",
"903 592 CURVE SMOOTH",
"907 597 OFFCURVE",
"902 600 OFFCURVE",
"894 600 CURVE SMOOTH",
"883 600 OFFCURVE",
"867 595 OFFCURVE",
"861 585 CURVE SMOOTH",
"840 556 OFFCURVE",
"749 384 OFFCURVE",
"700 244 CURVE SMOOTH",
"698 238 OFFCURVE",
"696 233 OFFCURVE",
"695 227 CURVE",
"669 232 OFFCURVE",
"640 236 OFFCURVE",
"611 238 CURVE SMOOTH",
"582 240 OFFCURVE",
"551 242 OFFCURVE",
"517 242 CURVE SMOOTH",
"505 242 OFFCURVE",
"491 242 OFFCURVE",
"478 241 CURVE",
"533 328 OFFCURVE",
"571 420 OFFCURVE",
"589 504 CURVE",
"591 509 OFFCURVE",
"593 515 OFFCURVE",
"593 521 CURVE SMOOTH",
"593 524 LINE",
"586 550 OFFCURVE",
"526 559 OFFCURVE",
"456 559 CURVE SMOOTH",
"367 559 OFFCURVE",
"261 544 OFFCURVE",
"231 532 CURVE SMOOTH",
"197 519 OFFCURVE",
"178 497 OFFCURVE",
"178 474 CURVE SMOOTH",
"178 456 OFFCURVE",
"190 438 OFFCURVE",
"217 423 CURVE SMOOTH",
"220 421 OFFCURVE",
"223 425 OFFCURVE",
"223 429 CURVE SMOOTH",
"223 430 OFFCURVE",
"223 432 OFFCURVE",
"221 433 CURVE SMOOTH",
"200 445 OFFCURVE",
"191 456 OFFCURVE",
"191 467 CURVE SMOOTH",
"191 484 OFFCURVE",
"213 500 OFFCURVE",
"246 513 CURVE SMOOTH",
"282 527 OFFCURVE",
"354 540 OFFCURVE",
"424 545 CURVE SMOOTH",
"431 545 OFFCURVE",
"517 549 OFFCURVE",
"556 529 CURVE",
"546 439 OFFCURVE",
"503 333 OFFCURVE",
"447 240 CURVE",
"323 232 OFFCURVE",
"188 204 OFFCURVE",
"99 137 CURVE SMOOTH",
"38 90 OFFCURVE",
"4 34 OFFCURVE",
"4 -9 CURVE SMOOTH",
"4 -51 OFFCURVE",
"32 -65 OFFCURVE",
"69 -65 CURVE SMOOTH"
);
},
{
closed = 1;
nodes = (
"56 -44 OFFCURVE",
"40 -26 OFFCURVE",
"40 -1 CURVE SMOOTH",
"40 33 OFFCURVE",
"70 81 OFFCURVE",
"107 114 CURVE SMOOTH",
"180 181 OFFCURVE",
"315 211 OFFCURVE",
"435 220 CURVE",
"398 161 OFFCURVE",
"355 108 OFFCURVE",
"312 68 CURVE SMOOTH",
"247 6 OFFCURVE",
"169 -44 OFFCURVE",
"97 -44 CURVE SMOOTH"
);
},
{
closed = 1;
nodes = (
"488 423 OFFCURVE",
"845 427 OFFCURVE",
"864 428 CURVE SMOOTH",
"867 428 OFFCURVE",
"868 432 OFFCURVE",
"868 435 CURVE SMOOTH",
"868 438 OFFCURVE",
"867 441 OFFCURVE",
"864 441 CURVE SMOOTH",
"444 441 LINE SMOOTH",
"440 441 OFFCURVE",
"430 425 OFFCURVE",
"430 420 CURVE",
"430 420 OFFCURVE",
"430 419 OFFCURVE",
"431 419 CURVE SMOOTH"
);
}
);
width = 893;
}
);
note = Hbar;
unicode = 0126;
},
{
glyphname = I;
lastChange = "2021-11-17 23:03:07 +0000";
layers = (
{
anchors = (
{
name = bottom;
position = "{177, 0}";
},
{
name = ogonek;
position = "{229, -1}";
},
{
name = top;
position = "{496, 566}";
},
{
name = topleft;
position = "{20, 580}";
}
);
layerId = "1A0EDF0C-2B61-4714-947B-2452868211A8";
paths = (
{
closed = 1;
nodes = (
"79 -13 OFFCURVE",
"182 -6 OFFCURVE",
"267 -6 CURVE SMOOTH",
"288 -6 OFFCURVE",
"308 -7 OFFCURVE",
"325 -7 CURVE SMOOTH",
"332 -7 OFFCURVE",
"344 -2 OFFCURVE",
"344 3 CURVE SMOOTH",
"344 6 OFFCURVE",
"340 9 OFFCURVE",
"328 10 CURVE SMOOTH",
"288 14 OFFCURVE",
"251 15 OFFCURVE",
"216 15 CURVE SMOOTH",
"186 15 LINE",
"185 17 OFFCURVE",
"184 19 OFFCURVE",
"182 21 CURVE SMOOTH",
"178 27 OFFCURVE",
"175 35 OFFCURVE",
"175 46 CURVE SMOOTH",
"175 145 OFFCURVE",
"371 429 OFFCURVE",
"481 542 CURVE",
"525 537 OFFCURVE",
"565 517 OFFCURVE",
"565 520 CURVE SMOOTH",
"565 524 LINE",
"560 542 OFFCURVE",
"533 551 OFFCURVE",
"495 556 CURVE",
"501 562 OFFCURVE",
"503 568 OFFCURVE",
"503 573 CURVE SMOOTH",
"503 581 OFFCURVE",
"498 586 OFFCURVE",
"492 586 CURVE SMOOTH",
"488 586 OFFCURVE",
"484 584 OFFCURVE",
"480 580 CURVE SMOOTH",
"473 574 OFFCURVE",
"466 566 OFFCURVE",
"458 558 CURVE",
"448 558 OFFCURVE",
"438 559 OFFCURVE",
"427 559 CURVE SMOOTH",
"340 559 OFFCURVE",
"237 545 OFFCURVE",
"208 532 CURVE SMOOTH",
"174 519 OFFCURVE",
"154 497 OFFCURVE",
"154 474 CURVE SMOOTH",
"154 456 OFFCURVE",
"167 438 OFFCURVE",
"193 423 CURVE SMOOTH",
"197 421 OFFCURVE",
"200 425 OFFCURVE",
"200 429 CURVE SMOOTH",
"200 431 OFFCURVE",
"199 432 OFFCURVE",
"198 433 CURVE",
"177 445 OFFCURVE",
"168 456 OFFCURVE",
"168 467 CURVE SMOOTH",
"168 484 OFFCURVE",
"190 500 OFFCURVE",
"223 513 CURVE SMOOTH",
"258 527 OFFCURVE",
"330 540 OFFCURVE",
"401 545 CURVE SMOOTH",
"404 545 OFFCURVE",
"423 546 OFFCURVE",
"446 545 CURVE",
"333 423 OFFCURVE",
"151 159 OFFCURVE",
"151 47 CURVE SMOOTH",
"151 34 OFFCURVE",
"154 22 OFFCURVE",
"160 14 CURVE",
"120 11 OFFCURVE",
"80 7 OFFCURVE",
"40 3 CURVE",
"29 -1 OFFCURVE",
"17 -7 OFFCURVE",
"17 -14 CURVE SMOOTH",
"17 -17 OFFCURVE",
"19 -20 OFFCURVE",
"22 -23 CURVE"
);
}
);
width = 406;
}
);
leftKerningGroup = I;
note = I;
rightKerningGroup = I;
unicode = 0049;
},
{
glyphname = J;
lastChange = "2021-11-17 23:03:12 +0000";
layers = (
{
anchors = (
{
name = bottom;
position = "{289, 0}";
},
{
name = top;
position = "{622, 560}";
}
);
layerId = "1A0EDF0C-2B61-4714-947B-2452868211A8";
paths = (
{
closed = 1;
nodes = (
"146 -68 OFFCURVE",
"221 -39 OFFCURVE",
"249 -23 CURVE SMOOTH",
"287 -2 OFFCURVE",
"324 24 OFFCURVE",
"358 53 CURVE SMOOTH",
"418 104 OFFCURVE",
"468 162 OFFCURVE",
"508 224 CURVE",
"534 224 OFFCURVE",
"586 221 OFFCURVE",
"602 216 CURVE SMOOTH",
"607 215 OFFCURVE",
"610 218 OFFCURVE",
"610 223 CURVE SMOOTH",
"610 227 OFFCURVE",
"607 232 OFFCURVE",
"600 232 CURVE SMOOTH",
"572 235 OFFCURVE",
"553 237 OFFCURVE",
"515 236 CURVE",
"575 333 OFFCURVE",
"612 436 OFFCURVE",
"627 528 CURVE SMOOTH",
"630 541 OFFCURVE",
"590 526 OFFCURVE",
"587 511 CURVE SMOOTH",
"573 437 OFFCURVE",
"543 336 OFFCURVE",
"485 236 CURVE",
"412 234 OFFCURVE",
"339 228 OFFCURVE",
"285 216 CURVE SMOOTH",
"113 178 OFFCURVE",
"11 68 OFFCURVE",
"11 -6 CURVE SMOOTH",
"11 -53 OFFCURVE",
"46 -68 OFFCURVE",
"87 -68 CURVE SMOOTH"
);
},
{
closed = 1;
nodes = (
"70 -45 OFFCURVE",
"51 -26 OFFCURVE",
"51 2 CURVE SMOOTH",
"51 36 OFFCURVE",
"80 83 OFFCURVE",
"118 116 CURVE SMOOTH",
"160 153 OFFCURVE",
"226 187 OFFCURVE",
"304 205 CURVE SMOOTH",
"352 215 OFFCURVE",
"414 222 OFFCURVE",
"478 224 CURVE",
"444 169 OFFCURVE",
"402 116 OFFCURVE",
"350 68 CURVE SMOOTH",
"280 6 OFFCURVE",
"198 -45 OFFCURVE",
"117 -45 CURVE SMOOTH"
);
},
{
closed = 1;
nodes = (
"350 421 OFFCURVE",
"353 425 OFFCURVE",
"353 429 CURVE SMOOTH",
"353 430 OFFCURVE",
"353 432 OFFCURVE",
"351 433 CURVE SMOOTH",
"330 445 OFFCURVE",
"321 456 OFFCURVE",
"321 467 CURVE SMOOTH",
"321 484 OFFCURVE",
"343 500 OFFCURVE",
"376 513 CURVE SMOOTH",
"412 527 OFFCURVE",
"484 540 OFFCURVE",
"554 545 CURVE SMOOTH",
"563 545 OFFCURVE",
"700 552 OFFCURVE",
"705 506 CURVE SMOOTH",
"706 498 OFFCURVE",
"708 495 OFFCURVE",
"709 495 CURVE SMOOTH",
"713 495 OFFCURVE",
"718 509 OFFCURVE",
"718 520 CURVE SMOOTH",
"718 524 LINE",
"711 550 OFFCURVE",
"652 559 OFFCURVE",
"583 559 CURVE SMOOTH",
"495 559 OFFCURVE",
"391 544 OFFCURVE",
"361 532 CURVE SMOOTH",
"327 519 OFFCURVE",
"308 497 OFFCURVE",
"308 474 CURVE SMOOTH",
"308 456 OFFCURVE",
"320 438 OFFCURVE",
"347 423 CURVE SMOOTH"
);
}
);
width = 578;
}
);
leftKerningGroup = J;
note = J;
rightKerningGroup = J;
unicode = 004A;
},
{
glyphname = K;
lastChange = "2021-11-17 23:03:22 +0000";
layers = (
{
anchors = (
{
name = bottom;
position = "{311, 0}";
},
{
name = top;
position = "{311, 580}";
}
);
layerId = "1A0EDF0C-2B61-4714-947B-2452868211A8";
paths = (
{
closed = 1;
nodes = (
"567 -27 OFFCURVE",
"595 24 OFFCURVE",
"608 55 CURVE",
"609 55 OFFCURVE",
"609 56 OFFCURVE",
"609 57 CURVE SMOOTH",
"609 61 OFFCURVE",
"608 62 OFFCURVE",
"604 62 CURVE SMOOTH",
"600 62 OFFCURVE",
"598 60 OFFCURVE",
"596 57 CURVE SMOOTH",
"584 34 OFFCURVE",
"559 -12 OFFCURVE",
"519 -12 CURVE SMOOTH",
"511 -12 OFFCURVE",
"503 -10 OFFCURVE",
"496 -6 CURVE SMOOTH",
"437 27 OFFCURVE",
"353 252 OFFCURVE",
"335 320 CURVE",
"464 435 OFFCURVE",
"695 568 OFFCURVE",
"829 568 CURVE SMOOTH",
"840 568 OFFCURVE",
"851 567 OFFCURVE",
"861 565 CURVE SMOOTH",
"873 563 OFFCURVE",
"881 570 OFFCURVE",
"881 578 CURVE SMOOTH",
"881 582 OFFCURVE",
"878 586 OFFCURVE",
"871 588 CURVE SMOOTH",
"859 591 OFFCURVE",
"846 592 OFFCURVE",
"832 592 CURVE SMOOTH",
"680 592 OFFCURVE",
"451 443 OFFCURVE",
"331 332 CURVE",
"329 336 OFFCURVE",
"326 338 OFFCURVE",
"322 338 CURVE SMOOTH",
"314 338 OFFCURVE",
"304 327 OFFCURVE",
"305 311 CURVE",
"284 291 OFFCURVE",
"262 274 OFFCURVE",
"241 257 CURVE",
"289 336 OFFCURVE",
"350 420 OFFCURVE",
"403 484 CURVE SMOOTH",
"412 496 LINE",
"416 493 OFFCURVE",
"422 510 OFFCURVE",
"422 522 CURVE SMOOTH",
"422 524 LINE",
"415 550 OFFCURVE",
"356 559 OFFCURVE",
"287 559 CURVE SMOOTH",
"199 559 OFFCURVE",
"95 544 OFFCURVE",
"64 532 CURVE SMOOTH",
"30 519 OFFCURVE",
"11 497 OFFCURVE",
"11 475 CURVE SMOOTH",
"11 457 OFFCURVE",
"23 438 OFFCURVE",
"50 423 CURVE SMOOTH",
"54 421 OFFCURVE",
"57 425 OFFCURVE",
"57 429 CURVE SMOOTH",
"57 431 OFFCURVE",
"56 432 OFFCURVE",
"55 433 CURVE",
"34 445 OFFCURVE",
"25 456 OFFCURVE",
"25 467 CURVE SMOOTH",
"25 484 OFFCURVE",
"47 500 OFFCURVE",
"80 513 CURVE SMOOTH",
"115 527 OFFCURVE",
"187 540 OFFCURVE",
"258 545 CURVE SMOOTH",
"265 545 OFFCURVE",
"367 550 OFFCURVE",
"399 523 CURVE",
"286 393 OFFCURVE",
"125 152 OFFCURVE",
"125 47 CURVE SMOOTH",
"125 24 OFFCURVE",
"132 8 OFFCURVE",
"150 0 CURVE SMOOTH",
"158 -3 OFFCURVE",
"162 0 OFFCURVE",
"162 6 CURVE SMOOTH",
"162 10 OFFCURVE",
"160 15 OFFCURVE",
"156 21 CURVE SMOOTH",
"151 27 OFFCURVE",
"149 36 OFFCURVE",
"149 46 CURVE SMOOTH",
"149 79 OFFCURVE",
"170 133 OFFCURVE",
"203 193 CURVE",
"226 226 OFFCURVE",
"273 264 OFFCURVE",
"307 293 CURVE SMOOTH",
"308 294 LINE",
"326 203 OFFCURVE",
"411 24 OFFCURVE",
"480 -16 CURVE SMOOTH",
"492 -22 OFFCURVE",
"505 -27 OFFCURVE",
"519 -27 CURVE SMOOTH"
);
}
);
width = 622;
}
);
leftKerningGroup = K;
note = K;
rightKerningGroup = K;
unicode = 004B;
},
{
glyphname = L;
lastChange = "2021-11-17 23:03:27 +0000";
layers = (
{
anchors = (
{
name = bottom;
position = "{317, -30}";
},
{
name = center;
position = "{332, 290}";
},
{
name = top;
position = "{526, 554}";
},
{
name = topright;
position = "{607, 536}";
}
);
layerId = "1A0EDF0C-2B61-4714-947B-2452868211A8";
paths = (
{
closed = 1;
nodes = (
"575 -64 OFFCURVE",
"631 -28 OFFCURVE",
"631 28 CURVE SMOOTH",
"631 44 OFFCURVE",
"626 62 OFFCURVE",
"615 81 CURVE SMOOTH",
"603 101 OFFCURVE",
"565 135 OFFCURVE",
"531 145 CURVE SMOOTH",
"526 146 OFFCURVE",
"522 142 OFFCURVE",
"522 139 CURVE SMOOTH",
"522 137 OFFCURVE",
"523 136 OFFCURVE",
"525 136 CURVE",
"556 127 OFFCURVE",
"593 95 OFFCURVE",
"605 75 CURVE SMOOTH",
"614 59 OFFCURVE",
"618 44 OFFCURVE",
"618 31 CURVE SMOOTH",
"618 16 OFFCURVE",
"612 2 OFFCURVE",
"602 -8 CURVE SMOOTH",
"583 -28 OFFCURVE",
"549 -39 OFFCURVE",
"508 -39 CURVE SMOOTH",
"492 -39 OFFCURVE",
"474 -37 OFFCURVE",
"456 -33 CURVE SMOOTH",
"368 -16 OFFCURVE",
"263 46 OFFCURVE",
"165 77 CURVE",
"223 125 OFFCURVE",
"308 298 OFFCURVE",
"386 408 CURVE SMOOTH",
"426 465 OFFCURVE",
"471 511 OFFCURVE",
"512 525 CURVE SMOOTH",
"523 528 OFFCURVE",
"535 530 OFFCURVE",
"544 530 CURVE SMOOTH",
"555 530 OFFCURVE",
"562 528 OFFCURVE",
"564 523 CURVE SMOOTH",
"567 517 OFFCURVE",
"571 514 OFFCURVE",
"573 514 CURVE SMOOTH",
"576 514 OFFCURVE",
"578 516 OFFCURVE",
"578 520 CURVE SMOOTH",
"578 523 OFFCURVE",
"577 526 OFFCURVE",
"575 531 CURVE SMOOTH",
"568 545 OFFCURVE",
"550 554 OFFCURVE",
"526 554 CURVE SMOOTH",
"456 554 OFFCURVE",
"402 496 OFFCURVE",
"363 437 CURVE SMOOTH",
"286 321 OFFCURVE",
"215 144 OFFCURVE",
"146 84 CURVE",
"118 91 OFFCURVE",
"89 95 OFFCURVE",
"61 95 CURVE SMOOTH",
"27 95 OFFCURVE",
"-4 88 OFFCURVE",
"-26 61 CURVE SMOOTH",
"-32 54 OFFCURVE",
"-35 46 OFFCURVE",
"-35 38 CURVE SMOOTH",
"-35 18 OFFCURVE",
"-16 0 OFFCURVE",
"16 0 CURVE SMOOTH",
"32 0 OFFCURVE",
"51 4 OFFCURVE",
"73 15 CURVE SMOOTH",
"103 30 OFFCURVE",
"131 51 OFFCURVE",
"147 62 CURVE",
"163 57 OFFCURVE",
"188 49 OFFCURVE",
"203 42 CURVE SMOOTH",
"244 25 OFFCURVE",
"315 -11 OFFCURVE",
"377 -36 CURVE SMOOTH",
"414 -51 OFFCURVE",
"464 -64 OFFCURVE",
"509 -64 CURVE SMOOTH"
);
},
{
closed = 1;
nodes = (
"2 11 OFFCURVE",
"-7 16 OFFCURVE",
"-7 28 CURVE SMOOTH",
"-7 34 OFFCURVE",
"-6 39 OFFCURVE",
"-3 42 CURVE",
"14 67 OFFCURVE",
"41 76 OFFCURVE",
"72 76 CURVE SMOOTH",
"90 76 OFFCURVE",
"109 73 OFFCURVE",
"129 68 CURVE",
"113 53 OFFCURVE",
"95 41 OFFCURVE",
"77 31 CURVE SMOOTH",
"67 26 OFFCURVE",
"35 11 OFFCURVE",
"13 11 CURVE SMOOTH"
);
}
);
width = 663;
}
);
note = L;
rightKerningGroup = L;
unicode = 004C;
},
{
glyphname = Lslash;
lastChange = "2021-11-17 23:03:34 +0000";
layers = (
{
layerId = "1A0EDF0C-2B61-4714-947B-2452868211A8";
paths = (
{
closed = 1;
nodes = (
"575 -64 OFFCURVE",
"631 -28 OFFCURVE",
"631 28 CURVE SMOOTH",
"631 44 OFFCURVE",
"626 62 OFFCURVE",
"615 81 CURVE SMOOTH",
"603 101 OFFCURVE",
"565 135 OFFCURVE",
"531 145 CURVE SMOOTH",
"526 146 OFFCURVE",
"522 142 OFFCURVE",
"522 139 CURVE SMOOTH",
"522 137 OFFCURVE",
"523 136 OFFCURVE",
"525 136 CURVE",
"556 127 OFFCURVE",
"593 95 OFFCURVE",
"605 75 CURVE SMOOTH",
"614 59 OFFCURVE",
"618 44 OFFCURVE",
"618 31 CURVE SMOOTH",
"618 16 OFFCURVE",
"612 2 OFFCURVE",
"602 -8 CURVE SMOOTH",
"583 -28 OFFCURVE",
"549 -39 OFFCURVE",
"508 -39 CURVE SMOOTH",
"492 -39 OFFCURVE",
"474 -37 OFFCURVE",
"456 -33 CURVE SMOOTH",
"368 -16 OFFCURVE",
"263 46 OFFCURVE",
"165 77 CURVE",
"195 102 OFFCURVE",
"232 159 OFFCURVE",
"271 225 CURVE",
"327 237 OFFCURVE",
"383 249 OFFCURVE",
"438 260 CURVE SMOOTH",
"443 261 OFFCURVE",
"445 264 OFFCURVE",
"445 267 CURVE SMOOTH",
"445 270 OFFCURVE",
"443 272 OFFCURVE",
"439 272 CURVE SMOOTH",
"438 272 LINE SMOOTH",
"389 267 OFFCURVE",
"337 258 OFFCURVE",
"285 247 CURVE",
"318 302 OFFCURVE",
"353 361 OFFCURVE",
"386 408 CURVE SMOOTH",
"426 465 OFFCURVE",
"471 511 OFFCURVE",
"512 525 CURVE SMOOTH",
"523 528 OFFCURVE",
"535 530 OFFCURVE",
"544 530 CURVE SMOOTH",
"555 530 OFFCURVE",
"562 528 OFFCURVE",
"564 523 CURVE SMOOTH",
"567 517 OFFCURVE",
"571 514 OFFCURVE",
"573 514 CURVE SMOOTH",
"576 514 OFFCURVE",
"578 516 OFFCURVE",
"578 520 CURVE SMOOTH",
"578 523 OFFCURVE",
"577 526 OFFCURVE",
"575 531 CURVE SMOOTH",
"568 545 OFFCURVE",
"550 554 OFFCURVE",
"526 554 CURVE SMOOTH",
"456 554 OFFCURVE",
"402 496 OFFCURVE",
"363 437 CURVE SMOOTH",
"324 379 OFFCURVE",
"288 306 OFFCURVE",
"252 240 CURVE",
"214 232 OFFCURVE",
"178 223 OFFCURVE",
"144 214 CURVE SMOOTH",
"139 213 OFFCURVE",
"129 197 OFFCURVE",
"129 192 CURVE SMOOTH",
"129 191 OFFCURVE",
"130 191 OFFCURVE",
"131 191 CURVE SMOOTH",
"167 200 OFFCURVE",
"203 209 OFFCURVE",
"239 217 CURVE",
"208 160 OFFCURVE",
"177 110 OFFCURVE",
"146 84 CURVE",
"118 91 OFFCURVE",
"89 95 OFFCURVE",
"61 95 CURVE SMOOTH",
"27 95 OFFCURVE",
"-4 88 OFFCURVE",
"-26 61 CURVE SMOOTH",
"-32 54 OFFCURVE",
"-35 46 OFFCURVE",
"-35 38 CURVE SMOOTH",
"-35 18 OFFCURVE",
"-16 0 OFFCURVE",
"16 0 CURVE SMOOTH",
"32 0 OFFCURVE",
"51 4 OFFCURVE",
"73 15 CURVE SMOOTH",
"103 30 OFFCURVE",
"131 51 OFFCURVE",
"147 62 CURVE",
"163 57 OFFCURVE",
"188 49 OFFCURVE",
"203 42 CURVE SMOOTH",
"244 25 OFFCURVE",
"315 -11 OFFCURVE",
"377 -36 CURVE SMOOTH",
"414 -51 OFFCURVE",
"464 -64 OFFCURVE",
"509 -64 CURVE SMOOTH"
);
},
{
closed = 1;
nodes = (
"2 11 OFFCURVE",
"-7 16 OFFCURVE",
"-7 28 CURVE SMOOTH",
"-7 34 OFFCURVE",
"-6 39 OFFCURVE",
"-3 42 CURVE",
"14 67 OFFCURVE",
"41 76 OFFCURVE",
"72 76 CURVE SMOOTH",
"90 76 OFFCURVE",
"109 73 OFFCURVE",
"129 68 CURVE",
"113 53 OFFCURVE",
"95 41 OFFCURVE",
"77 31 CURVE SMOOTH",
"67 26 OFFCURVE",
"35 11 OFFCURVE",
"13 11 CURVE SMOOTH"
);
}
);
width = 663;
}
);
note = Lslash;
rightKerningGroup = L;
unicode = 0141;
},
{
glyphname = M;
lastChange = "2021-11-09 10:50:25 +0000";
layers = (
{
layerId = "1A0EDF0C-2B61-4714-947B-2452868211A8";
paths = (
{
closed = 1;
nodes = (
"819 -125 OFFCURVE",
"824 -125 OFFCURVE",
"829 -124 CURVE SMOOTH",
"838 -123 OFFCURVE",
"842 -119 OFFCURVE",
"842 -116 CURVE SMOOTH",
"842 -112 OFFCURVE",
"838 -109 OFFCURVE",
"831 -109 CURVE SMOOTH",
"828 -109 LINE SMOOTH",
"793 -114 OFFCURVE",
"771 -96 OFFCURVE",
"761 -62 CURVE SMOOTH",
"756 -45 OFFCURVE",
"753 -24 OFFCURVE",
"753 0 CURVE SMOOTH",
"753 32 OFFCURVE",
"758 68 OFFCURVE",
"767 104 CURVE SMOOTH",
"812 279 OFFCURVE",
"870 369 OFFCURVE",
"969 514 CURVE SMOOTH",
"976 525 OFFCURVE",
"948 553 OFFCURVE",
"937 546 CURVE SMOOTH",
"931 542 OFFCURVE",
"914 524 OFFCURVE",
"899 505 CURVE SMOOTH",
"868 466 OFFCURVE",
"761 336 OFFCURVE",
"667 240 CURVE SMOOTH",
"597 169 OFFCURVE",
"522 115 OFFCURVE",
"479 115 CURVE SMOOTH",
"430 115 OFFCURVE",
"414 200 OFFCURVE",
"414 300 CURVE SMOOTH",
"414 354 OFFCURVE",
"419 413 OFFCURVE",
"426 465 CURVE SMOOTH",
"428 481 OFFCURVE",
"431 498 OFFCURVE",
"434 515 CURVE",
"437 521 OFFCURVE",
"440 528 OFFCURVE",
"440 533 CURVE SMOOTH",
"440 535 LINE",
"434 558 OFFCURVE",
"385 566 OFFCURVE",
"306 566 CURVE SMOOTH",
"226 566 OFFCURVE",
"98 546 OFFCURVE",
"64 532 CURVE SMOOTH",
"30 519 OFFCURVE",
"11 497 OFFCURVE",
"11 475 CURVE SMOOTH",
"11 457 OFFCURVE",
"23 438 OFFCURVE",
"50 423 CURVE SMOOTH",
"54 421 OFFCURVE",
"57 425 OFFCURVE",
"57 429 CURVE SMOOTH",
"57 431 OFFCURVE",
"56 432 OFFCURVE",
"55 433 CURVE",
"34 445 OFFCURVE",
"25 456 OFFCURVE",
"25 467 CURVE SMOOTH",
"25 484 OFFCURVE",
"47 500 OFFCURVE",
"80 513 CURVE SMOOTH",
"115 527 OFFCURVE",
"187 540 OFFCURVE",
"258 545 CURVE SMOOTH",
"265 545 OFFCURVE",
"355 549 OFFCURVE",
"392 528 CURVE",
"361 485 OFFCURVE",
"313 407 OFFCURVE",
"271 331 CURVE SMOOTH",
"208 218 OFFCURVE",
"162 104 OFFCURVE",
"162 38 CURVE SMOOTH",
"162 0 OFFCURVE",
"179 -16 OFFCURVE",
"195 -16 CURVE SMOOTH",
"214 -16 OFFCURVE",
"233 3 OFFCURVE",
"230 26 CURVE",
"230 26 OFFCURVE",
"229 31 OFFCURVE",
"227 31 CURVE SMOOTH",
"225 31 OFFCURVE",
"218 18 OFFCURVE",
"211 12 CURVE SMOOTH",
"207 8 OFFCURVE",
"203 6 OFFCURVE",
"199 6 CURVE SMOOTH",
"193 6 OFFCURVE",
"188 13 OFFCURVE",
"185 32 CURVE SMOOTH",
"182 65 OFFCURVE",
"198 125 OFFCURVE",
"215 164 CURVE SMOOTH",
"259 267 OFFCURVE",
"323 374 OFFCURVE",
"387 462 CURVE",
"383 420 OFFCURVE",
"380 373 OFFCURVE",
"380 327 CURVE SMOOTH",
"380 207 OFFCURVE",
"403 94 OFFCURVE",
"499 94 CURVE SMOOTH",
"555 94 OFFCURVE",
"623 161 OFFCURVE",
"697 242 CURVE SMOOTH",
"747 296 OFFCURVE",
"810 369 OFFCURVE",
"856 425 CURVE",
"842 396 OFFCURVE",
"827 364 OFFCURVE",
"813 331 CURVE SMOOTH",
"776 242 OFFCURVE",
"741 133 OFFCURVE",
"731 57 CURVE SMOOTH",
"729 41 OFFCURVE",
"728 25 OFFCURVE",
"728 8 CURVE SMOOTH",
"728 -19 OFFCURVE",
"732 -46 OFFCURVE",
"743 -72 CURVE SMOOTH",
"757 -104 OFFCURVE",
"781 -125 OFFCURVE",
"815 -125 CURVE SMOOTH"
);
}
);
width = 870;
}
);
note = M;
unicode = 004D;
},
{
glyphname = N;
lastChange = "2021-11-17 23:16:01 +0000";
layers = (
{
anchors = (
{
name = bottom;
position = "{427, 0}";
},
{
name = top;
position = "{617, 580}";
}
);
layerId = "1A0EDF0C-2B61-4714-947B-2452868211A8";
paths = (
{
closed = 1;
nodes = (
"228 -16 OFFCURVE",
"247 3 OFFCURVE",
"245 26 CURVE",
"244 26 OFFCURVE",
"244 31 OFFCURVE",
"241 31 CURVE SMOOTH",
"240 31 OFFCURVE",
"232 18 OFFCURVE",
"226 12 CURVE SMOOTH",
"222 8 OFFCURVE",
"218 6 OFFCURVE",
"214 6 CURVE SMOOTH",
"206 6 OFFCURVE",
"199 16 OFFCURVE",
"199 43 CURVE SMOOTH",
"199 77 OFFCURVE",
"215 129 OFFCURVE",
"230 164 CURVE SMOOTH",
"274 267 OFFCURVE",
"347 386 OFFCURVE",
"419 484 CURVE",
"414 458 OFFCURVE",
"413 430 OFFCURVE",
"413 402 CURVE SMOOTH",
"413 364 OFFCURVE",
"415 325 OFFCURVE",
"416 292 CURVE SMOOTH",
"418 154 OFFCURVE",
"457 -10 OFFCURVE",
"568 -10 CURVE SMOOTH",
"576 -10 OFFCURVE",
"584 -10 OFFCURVE",
"592 -8 CURVE SMOOTH",
"726 18 OFFCURVE",
"839 297 OFFCURVE",
"839 462 CURVE SMOOTH",
"839 532 OFFCURVE",
"818 582 OFFCURVE",
"770 582 CURVE SMOOTH",
"765 582 OFFCURVE",
"760 581 OFFCURVE",
"754 580 CURVE SMOOTH",
"735 577 OFFCURVE",
"708 565 OFFCURVE",
"697 556 CURVE SMOOTH",
"690 549 OFFCURVE",
"698 547 OFFCURVE",
"704 547 CURVE SMOOTH",
"706 547 OFFCURVE",
"708 547 OFFCURVE",
"709 548 CURVE",
"726 556 OFFCURVE",
"739 561 OFFCURVE",
"751 561 CURVE SMOOTH",
"765 561 OFFCURVE",
"775 554 OFFCURVE",
"784 535 CURVE SMOOTH",
"795 511 OFFCURVE",
"799 475 OFFCURVE",
"799 438 CURVE SMOOTH",
"799 393 OFFCURVE",
"793 347 OFFCURVE",
"786 318 CURVE SMOOTH",
"757 202 OFFCURVE",
"681 30 OFFCURVE",
"603 15 CURVE SMOOTH",
"597 14 OFFCURVE",
"591 13 OFFCURVE",
"586 13 CURVE SMOOTH",
"498 13 OFFCURVE",
"450 158 OFFCURVE",
"441 289 CURVE SMOOTH",
"439 315 OFFCURVE",
"439 344 OFFCURVE",
"439 374 CURVE SMOOTH",
"439 433 OFFCURVE",
"441 492 OFFCURVE",
"444 516 CURVE SMOOTH",
"446 539 OFFCURVE",
"442 556 OFFCURVE",
"429 550 CURVE",
"409 566 OFFCURVE",
"362 573 OFFCURVE",
"308 573 CURVE SMOOTH",
"229 573 OFFCURVE",
"134 558 OFFCURVE",
"82 537 CURVE SMOOTH",
"48 524 OFFCURVE",
"29 502 OFFCURVE",
"29 479 CURVE SMOOTH",
"29 461 OFFCURVE",
"41 443 OFFCURVE",
"68 428 CURVE SMOOTH",
"71 426 OFFCURVE",
"74 430 OFFCURVE",
"74 434 CURVE SMOOTH",
"74 435 OFFCURVE",
"74 437 OFFCURVE",
"72 438 CURVE SMOOTH",
"51 450 OFFCURVE",
"42 461 OFFCURVE",
"42 472 CURVE SMOOTH",
"42 490 OFFCURVE",
"64 506 OFFCURVE",
"97 519 CURVE SMOOTH",
"133 533 OFFCURVE",
"205 545 OFFCURVE",
"275 550 CURVE SMOOTH",
"282 550 OFFCURVE",
"373 555 OFFCURVE",
"410 532 CURVE",
"363 470 OFFCURVE",
"323 399 OFFCURVE",
"286 331 CURVE SMOOTH",
"223 218 OFFCURVE",
"177 104 OFFCURVE",
"177 38 CURVE SMOOTH",
"177 0 OFFCURVE",
"193 -16 OFFCURVE",
"210 -16 CURVE SMOOTH"
);
}
);
width = 794;
}
);
leftKerningGroup = N;
note = N;
rightKerningGroup = N;
unicode = 004E;
},
{
glyphname = Eng;
lastChange = "2021-11-17 23:04:05 +0000";
layers = (
{
background = {
components = (
{
name = N;
}
);
};
layerId = "1A0EDF0C-2B61-4714-947B-2452868211A8";
paths = (
{
closed = 1;
nodes = (
"173 -326 OFFCURVE",
"221 -303 OFFCURVE",
"260 -267 CURVE SMOOTH",
"378 -159 OFFCURVE",
"489 49 OFFCURVE",
"550 180 CURVE SMOOTH",
"591 269 LINE SMOOTH",
"626 351 OFFCURVE",
"649 435 OFFCURVE",
"649 496 CURVE SMOOTH",
"649 551 OFFCURVE",
"631 589 OFFCURVE",
"586 589 CURVE SMOOTH",
"571 589 OFFCURVE",
"539 581 OFFCURVE",
"531 569 CURVE SMOOTH",
"525 560 OFFCURVE",
"541 563 OFFCURVE",
"545 565 CURVE",
"555 568 OFFCURVE",
"565 571 OFFCURVE",
"572 571 CURVE SMOOTH",
"588 571 OFFCURVE",
"599 562 OFFCURVE",
"604 536 CURVE SMOOTH",
"606 526 OFFCURVE",
"607 514 OFFCURVE",
"607 501 CURVE SMOOTH",
"607 436 OFFCURVE",
"587 344 OFFCURVE",
"572 302 CURVE SMOOTH",
"529 189 OFFCURVE",
"437 31 OFFCURVE",
"372 31 CURVE SMOOTH",
"305 31 OFFCURVE",
"282 133 OFFCURVE",
"282 248 CURVE SMOOTH",
"282 279 OFFCURVE",
"284 311 OFFCURVE",
"287 342 CURVE SMOOTH",
"295 429 OFFCURVE",
"317 505 OFFCURVE",
"321 528 CURVE SMOOTH",
"322 534 OFFCURVE",
"322 539 OFFCURVE",
"322 543 CURVE",
"323 544 OFFCURVE",
"323 547 OFFCURVE",
"322 548 CURVE",
"322 553 OFFCURVE",
"319 556 OFFCURVE",
"316 552 CURVE",
"312 554 OFFCURVE",
"305 556 OFFCURVE",
"300 556 CURVE SMOOTH",
"296 556 OFFCURVE",
"292 555 OFFCURVE",
"289 553 CURVE SMOOTH",
"269 542 OFFCURVE",
"201 435 OFFCURVE",
"145 332 CURVE SMOOTH",
"84 224 OFFCURVE",
"39 113 OFFCURVE",
"39 48 CURVE SMOOTH",
"39 10 OFFCURVE",
"55 -4 OFFCURVE",
"71 -4 CURVE SMOOTH",
"89 -4 OFFCURVE",
"107 13 OFFCURVE",
"105 36 CURVE SMOOTH",
"105 38 OFFCURVE",
"104 42 OFFCURVE",
"101 42 CURVE SMOOTH",
"100 42 OFFCURVE",
"92 28 OFFCURVE",
"87 23 CURVE SMOOTH",
"83 20 OFFCURVE",
"78 17 OFFCURVE",
"74 17 CURVE SMOOTH",
"67 17 OFFCURVE",
"61 26 OFFCURVE",
"61 53 CURVE SMOOTH",
"61 86 OFFCURVE",
"76 136 OFFCURVE",
"90 170 CURVE SMOOTH",
"138 283 OFFCURVE",
"222 414 OFFCURVE",
"301 516 CURVE",
"290 476 OFFCURVE",
"274 402 OFFCURVE",
"267 350 CURVE SMOOTH",
"260 303 OFFCURVE",
"256 251 OFFCURVE",
"256 202 CURVE SMOOTH",
"256 97 OFFCURVE",
"278 6 OFFCURVE",
"354 6 CURVE SMOOTH",
"387 6 OFFCURVE",
"423 27 OFFCURVE",
"459 63 CURVE",
"407 -34 OFFCURVE",
"326 -171 OFFCURVE",
"246 -251 CURVE SMOOTH",
"212 -285 OFFCURVE",
"170 -311 OFFCURVE",
"136 -311 CURVE SMOOTH",
"101 -311 OFFCURVE",
"74 -284 OFFCURVE",
"74 -214 CURVE SMOOTH",
"74 -168 OFFCURVE",
"90 -117 OFFCURVE",
"124 -85 CURVE SMOOTH",
"127 -82 OFFCURVE",
"129 -77 OFFCURVE",
"129 -73 CURVE SMOOTH",
"129 -71 OFFCURVE",
"128 -69 OFFCURVE",
"126 -69 CURVE SMOOTH",
"125 -69 OFFCURVE",
"124 -70 OFFCURVE",
"122 -71 CURVE SMOOTH",
"83 -99 OFFCURVE",
"51 -168 OFFCURVE",
"51 -219 CURVE SMOOTH",
"51 -296 OFFCURVE",
"86 -326 OFFCURVE",
"133 -326 CURVE SMOOTH"
);
}
);
width = 639;
}
);
leftKerningGroup = N;
note = Eng;
rightKerningGroup = N;
unicode = 014A;
},
{
glyphname = O;
lastChange = "2021-11-17 23:16:28 +0000";
layers = (
{
anchors = (
{
name = bottom;
position = "{213, -14}";
},
{
name = center;
position = "{374, 290}";
},
{
name = ogonek;
position = "{263, -18}";
},
{
name = top;
position = "{522, 580}";
},
{
name = topleft;
position = "{20, 580}";
},
{
name = topright;
position = "{617, 560}";
}
);
layerId = "1A0EDF0C-2B61-4714-947B-2452868211A8";
paths = (
{
closed = 1;
nodes = (
"543 -25 OFFCURVE",
"748 200 OFFCURVE",
"748 375 CURVE SMOOTH",
"748 446 OFFCURVE",
"715 509 OFFCURVE",
"640 546 CURVE SMOOTH",
"590 570 OFFCURVE",
"531 581 OFFCURVE",
"468 581 CURVE SMOOTH",
"336 581 OFFCURVE",
"192 534 OFFCURVE",
"101 463 CURVE SMOOTH",
"69 438 OFFCURVE",
"48 409 OFFCURVE",
"50 379 CURVE SMOOTH",
"51 356 OFFCURVE",
"76 340 OFFCURVE",
"98 340 CURVE SMOOTH",
"105 340 OFFCURVE",
"105 351 OFFCURVE",
"98 351 CURVE SMOOTH",
"90 351 OFFCURVE",
"81 355 OFFCURVE",
"81 366 CURVE SMOOTH",
"81 374 OFFCURVE",
"85 385 OFFCURVE",
"96 401 CURVE SMOOTH",
"166 504 OFFCURVE",
"329 563 OFFCURVE",
"470 563 CURVE SMOOTH",
"532 563 OFFCURVE",
"590 552 OFFCURVE",
"634 527 CURVE SMOOTH",
"698 491 OFFCURVE",
"725 438 OFFCURVE",
"725 380 CURVE SMOOTH",
"725 213 OFFCURVE",
"501 0 OFFCURVE",
"259 0 CURVE SMOOTH",
"136 0 OFFCURVE",
"71 72 OFFCURVE",
"71 167 CURVE SMOOTH",
"71 254 OFFCURVE",
"132 362 OFFCURVE",
"264 435 CURVE SMOOTH",
"328 471 OFFCURVE",
"418 483 OFFCURVE",
"486 483 CURVE SMOOTH",
"512 483 OFFCURVE",
"535 481 OFFCURVE",
"551 478 CURVE SMOOTH",
"556 477 OFFCURVE",
"559 479 OFFCURVE",
"559 482 CURVE SMOOTH",
"559 484 OFFCURVE",
"556 488 OFFCURVE",
"552 489 CURVE SMOOTH",
"535 495 OFFCURVE",
"504 499 OFFCURVE",
"466 499 CURVE SMOOTH",
"406 499 OFFCURVE",
"329 488 OFFCURVE",
"259 454 CURVE SMOOTH",
"103 378 OFFCURVE",
"32 258 OFFCURVE",
"32 156 CURVE SMOOTH",
"32 46 OFFCURVE",
"126 -25 OFFCURVE",
"264 -25 CURVE SMOOTH"
);
}
);
width = 711;
}
);
leftKerningGroup = O;
note = O;
rightKerningGroup = O;
unicode = 004F;
},
{
glyphname = Oslash;
lastChange = "2021-11-17 23:04:44 +0000";
layers = (
{
anchors = (
{
name = bottom;
position = "{378, 0}";
},
{
name = top;
position = "{512, 580}";
}
);
layerId = "1A0EDF0C-2B61-4714-947B-2452868211A8";
paths = (
{
closed = 1;
nodes = (
"543 -25 OFFCURVE",
"748 200 OFFCURVE",
"748 375 CURVE SMOOTH",
"748 446 OFFCURVE",
"715 509 OFFCURVE",
"640 546 CURVE SMOOTH",
"590 570 OFFCURVE",
"531 581 OFFCURVE",
"468 581 CURVE SMOOTH",
"336 581 OFFCURVE",
"192 534 OFFCURVE",
"101 463 CURVE SMOOTH",
"69 438 OFFCURVE",
"48 409 OFFCURVE",
"50 379 CURVE SMOOTH",
"51 356 OFFCURVE",
"76 340 OFFCURVE",
"98 340 CURVE SMOOTH",
"105 340 OFFCURVE",
"105 351 OFFCURVE",
"98 351 CURVE SMOOTH",
"90 351 OFFCURVE",
"81 355 OFFCURVE",
"81 366 CURVE SMOOTH",
"81 374 OFFCURVE",
"85 385 OFFCURVE",
"96 401 CURVE SMOOTH",
"166 504 OFFCURVE",
"329 563 OFFCURVE",
"470 563 CURVE SMOOTH",
"532 563 OFFCURVE",
"590 552 OFFCURVE",
"634 527 CURVE SMOOTH",
"698 491 OFFCURVE",
"725 438 OFFCURVE",
"725 380 CURVE SMOOTH",
"725 213 OFFCURVE",
"501 0 OFFCURVE",
"259 0 CURVE SMOOTH",
"136 0 OFFCURVE",
"71 72 OFFCURVE",
"71 167 CURVE SMOOTH",
"71 254 OFFCURVE",
"132 362 OFFCURVE",
"264 435 CURVE SMOOTH",
"328 471 OFFCURVE",
"418 483 OFFCURVE",
"486 483 CURVE SMOOTH",
"512 483 OFFCURVE",
"535 481 OFFCURVE",
"551 478 CURVE SMOOTH",
"556 477 OFFCURVE",
"559 479 OFFCURVE",
"559 482 CURVE SMOOTH",
"559 484 OFFCURVE",
"556 488 OFFCURVE",
"552 489 CURVE SMOOTH",
"535 495 OFFCURVE",
"504 499 OFFCURVE",
"466 499 CURVE SMOOTH",
"406 499 OFFCURVE",
"329 488 OFFCURVE",
"259 454 CURVE SMOOTH",
"103 378 OFFCURVE",
"32 258 OFFCURVE",
"32 156 CURVE SMOOTH",
"32 46 OFFCURVE",
"126 -25 OFFCURVE",
"264 -25 CURVE SMOOTH"
);
},
{
closed = 1;
nodes = (
"180 -105 OFFCURVE",
"185 -103 OFFCURVE",
"187 -100 CURVE SMOOTH",
"599 625 LINE SMOOTH",
"602 630 OFFCURVE",
"592 635 OFFCURVE",
"584 635 CURVE SMOOTH",
"579 635 OFFCURVE",
"575 634 OFFCURVE",
"573 630 CURVE SMOOTH",
"161 -95 LINE",
"157 -100 OFFCURVE",
"167 -105 OFFCURVE",
"175 -105 CURVE SMOOTH"
);
}
);
width = 756;
}
);
leftKerningGroup = O;
rightKerningGroup = O;
unicode = 00D8;
},
{
glyphname = OE;
lastChange = "2021-11-17 23:04:50 +0000";
layers = (
{
layerId = "1A0EDF0C-2B61-4714-947B-2452868211A8";
paths = (
{
closed = 1;
nodes = (
"543 -25 OFFCURVE",
"748 200 OFFCURVE",
"748 375 CURVE SMOOTH",
"748 446 OFFCURVE",
"715 509 OFFCURVE",
"640 546 CURVE SMOOTH",
"590 570 OFFCURVE",
"531 581 OFFCURVE",
"468 581 CURVE SMOOTH",
"336 581 OFFCURVE",
"192 534 OFFCURVE",
"101 463 CURVE SMOOTH",
"69 438 OFFCURVE",
"48 409 OFFCURVE",
"50 379 CURVE SMOOTH",
"51 356 OFFCURVE",
"76 340 OFFCURVE",
"98 340 CURVE SMOOTH",
"105 340 OFFCURVE",
"105 351 OFFCURVE",
"98 351 CURVE SMOOTH",
"90 351 OFFCURVE",
"81 355 OFFCURVE",
"81 366 CURVE SMOOTH",
"81 374 OFFCURVE",
"85 385 OFFCURVE",
"96 401 CURVE SMOOTH",
"166 504 OFFCURVE",
"329 563 OFFCURVE",
"470 563 CURVE SMOOTH",
"532 563 OFFCURVE",
"590 552 OFFCURVE",
"634 527 CURVE SMOOTH",
"698 491 OFFCURVE",
"725 438 OFFCURVE",
"725 380 CURVE SMOOTH",
"725 213 OFFCURVE",
"501 0 OFFCURVE",
"259 0 CURVE SMOOTH",
"136 0 OFFCURVE",
"71 72 OFFCURVE",
"71 167 CURVE SMOOTH",
"71 254 OFFCURVE",
"132 362 OFFCURVE",
"264 435 CURVE SMOOTH",
"319 466 OFFCURVE",
"392 483 OFFCURVE",
"459 483 CURVE SMOOTH",
"480 483 OFFCURVE",
"501 482 OFFCURVE",
"520 478 CURVE SMOOTH",
"525 477 OFFCURVE",
"528 479 OFFCURVE",
"528 482 CURVE SMOOTH",
"528 484 OFFCURVE",
"525 488 OFFCURVE",
"521 489 CURVE SMOOTH",
"500 496 OFFCURVE",
"475 500 OFFCURVE",
"449 500 CURVE SMOOTH",
"388 500 OFFCURVE",
"316 482 OFFCURVE",
"259 454 CURVE SMOOTH",
"103 378 OFFCURVE",
"32 258 OFFCURVE",
"32 156 CURVE SMOOTH",
"32 46 OFFCURVE",
"126 -25 OFFCURVE",
"264 -25 CURVE SMOOTH"
);
},
{
closed = 1;
nodes = (
"902 -51 OFFCURVE",
"1029 -29 OFFCURVE",
"1117 58 CURVE SMOOTH",
"1136 77 OFFCURVE",
"1151 100 OFFCURVE",
"1165 122 CURVE SMOOTH",
"1167 125 OFFCURVE",
"1168 129 OFFCURVE",
"1168 132 CURVE SMOOTH",
"1168 135 OFFCURVE",
"1167 137 OFFCURVE",
"1165 137 CURVE SMOOTH",
"1164 137 OFFCURVE",
"1162 136 OFFCURVE",
"1160 133 CURVE SMOOTH",
"1145 110 OFFCURVE",
"1127 88 OFFCURVE",
"1105 71 CURVE SMOOTH",
"1012 -4 OFFCURVE",
"863 -30 OFFCURVE",
"776 -30 CURVE SMOOTH",
"707 -30 OFFCURVE",
"649 -10 OFFCURVE",
"649 64 CURVE SMOOTH",
"649 77 OFFCURVE",
"651 92 OFFCURVE",
"655 108 CURVE SMOOTH",
"669 171 OFFCURVE",
"708 241 OFFCURVE",
"750 299 CURVE",
"807 309 OFFCURVE",
"910 316 OFFCURVE",
"995 316 CURVE SMOOTH",
"1016 316 OFFCURVE",
"1036 315 OFFCURVE",
"1053 315 CURVE SMOOTH",
"1060 315 OFFCURVE",
"1072 320 OFFCURVE",
"1072 325 CURVE SMOOTH",
"1072 328 OFFCURVE",
"1068 331 OFFCURVE",
"1056 332 CURVE SMOOTH",
"1019 336 OFFCURVE",
"985 337 OFFCURVE",
"953 337 CURVE SMOOTH",
"888 337 OFFCURVE",
"830 331 OFFCURVE",
"768 325 CURVE",
"804 368 OFFCURVE",
"950 535 OFFCURVE",
"980 543 CURVE SMOOTH",
"991 546 OFFCURVE",
"1013 548 OFFCURVE",
"1038 548 CURVE SMOOTH",
"1110 548 OFFCURVE",
"1215 534 OFFCURVE",
"1221 497 CURVE SMOOTH",
"1224 481 OFFCURVE",
"1217 462 OFFCURVE",
"1199 443 CURVE SMOOTH",
"1196 440 OFFCURVE",
"1195 437 OFFCURVE",
"1195 435 CURVE SMOOTH",
"1195 431 OFFCURVE",
"1197 429 OFFCURVE",
"1201 429 CURVE SMOOTH",
"1204 429 OFFCURVE",
"1207 430 OFFCURVE",
"1211 434 CURVE SMOOTH",
"1232 457 OFFCURVE",
"1251 484 OFFCURVE",
"1251 507 CURVE SMOOTH",
"1251 512 OFFCURVE",
"1250 517 OFFCURVE",
"1248 521 CURVE SMOOTH",
"1234 554 OFFCURVE",
"1133 565 OFFCURVE",
"1017 565 CURVE SMOOTH",
"864 565 OFFCURVE",
"684 546 OFFCURVE",
"640 533 CURVE SMOOTH",
"592 518 OFFCURVE",
"565 494 OFFCURVE",
"565 470 CURVE SMOOTH",
"565 450 OFFCURVE",
"582 430 OFFCURVE",
"620 414 CURVE",
"625 413 OFFCURVE",
"629 417 OFFCURVE",
"629 421 CURVE SMOOTH",
"629 423 OFFCURVE",
"629 424 OFFCURVE",
"627 425 CURVE SMOOTH",
"598 438 OFFCURVE",
"585 450 OFFCURVE",
"585 462 CURVE SMOOTH",
"585 481 OFFCURVE",
"616 498 OFFCURVE",
"662 512 CURVE SMOOTH",
"716 529 OFFCURVE",
"834 544 OFFCURVE",
"941 547 CURVE",
"850 463 OFFCURVE",
"754 361 OFFCURVE",
"695 264 CURVE SMOOTH",
"662 211 OFFCURVE",
"635 159 OFFCURVE",
"622 112 CURVE SMOOTH",
"616 92 OFFCURVE",
"614 74 OFFCURVE",
"614 58 CURVE SMOOTH",
"614 -31 OFFCURVE",
"699 -51 OFFCURVE",
"791 -51 CURVE SMOOTH"
);
}
);
width = 1136;
}
);
leftKerningGroup = O;
rightKerningGroup = E;
rightMetricsKey = E;
unicode = 0152;
},
{
glyphname = P;
lastChange = "2021-11-17 23:17:46 +0000";
layers = (
{
layerId = "1A0EDF0C-2B61-4714-947B-2452868211A8";
paths = (
{
closed = 1;
nodes = (
"182 -66 OFFCURVE",
"204 -47 OFFCURVE",
"201 -21 CURVE SMOOTH",
"201 -20 OFFCURVE",
"200 -15 OFFCURVE",
"197 -15 CURVE SMOOTH",
"196 -15 OFFCURVE",
"187 -29 OFFCURVE",
"179 -36 CURVE SMOOTH",
"175 -40 OFFCURVE",
"170 -42 OFFCURVE",
"166 -42 CURVE SMOOTH",
"157 -42 OFFCURVE",
"150 -33 OFFCURVE",
"150 -4 CURVE SMOOTH",
"150 34 OFFCURVE",
"167 91 OFFCURVE",
"184 130 CURVE SMOOTH",
"245 267 OFFCURVE",
"335 398 OFFCURVE",
"424 508 CURVE SMOOTH",
"427 512 OFFCURVE",
"428 517 OFFCURVE",
"428 523 CURVE SMOOTH",
"428 531 OFFCURVE",
"426 539 OFFCURVE",
"423 545 CURVE",
"496 528 OFFCURVE",
"562 501 OFFCURVE",
"598 461 CURVE SMOOTH",
"621 435 OFFCURVE",
"631 407 OFFCURVE",
"631 379 CURVE SMOOTH",
"631 340 OFFCURVE",
"610 303 OFFCURVE",
"574 280 CURVE SMOOTH",
"509 239 OFFCURVE",
"421 231 OFFCURVE",
"365 231 CURVE SMOOTH",
"344 231 OFFCURVE",
"328 232 OFFCURVE",
"319 233 CURVE SMOOTH",
"306 234 OFFCURVE",
"294 237 OFFCURVE",
"289 242 CURVE SMOOTH",
"284 246 OFFCURVE",
"280 250 OFFCURVE",
"277 250 CURVE SMOOTH",
"276 250 OFFCURVE",
"276 249 OFFCURVE",
"275 248 CURVE",
"264 229 OFFCURVE",
"314 220 OFFCURVE",
"318 220 CURVE SMOOTH",
"327 219 OFFCURVE",
"345 218 OFFCURVE",
"370 218 CURVE SMOOTH",
"431 218 OFFCURVE",
"528 226 OFFCURVE",
"601 268 CURVE SMOOTH",
"645 293 OFFCURVE",
"670 334 OFFCURVE",
"670 377 CURVE SMOOTH",
"670 414 OFFCURVE",
"652 453 OFFCURVE",
"612 486 CURVE SMOOTH",
"530 553 OFFCURVE",
"348 580 OFFCURVE",
"219 580 CURVE SMOOTH",
"190 580 OFFCURVE",
"164 579 OFFCURVE",
"142 576 CURVE SMOOTH",
"64 568 OFFCURVE",
"21 547 OFFCURVE",
"9 520 CURVE SMOOTH",
"7 516 OFFCURVE",
"6 512 OFFCURVE",
"6 508 CURVE SMOOTH",
"6 463 OFFCURVE",
"118 440 OFFCURVE",
"147 437 CURVE SMOOTH",
"151 437 OFFCURVE",
"153 440 OFFCURVE",
"153 443 CURVE SMOOTH",
"153 445 OFFCURVE",
"151 448 OFFCURVE",
"148 448 CURVE SMOOTH",
"124 451 OFFCURVE",
"45 471 OFFCURVE",
"45 506 CURVE SMOOTH",
"45 526 OFFCURVE",
"67 549 OFFCURVE",
"135 560 CURVE SMOOTH",
"159 564 OFFCURVE",
"190 566 OFFCURVE",
"224 566 CURVE SMOOTH",
"279 566 OFFCURVE",
"345 560 OFFCURVE",
"406 548 CURVE",
"403 547 OFFCURVE",
"400 546 OFFCURVE",
"395 540 CURVE SMOOTH",
"361 499 OFFCURVE",
"300 403 OFFCURVE",
"247 311 CURVE SMOOTH",
"176 188 OFFCURVE",
"124 63 OFFCURVE",
"124 -9 CURVE SMOOTH",
"124 -51 OFFCURVE",
"143 -66 OFFCURVE",
"162 -66 CURVE SMOOTH"
);
}
);
width = 594;
}
);
note = P;
unicode = 0050;
},
{
glyphname = Thorn;
lastChange = "2021-11-09 10:50:25 +0000";
layers = (
{
background = {
paths = (
{
closed = 1;
nodes = (
"449 642 OFFCURVE",
"436 625 CURVE SMOOTH",
"402 584 OFFCURVE",
"341 488 OFFCURVE",
"247 311 CURVE SMOOTH",
"180 185 OFFCURVE",
"124 63 OFFCURVE",
"124 -9 CURVE SMOOTH",
"124 -51 OFFCURVE",
"143 -66 OFFCURVE",
"162 -66 CURVE SMOOTH",
"182 -66 OFFCURVE",
"204 -47 OFFCURVE",
"201 -21 CURVE SMOOTH",
"201 -20 OFFCURVE",
"200 -15 OFFCURVE",
"197 -15 CURVE SMOOTH",
"196 -15 OFFCURVE",
"187 -29 OFFCURVE",
"179 -36 CURVE SMOOTH",
"175 -40 OFFCURVE",
"170 -42 OFFCURVE",
"166 -42 CURVE SMOOTH",
"157 -42 OFFCURVE",
"150 -33 OFFCURVE",
"150 -4 CURVE SMOOTH",
"150 34 OFFCURVE",
"167 91 OFFCURVE",
"184 130 CURVE SMOOTH",
"245 267 OFFCURVE",
"376 483 OFFCURVE",
"465 593 CURVE SMOOTH",
"468 597 OFFCURVE",
"469 602 OFFCURVE",
"469 608 CURVE SMOOTH",
"469 634 OFFCURVE"
);
}
);
};
layerId = "1A0EDF0C-2B61-4714-947B-2452868211A8";
paths = (
{
closed = 1;
nodes = (
"182 -66 OFFCURVE",
"204 -47 OFFCURVE",
"201 -21 CURVE SMOOTH",
"201 -20 OFFCURVE",
"200 -15 OFFCURVE",
"197 -15 CURVE SMOOTH",
"196 -15 OFFCURVE",
"187 -29 OFFCURVE",
"179 -36 CURVE SMOOTH",
"175 -40 OFFCURVE",
"170 -42 OFFCURVE",
"166 -42 CURVE SMOOTH",
"157 -42 OFFCURVE",
"150 -33 OFFCURVE",
"150 -4 CURVE SMOOTH",
"150 34 OFFCURVE",
"167 91 OFFCURVE",
"184 130 CURVE SMOOTH",
"245 267 OFFCURVE",
"414 540 OFFCURVE",
"487 629 CURVE SMOOTH",
"490 633 OFFCURVE",
"491 638 OFFCURVE",
"491 644 CURVE SMOOTH",
"491 661 OFFCURVE",
"482 670 OFFCURVE",
"472 670 CURVE SMOOTH",
"466 670 OFFCURVE",
"460 667 OFFCURVE",
"455 661 CURVE SMOOTH",
"418 620 OFFCURVE",
"341 488 OFFCURVE",
"247 311 CURVE SMOOTH",
"180 185 OFFCURVE",
"124 63 OFFCURVE",
"124 -9 CURVE SMOOTH",
"124 -51 OFFCURVE",
"143 -66 OFFCURVE",
"162 -66 CURVE SMOOTH"
);
},
{
closed = 1;
nodes = (
"431 148 OFFCURVE",
"528 156 OFFCURVE",
"601 198 CURVE SMOOTH",
"645 223 OFFCURVE",
"670 264 OFFCURVE",
"670 307 CURVE SMOOTH",
"670 344 OFFCURVE",
"652 383 OFFCURVE",
"612 416 CURVE SMOOTH",
"530 483 OFFCURVE",
"348 510 OFFCURVE",
"219 510 CURVE SMOOTH",
"190 510 OFFCURVE",
"164 509 OFFCURVE",
"142 506 CURVE SMOOTH",
"64 498 OFFCURVE",
"21 477 OFFCURVE",
"9 450 CURVE SMOOTH",
"7 446 OFFCURVE",
"6 442 OFFCURVE",
"6 438 CURVE SMOOTH",
"6 393 OFFCURVE",
"118 370 OFFCURVE",
"147 367 CURVE SMOOTH",
"151 367 OFFCURVE",
"153 370 OFFCURVE",
"153 373 CURVE SMOOTH",
"153 375 OFFCURVE",
"151 378 OFFCURVE",
"148 378 CURVE SMOOTH",
"124 381 OFFCURVE",
"45 401 OFFCURVE",
"45 436 CURVE SMOOTH",
"45 456 OFFCURVE",
"67 479 OFFCURVE",
"135 490 CURVE SMOOTH",
"159 494 OFFCURVE",
"190 496 OFFCURVE",
"224 496 CURVE SMOOTH",
"279 496 OFFCURVE",
"345 490 OFFCURVE",
"406 478 CURVE SMOOTH",
"500 457 OFFCURVE",
"561 433 OFFCURVE",
"598 391 CURVE SMOOTH",
"621 365 OFFCURVE",
"631 337 OFFCURVE",
"631 309 CURVE SMOOTH",
"631 270 OFFCURVE",
"610 233 OFFCURVE",
"574 210 CURVE SMOOTH",
"509 169 OFFCURVE",
"421 161 OFFCURVE",
"365 161 CURVE SMOOTH",
"344 161 OFFCURVE",
"328 162 OFFCURVE",
"319 163 CURVE SMOOTH",
"306 164 OFFCURVE",
"294 167 OFFCURVE",
"289 172 CURVE SMOOTH",
"284 176 OFFCURVE",
"280 180 OFFCURVE",
"277 180 CURVE SMOOTH",
"276 180 OFFCURVE",
"276 179 OFFCURVE",
"275 178 CURVE",
"264 159 OFFCURVE",
"314 150 OFFCURVE",
"318 150 CURVE SMOOTH",
"327 149 OFFCURVE",
"345 148 OFFCURVE",
"370 148 CURVE SMOOTH"
);
}
);
width = 585;
}
);
note = Thorn;
unicode = 00DE;
},
{
glyphname = Q;
lastChange = "2021-11-17 23:18:06 +0000";
layers = (
{
layerId = "1A0EDF0C-2B61-4714-947B-2452868211A8";
paths = (
{
closed = 1;
nodes = (
"727 -287 OFFCURVE",
"774 -252 OFFCURVE",
"774 -185 CURVE SMOOTH",
"774 -167 OFFCURVE",
"771 -148 OFFCURVE",
"764 -126 CURVE SMOOTH",
"755 -96 OFFCURVE",
"720 -41 OFFCURVE",
"687 -19 CURVE SMOOTH",
"683 -16 OFFCURVE",
"678 -21 OFFCURVE",
"678 -25 CURVE SMOOTH",
"678 -26 OFFCURVE",
"678 -28 OFFCURVE",
"680 -29 CURVE SMOOTH",
"711 -50 OFFCURVE",
"744 -102 OFFCURVE",
"753 -130 CURVE SMOOTH",
"759 -148 OFFCURVE",
"761 -164 OFFCURVE",
"761 -178 CURVE SMOOTH",
"761 -232 OFFCURVE",
"725 -259 OFFCURVE",
"675 -259 CURVE SMOOTH",
"647 -259 OFFCURVE",
"614 -250 OFFCURVE",
"581 -232 CURVE SMOOTH",
"518 -196 OFFCURVE",
"423 -95 OFFCURVE",
"365 -44 CURVE SMOOTH",
"356 -36 OFFCURVE",
"347 -28 OFFCURVE",
"337 -20 CURVE",
"578 15 OFFCURVE",
"748 215 OFFCURVE",
"748 375 CURVE SMOOTH",
"748 446 OFFCURVE",
"715 509 OFFCURVE",
"640 546 CURVE SMOOTH",
"590 570 OFFCURVE",
"531 581 OFFCURVE",
"468 581 CURVE SMOOTH",
"336 581 OFFCURVE",
"192 534 OFFCURVE",
"101 463 CURVE SMOOTH",
"69 438 OFFCURVE",
"48 409 OFFCURVE",
"50 379 CURVE SMOOTH",
"51 356 OFFCURVE",
"76 340 OFFCURVE",
"98 340 CURVE SMOOTH",
"105 340 OFFCURVE",
"105 351 OFFCURVE",
"98 351 CURVE SMOOTH",
"90 351 OFFCURVE",
"81 355 OFFCURVE",
"81 366 CURVE SMOOTH",
"81 374 OFFCURVE",
"85 385 OFFCURVE",
"96 401 CURVE SMOOTH",
"166 504 OFFCURVE",
"329 563 OFFCURVE",
"470 563 CURVE SMOOTH",
"532 563 OFFCURVE",
"590 552 OFFCURVE",
"634 527 CURVE SMOOTH",
"698 491 OFFCURVE",
"725 438 OFFCURVE",
"725 380 CURVE SMOOTH",
"725 224 OFFCURVE",
"530 29 OFFCURVE",
"308 3 CURVE",
"271 30 OFFCURVE",
"229 54 OFFCURVE",
"187 54 CURVE SMOOTH",
"166 54 OFFCURVE",
"146 48 OFFCURVE",
"131 38 CURVE",
"92 68 OFFCURVE",
"71 113 OFFCURVE",
"71 167 CURVE SMOOTH",
"71 254 OFFCURVE",
"132 362 OFFCURVE",
"264 435 CURVE SMOOTH",
"328 471 OFFCURVE",
"418 483 OFFCURVE",
"486 483 CURVE SMOOTH",
"512 483 OFFCURVE",
"535 481 OFFCURVE",
"551 478 CURVE SMOOTH",
"556 477 OFFCURVE",
"559 479 OFFCURVE",
"559 482 CURVE SMOOTH",
"559 484 OFFCURVE",
"556 488 OFFCURVE",
"552 489 CURVE SMOOTH",
"535 495 OFFCURVE",
"504 499 OFFCURVE",
"466 499 CURVE SMOOTH",
"406 499 OFFCURVE",
"329 488 OFFCURVE",
"259 454 CURVE SMOOTH",
"103 378 OFFCURVE",
"32 258 OFFCURVE",
"32 156 CURVE SMOOTH",
"32 96 OFFCURVE",
"60 48 OFFCURVE",
"107 16 CURVE",
"98 4 OFFCURVE",
"92 -11 OFFCURVE",
"92 -26 CURVE SMOOTH",
"92 -29 OFFCURVE",
"92 -32 OFFCURVE",
"93 -35 CURVE SMOOTH",
"95 -44 OFFCURVE",
"97 -47 OFFCURVE",
"99 -47 CURVE SMOOTH",
"105 -47 OFFCURVE",
"113 -29 OFFCURVE",
"115 -20 CURVE",
"115 -11 OFFCURVE",
"118 -2 OFFCURVE",
"125 6 CURVE",
"162 -14 OFFCURVE",
"210 -25 OFFCURVE",
"264 -25 CURVE SMOOTH",
"279 -25 OFFCURVE",
"293 -24 OFFCURVE",
"307 -23 CURVE",
"319 -33 OFFCURVE",
"330 -44 OFFCURVE",
"340 -53 CURVE SMOOTH",
"399 -105 OFFCURVE",
"521 -228 OFFCURVE",
"585 -264 CURVE SMOOTH",
"613 -280 OFFCURVE",
"642 -287 OFFCURVE",
"669 -287 CURVE SMOOTH"
);
},
{
closed = 1;
nodes = (
"216 0 OFFCURVE",
"179 9 OFFCURVE",
"151 25 CURVE",
"163 30 OFFCURVE",
"178 34 OFFCURVE",
"194 34 CURVE SMOOTH",
"225 34 OFFCURVE",
"253 19 OFFCURVE",
"279 0 CURVE",
"259 0 LINE SMOOTH"
);
}
);
width = 714;
}
);
leftKerningGroup = O;
leftMetricsKey = O;
note = Q;
unicode = 0051;
},
{
glyphname = R;
lastChange = "2021-11-17 23:05:01 +0000";
layers = (
{
anchors = (
{
name = bottom;
position = "{319, 0}";
},
{
name = top;
position = "{561, 537}";
}
);
layerId = "1A0EDF0C-2B61-4714-947B-2452868211A8";
paths = (
{
closed = 1;
nodes = (
"182 -66 OFFCURVE",
"204 -47 OFFCURVE",
"201 -21 CURVE SMOOTH",
"201 -20 OFFCURVE",
"200 -15 OFFCURVE",
"197 -15 CURVE SMOOTH",
"196 -15 OFFCURVE",
"187 -29 OFFCURVE",
"179 -36 CURVE SMOOTH",
"175 -40 OFFCURVE",
"170 -42 OFFCURVE",
"166 -42 CURVE SMOOTH",
"157 -42 OFFCURVE",
"150 -33 OFFCURVE",
"150 -4 CURVE SMOOTH",
"150 34 OFFCURVE",
"167 91 OFFCURVE",
"184 130 CURVE SMOOTH",
"245 267 OFFCURVE",
"335 398 OFFCURVE",
"424 508 CURVE SMOOTH",
"427 512 OFFCURVE",
"428 517 OFFCURVE",
"428 523 CURVE SMOOTH",
"428 530 OFFCURVE",
"426 538 OFFCURVE",
"423 544 CURVE",
"445 539 OFFCURVE",
"466 534 OFFCURVE",
"487 527 CURVE SMOOTH",
"590 494 OFFCURVE",
"631 435 OFFCURVE",
"631 380 CURVE SMOOTH",
"631 340 OFFCURVE",
"610 303 OFFCURVE",
"574 280 CURVE SMOOTH",
"508 238 OFFCURVE",
"418 231 OFFCURVE",
"362 231 CURVE",
"357 246 LINE SMOOTH",
"354 254 OFFCURVE",
"346 258 OFFCURVE",
"339 258 CURVE SMOOTH",
"329 258 OFFCURVE",
"321 253 OFFCURVE",
"321 245 CURVE SMOOTH",
"321 244 OFFCURVE",
"322 243 OFFCURVE",
"322 242 CURVE",
"325 233 LINE",
"319 233 LINE SMOOTH",
"306 233 OFFCURVE",
"295 238 OFFCURVE",
"289 242 CURVE",
"285 246 OFFCURVE",
"280 249 OFFCURVE",
"277 249 CURVE SMOOTH",
"275 249 OFFCURVE",
"273 247 OFFCURVE",
"273 245 CURVE SMOOTH",
"273 243 OFFCURVE",
"273 242 OFFCURVE",
"274 240 CURVE SMOOTH",
"278 226 OFFCURVE",
"314 220 OFFCURVE",
"318 220 CURVE SMOOTH",
"321 220 OFFCURVE",
"325 219 OFFCURVE",
"330 219 CURVE",
"364 127 OFFCURVE",
"427 15 OFFCURVE",
"480 -16 CURVE SMOOTH",
"492 -22 OFFCURVE",
"505 -27 OFFCURVE",
"519 -27 CURVE SMOOTH",
"567 -27 OFFCURVE",
"595 24 OFFCURVE",
"608 55 CURVE",
"609 55 OFFCURVE",
"609 56 OFFCURVE",
"609 57 CURVE SMOOTH",
"609 61 OFFCURVE",
"608 62 OFFCURVE",
"604 62 CURVE SMOOTH",
"600 62 OFFCURVE",
"598 60 OFFCURVE",
"596 57 CURVE SMOOTH",
"584 34 OFFCURVE",
"559 -12 OFFCURVE",
"519 -12 CURVE SMOOTH",
"511 -12 OFFCURVE",
"503 -10 OFFCURVE",
"496 -6 CURVE SMOOTH",
"456 17 OFFCURVE",
"402 128 OFFCURVE",
"368 218 CURVE",
"428 218 OFFCURVE",
"527 225 OFFCURVE",
"601 268 CURVE SMOOTH",
"645 294 OFFCURVE",
"670 334 OFFCURVE",
"670 377 CURVE SMOOTH",
"670 439 OFFCURVE",
"619 506 OFFCURVE",
"502 540 CURVE SMOOTH",
"411 566 OFFCURVE",
"306 580 OFFCURVE",
"217 580 CURVE SMOOTH",
"91 580 OFFCURVE",
"24 554 OFFCURVE",
"9 520 CURVE SMOOTH",
"7 516 OFFCURVE",
"6 512 OFFCURVE",
"6 508 CURVE SMOOTH",
"6 463 OFFCURVE",
"118 440 OFFCURVE",
"147 437 CURVE SMOOTH",
"151 437 OFFCURVE",
"153 440 OFFCURVE",
"153 443 CURVE SMOOTH",
"153 445 OFFCURVE",
"151 448 OFFCURVE",
"148 448 CURVE SMOOTH",
"124 451 OFFCURVE",
"45 471 OFFCURVE",
"45 506 CURVE SMOOTH",
"45 509 OFFCURVE",
"46 513 OFFCURVE",
"47 516 CURVE SMOOTH",
"58 541 OFFCURVE",
"120 565 OFFCURVE",
"234 565 CURVE SMOOTH",
"287 565 OFFCURVE",
"346 560 OFFCURVE",
"404 548 CURVE",
"402 547 OFFCURVE",
"400 545 OFFCURVE",
"395 540 CURVE SMOOTH",
"361 499 OFFCURVE",
"300 403 OFFCURVE",
"247 311 CURVE SMOOTH",
"176 188 OFFCURVE",
"124 63 OFFCURVE",
"124 -9 CURVE SMOOTH",
"124 -51 OFFCURVE",
"143 -66 OFFCURVE",
"162 -66 CURVE SMOOTH"
);
}
);
width = 638;
}
);
leftKerningGroup = R;
note = R;
rightKerningGroup = R;
unicode = 0052;
},
{
glyphname = S;
lastChange = "2021-11-17 23:18:35 +0000";
layers = (
{
anchors = (
{
name = bottom;
position = "{127, -6}";
},
{
name = top;
position = "{380, 581}";
}
);
layerId = "1A0EDF0C-2B61-4714-947B-2452868211A8";
paths = (
{
closed = 1;
nodes = (
"237 -13 OFFCURVE",
"300 3 OFFCURVE",
"300 54 CURVE SMOOTH",
"300 108 OFFCURVE",
"183 176 OFFCURVE",
"127 257 CURVE SMOOTH",
"101 295 OFFCURVE",
"89 331 OFFCURVE",
"89 364 CURVE SMOOTH",
"89 480 OFFCURVE",
"235 556 OFFCURVE",
"361 556 CURVE SMOOTH",
"373 556 OFFCURVE",
"385 555 OFFCURVE",
"397 554 CURVE SMOOTH",
"464 546 OFFCURVE",
"500 515 OFFCURVE",
"500 472 CURVE SMOOTH",
"500 447 OFFCURVE",
"488 418 OFFCURVE",
"461 387 CURVE SMOOTH",
"438 360 OFFCURVE",
"409 344 OFFCURVE",
"378 320 CURVE",
"376 319 OFFCURVE",
"367 313 OFFCURVE",
"367 310 CURVE SMOOTH",
"367 308 OFFCURVE",
"368 307 OFFCURVE",
"374 307 CURVE SMOOTH",
"378 307 OFFCURVE",
"381 308 OFFCURVE",
"384 309 CURVE SMOOTH",
"447 335 OFFCURVE",
"529 403 OFFCURVE",
"529 478 CURVE SMOOTH",
"529 547 OFFCURVE",
"447 573 OFFCURVE",
"394 579 CURVE SMOOTH",
"380 581 OFFCURVE",
"365 582 OFFCURVE",
"349 582 CURVE SMOOTH",
"221 582 OFFCURVE",
"66 518 OFFCURVE",
"66 375 CURVE SMOOTH",
"66 329 OFFCURVE",
"85 286 OFFCURVE",
"109 247 CURVE SMOOTH",
"163 163 OFFCURVE",
"265 96 OFFCURVE",
"264 65 CURVE SMOOTH",
"263 21 OFFCURVE",
"193 11 OFFCURVE",
"139 11 CURVE SMOOTH",
"120 11 OFFCURVE",
"102 13 OFFCURVE",
"91 14 CURVE SMOOTH",
"67 17 OFFCURVE",
"44 28 OFFCURVE",
"24 36 CURVE SMOOTH",
"20 38 OFFCURVE",
"17 38 OFFCURVE",
"15 38 CURVE SMOOTH",
"11 38 OFFCURVE",
"9 36 OFFCURVE",
"9 34 CURVE SMOOTH",
"9 29 OFFCURVE",
"15 22 OFFCURVE",
"23 18 CURVE SMOOTH",
"37 12 OFFCURVE",
"55 1 OFFCURVE",
"85 -5 CURVE SMOOTH",
"111 -10 OFFCURVE",
"141 -13 OFFCURVE",
"171 -13 CURVE SMOOTH"
);
}
);
width = 388;
}
);
leftKerningGroup = S;
note = S;
rightKerningGroup = S;
unicode = 0053;
},
{
glyphname = Germandbls;
lastChange = "2021-11-09 10:50:25 +0000";
layers = (
{
background = {
paths = (
{
closed = 1;
nodes = (
"205 251 OFFCURVE",
"205 226 OFFCURVE",
"234 226 CURVE SMOOTH",
"247 226 OFFCURVE",
"309 197 OFFCURVE",
"313 144 CURVE SMOOTH",
"317 94 OFFCURVE",
"253 44 OFFCURVE",
"178 20 CURVE SMOOTH",
"137 7 OFFCURVE",
"56 -1 OFFCURVE",
"27 11 CURVE SMOOTH",
"15 15 OFFCURVE",
"17 5 OFFCURVE",
"25 0 CURVE SMOOTH",
"41 -10 OFFCURVE",
"81 -11 OFFCURVE",
"120 -7 CURVE SMOOTH",
"223 4 OFFCURVE",
"346 59 OFFCURVE",
"339 135 CURVE SMOOTH",
"335 193 OFFCURVE",
"277 234 OFFCURVE",
"242 242 CURVE SMOOTH"
);
}
);
};
layerId = "1A0EDF0C-2B61-4714-947B-2452868211A8";
paths = (
{
closed = 1;
nodes = (
"-87 -155 OFFCURVE",
"-13 -106 OFFCURVE",
"60 0 CURVE SMOOTH",
"159 147 OFFCURVE",
"203 442 OFFCURVE",
"321 528 CURVE SMOOTH",
"359 555 OFFCURVE",
"397 565 OFFCURVE",
"430 565 CURVE SMOOTH",
"493 565 OFFCURVE",
"521 529 OFFCURVE",
"521 485 CURVE SMOOTH",
"521 458 OFFCURVE",
"511 427 OFFCURVE",
"494 401 CURVE SMOOTH",
"444 327 OFFCURVE",
"370 302 OFFCURVE",
"317 280 CURVE",
"308 279 OFFCURVE",
"304 274 OFFCURVE",
"304 270 CURVE SMOOTH",
"304 266 OFFCURVE",
"309 262 OFFCURVE",
"316 262 CURVE SMOOTH",
"345 262 OFFCURVE",
"464 218 OFFCURVE",
"468 154 CURVE SMOOTH",
"474 75 OFFCURVE",
"346 -5 OFFCURVE",
"242 -5 CURVE SMOOTH",
"228 -5 OFFCURVE",
"215 -3 OFFCURVE",
"202 0 CURVE SMOOTH",
"169 9 OFFCURVE",
"144 25 OFFCURVE",
"144 51 CURVE SMOOTH",
"144 68 OFFCURVE",
"134 52 OFFCURVE",
"134 41 CURVE SMOOTH",
"134 16 OFFCURVE",
"152 -12 OFFCURVE",
"191 -25 CURVE SMOOTH",
"205 -29 OFFCURVE",
"220 -31 OFFCURVE",
"237 -31 CURVE SMOOTH",
"349 -31 OFFCURVE",
"508 57 OFFCURVE",
"501 143 CURVE SMOOTH",
"498 204 OFFCURVE",
"404 261 OFFCURVE",
"352 277 CURVE",
"397 296 OFFCURVE",
"467 335 OFFCURVE",
"507 374 CURVE SMOOTH",
"542 409 OFFCURVE",
"556 453 OFFCURVE",
"556 487 CURVE SMOOTH",
"556 537 OFFCURVE",
"520 577 OFFCURVE",
"427 577 CURVE SMOOTH",
"392 577 OFFCURVE",
"352 567 OFFCURVE",
"314 547 CURVE SMOOTH",
"154 465 OFFCURVE",
"137 173 OFFCURVE",
"44 18 CURVE SMOOTH",
"-28 -104 OFFCURVE",
"-98 -136 OFFCURVE",
"-143 -136 CURVE SMOOTH",
"-174 -136 OFFCURVE",
"-188 -122 OFFCURVE",
"-198 -113 CURVE SMOOTH",
"-204 -107 OFFCURVE",
"-210 -101 OFFCURVE",
"-214 -101 CURVE SMOOTH",
"-222 -101 OFFCURVE",
"-225 -104 OFFCURVE",
"-225 -110 CURVE SMOOTH",
"-225 -113 OFFCURVE",
"-224 -115 OFFCURVE",
"-223 -117 CURVE",
"-201 -142 OFFCURVE",
"-177 -155 OFFCURVE",
"-146 -155 CURVE SMOOTH"
);
}
);
width = 586;
}
);
unicode = 1E9E;
},
{
glyphname = Schwa;
lastChange = "2021-11-09 10:50:25 +0000";
layers = (
{
layerId = "1A0EDF0C-2B61-4714-947B-2452868211A8";
paths = (
{
closed = 1;
nodes = (
"363 -41 OFFCURVE",
"645 163 OFFCURVE",
"645 391 CURVE SMOOTH",
"645 419 OFFCURVE",
"639 445 OFFCURVE",
"629 468 CURVE SMOOTH",
"596 540 OFFCURVE",
"517 569 OFFCURVE",
"426 569 CURVE SMOOTH",
"331 569 OFFCURVE",
"222 537 OFFCURVE",
"137 491 CURVE SMOOTH",
"96 468 OFFCURVE",
"55 431 OFFCURVE",
"32 404 CURVE SMOOTH",
"25 395 OFFCURVE",
"22 390 OFFCURVE",
"22 387 CURVE SMOOTH",
"22 384 OFFCURVE",
"23 383 OFFCURVE",
"26 383 CURVE SMOOTH",
"30 383 OFFCURVE",
"35 386 OFFCURVE",
"39 390 CURVE SMOOTH",
"61 417 OFFCURVE",
"116 459 OFFCURVE",
"145 475 CURVE SMOOTH",
"221 517 OFFCURVE",
"314 542 OFFCURVE",
"396 542 CURVE SMOOTH",
"477 542 OFFCURVE",
"547 517 OFFCURVE",
"578 462 CURVE SMOOTH",
"592 438 OFFCURVE",
"598 408 OFFCURVE",
"598 376 CURVE SMOOTH",
"598 168 OFFCURVE",
"357 -21 OFFCURVE",
"134 -21 CURVE SMOOTH",
"46 -21 OFFCURVE",
"13 24 OFFCURVE",
"13 70 CURVE SMOOTH",
"13 220 OFFCURVE",
"316 307 OFFCURVE",
"511 307 CURVE SMOOTH",
"548 307 OFFCURVE",
"586 305 OFFCURVE",
"623 302 CURVE SMOOTH",
"634 301 OFFCURVE",
"602 314 OFFCURVE",
"602 318 CURVE SMOOTH",
"602 320 OFFCURVE",
"601 321 OFFCURVE",
"598 321 CURVE SMOOTH",
"565 324 OFFCURVE",
"532 325 OFFCURVE",
"498 325 CURVE SMOOTH",
"286 325 OFFCURVE",
"-23 243 OFFCURVE",
"-23 72 CURVE SMOOTH",
"-23 14 OFFCURVE",
"20 -41 OFFCURVE",
"122 -41 CURVE SMOOTH"
);
}
);
width = 639;
}
);
unicode = 018F;
},
{
glyphname = T;
lastChange = "2021-11-17 23:19:08 +0000";
layers = (
{
anchors = (
{
name = bottom;
position = "{180, -49}";
},
{
name = center;
position = "{278, 348}";
},
{
name = top;
position = "{447, 560}";
}
);
layerId = "1A0EDF0C-2B61-4714-947B-2452868211A8";
paths = (
{
closed = 1;
nodes = (
"229 -61 OFFCURVE",
"233 -61 OFFCURVE",
"238 -60 CURVE SMOOTH",
"246 -59 OFFCURVE",
"249 -56 OFFCURVE",
"249 -53 CURVE SMOOTH",
"249 -50 OFFCURVE",
"246 -47 OFFCURVE",
"241 -47 CURVE",
"237 -48 LINE SMOOTH",
"218 -53 OFFCURVE",
"193 -36 OFFCURVE",
"187 -10 CURVE SMOOTH",
"183 9 OFFCURVE",
"180 28 OFFCURVE",
"180 47 CURVE SMOOTH",
"180 80 OFFCURVE",
"186 114 OFFCURVE",
"197 148 CURVE SMOOTH",
"238 280 OFFCURVE",
"346 415 OFFCURVE",
"430 505 CURVE SMOOTH",
"436 511 OFFCURVE",
"438 516 OFFCURVE",
"438 519 CURVE SMOOTH",
"438 524 OFFCURVE",
"432 525 OFFCURVE",
"425 525 CURVE SMOOTH",
"414 525 OFFCURVE",
"400 521 OFFCURVE",
"397 518 CURVE SMOOTH",
"314 428 OFFCURVE",
"217 299 OFFCURVE",
"175 173 CURVE SMOOTH",
"164 139 OFFCURVE",
"154 92 OFFCURVE",
"154 48 CURVE SMOOTH",
"154 25 OFFCURVE",
"157 3 OFFCURVE",
"164 -16 CURVE SMOOTH",
"174 -42 OFFCURVE",
"194 -61 OFFCURVE",
"225 -61 CURVE SMOOTH"
);
},
{
closed = 1;
nodes = (
"67 407 OFFCURVE",
"71 411 OFFCURVE",
"71 415 CURVE SMOOTH",
"71 416 OFFCURVE",
"70 418 OFFCURVE",
"68 419 CURVE SMOOTH",
"39 431 OFFCURVE",
"27 444 OFFCURVE",
"27 456 CURVE SMOOTH",
"27 475 OFFCURVE",
"58 492 OFFCURVE",
"104 506 CURVE SMOOTH",
"153 521 OFFCURVE",
"255 535 OFFCURVE",
"354 540 CURVE SMOOTH",
"371 541 OFFCURVE",
"403 542 OFFCURVE",
"439 542 CURVE SMOOTH",
"531 542 OFFCURVE",
"656 534 OFFCURVE",
"663 491 CURVE SMOOTH",
"666 475 OFFCURVE",
"659 456 OFFCURVE",
"641 437 CURVE SMOOTH",
"638 434 OFFCURVE",
"637 431 OFFCURVE",
"637 429 CURVE SMOOTH",
"637 425 OFFCURVE",
"639 423 OFFCURVE",
"643 423 CURVE SMOOTH",
"645 423 OFFCURVE",
"649 424 OFFCURVE",
"652 428 CURVE SMOOTH",
"674 451 OFFCURVE",
"693 478 OFFCURVE",
"693 501 CURVE SMOOTH",
"693 506 OFFCURVE",
"692 511 OFFCURVE",
"690 515 CURVE SMOOTH",
"676 548 OFFCURVE",
"575 559 OFFCURVE",
"459 559 CURVE SMOOTH",
"305 559 OFFCURVE",
"125 540 OFFCURVE",
"82 527 CURVE SMOOTH",
"34 512 OFFCURVE",
"7 488 OFFCURVE",
"7 464 CURVE SMOOTH",
"7 444 OFFCURVE",
"24 424 OFFCURVE",
"62 408 CURVE"
);
}
);
width = 398;
}
);
leftKerningGroup = T;
note = T;
rightKerningGroup = T;
unicode = 0054;
},
{
glyphname = U;
lastChange = "2021-11-17 23:19:30 +0000";
layers = (
{
anchors = (
{
name = bottom;
position = "{347, 0}";
},
{
name = ogonek;
position = "{585, -77}";
},
{
name = top;
position = "{588, 548}";
},
{
name = topright;
position = "{719, 527}";
}
);
layerId = "1A0EDF0C-2B61-4714-947B-2452868211A8";
paths = (
{
closed = 1;
nodes = (
"600 -125 OFFCURVE",
"605 -125 OFFCURVE",
"610 -124 CURVE SMOOTH",
"620 -123 OFFCURVE",
"624 -119 OFFCURVE",
"624 -115 CURVE SMOOTH",
"624 -112 OFFCURVE",
"620 -109 OFFCURVE",
"613 -109 CURVE SMOOTH",
"610 -109 LINE SMOOTH",
"575 -109 OFFCURVE",
"553 -96 OFFCURVE",
"543 -62 CURVE SMOOTH",
"538 -46 OFFCURVE",
"536 -23 OFFCURVE",
"536 0 CURVE SMOOTH",
"536 34 OFFCURVE",
"540 70 OFFCURVE",
"544 93 CURVE SMOOTH",
"578 268 OFFCURVE",
"652 369 OFFCURVE",
"750 514 CURVE SMOOTH",
"760 528 OFFCURVE",
"718 546 OFFCURVE",
"713 540 CURVE SMOOTH",
"702 527 OFFCURVE",
"692 513 OFFCURVE",
"683 499 CURVE SMOOTH",
"669 477 OFFCURVE",
"655 452 OFFCURVE",
"641 426 CURVE",
"638 422 LINE SMOOTH",
"559 317 OFFCURVE",
"492 206 OFFCURVE",
"402 109 CURVE SMOOTH",
"383 89 OFFCURVE",
"329 38 OFFCURVE",
"279 16 CURVE SMOOTH",
"263 9 OFFCURVE",
"248 6 OFFCURVE",
"236 6 CURVE SMOOTH",
"198 6 OFFCURVE",
"180 36 OFFCURVE",
"180 72 CURVE SMOOTH",
"180 88 OFFCURVE",
"184 106 OFFCURVE",
"191 123 CURVE SMOOTH",
"232 220 OFFCURVE",
"416 422 OFFCURVE",
"416 505 CURVE SMOOTH",
"416 540 OFFCURVE",
"387 566 OFFCURVE",
"309 573 CURVE SMOOTH",
"236 578 OFFCURVE",
"116 548 OFFCURVE",
"72 516 CURVE SMOOTH",
"24 482 OFFCURVE",
"5 444 OFFCURVE",
"5 412 CURVE SMOOTH",
"5 395 OFFCURVE",
"10 380 OFFCURVE",
"20 367 CURVE SMOOTH",
"24 362 OFFCURVE",
"30 366 OFFCURVE",
"30 370 CURVE SMOOTH",
"30 371 OFFCURVE",
"30 372 OFFCURVE",
"29 373 CURVE SMOOTH",
"23 381 OFFCURVE",
"20 391 OFFCURVE",
"20 402 CURVE SMOOTH",
"20 430 OFFCURVE",
"41 468 OFFCURVE",
"95 506 CURVE SMOOTH",
"133 534 OFFCURVE",
"223 563 OFFCURVE",
"292 563 CURVE SMOOTH",
"356 563 OFFCURVE",
"380 540 OFFCURVE",
"380 508 CURVE SMOOTH",
"380 427 OFFCURVE",
"202 233 OFFCURVE",
"163 127 CURVE SMOOTH",
"157 109 OFFCURVE",
"154 92 OFFCURVE",
"154 76 CURVE SMOOTH",
"154 28 OFFCURVE",
"182 -9 OFFCURVE",
"231 -9 CURVE SMOOTH",
"247 -9 OFFCURVE",
"266 -4 OFFCURVE",
"287 5 CURVE SMOOTH",
"337 27 OFFCURVE",
"387 71 OFFCURVE",
"411 96 CURVE SMOOTH",
"490 180 OFFCURVE",
"543 253 OFFCURVE",
"595 331 CURVE",
"555 239 OFFCURVE",
"524 140 OFFCURVE",
"513 57 CURVE SMOOTH",
"511 41 OFFCURVE",
"510 25 OFFCURVE",
"510 8 CURVE SMOOTH",
"510 -19 OFFCURVE",
"514 -46 OFFCURVE",
"525 -72 CURVE SMOOTH",
"539 -104 OFFCURVE",
"563 -125 OFFCURVE",
"596 -125 CURVE SMOOTH"
);
}
);
width = 655;
}
);
leftKerningGroup = U;
note = U;
rightKerningGroup = U;
unicode = 0055;
},
{
glyphname = V;
lastChange = "2021-11-17 22:46:07 +0000";
layers = (
{
layerId = "1A0EDF0C-2B61-4714-947B-2452868211A8";
paths = (
{
closed = 1;
nodes = (
"290 -10 OFFCURVE",
"311 1 OFFCURVE",
"317 18 CURVE SMOOTH",
"345 101 OFFCURVE",
"429 226 OFFCURVE",
"517 334 CURVE SMOOTH",
"588 422 OFFCURVE",
"671 513 OFFCURVE",
"751 593 CURVE SMOOTH",
"755 597 OFFCURVE",
"757 600 OFFCURVE",
"757 602 CURVE SMOOTH",
"757 605 OFFCURVE",
"755 606 OFFCURVE",
"751 606 CURVE SMOOTH",
"744 606 OFFCURVE",
"731 602 OFFCURVE",
"722 594 CURVE SMOOTH",
"673 551 OFFCURVE",
"594 462 OFFCURVE",
"513 358 CURVE SMOOTH",
"420 239 OFFCURVE",
"327 105 OFFCURVE",
"299 57 CURVE",
"306 91 OFFCURVE",
"313 175 OFFCURVE",
"313 266 CURVE SMOOTH",
"313 378 OFFCURVE",
"302 499 OFFCURVE",
"268 542 CURVE",
"310 543 OFFCURVE",
"405 542 OFFCURVE",
"408 506 CURVE SMOOTH",
"409 498 OFFCURVE",
"411 495 OFFCURVE",
"413 495 CURVE SMOOTH",
"417 495 OFFCURVE",
"422 509 OFFCURVE",
"422 520 CURVE SMOOTH",
"422 524 LINE",
"414 553 OFFCURVE",
"342 561 OFFCURVE",
"264 559 CURVE",
"260 561 OFFCURVE",
"256 562 OFFCURVE",
"252 562 CURVE SMOOTH",
"247 562 OFFCURVE",
"240 561 OFFCURVE",
"234 557 CURVE",
"161 553 OFFCURVE",
"89 542 OFFCURVE",
"64 532 CURVE SMOOTH",
"30 519 OFFCURVE",
"11 497 OFFCURVE",
"11 475 CURVE SMOOTH",
"11 457 OFFCURVE",
"23 438 OFFCURVE",
"50 423 CURVE SMOOTH",
"54 421 OFFCURVE",
"57 425 OFFCURVE",
"57 429 CURVE SMOOTH",
"57 431 OFFCURVE",
"56 432 OFFCURVE",
"55 433 CURVE",
"34 445 OFFCURVE",
"25 456 OFFCURVE",
"25 467 CURVE SMOOTH",
"25 484 OFFCURVE",
"47 500 OFFCURVE",
"80 513 CURVE SMOOTH",
"110 525 OFFCURVE",
"165 536 OFFCURVE",
"224 542 CURVE",
"232 534 LINE",
"275 474 OFFCURVE",
"285 380 OFFCURVE",
"285 286 CURVE SMOOTH",
"285 237 OFFCURVE",
"282 187 OFFCURVE",
"280 142 CURVE SMOOTH",
"275 45 OFFCURVE",
"261 35 OFFCURVE",
"261 3 CURVE SMOOTH",
"261 -4 OFFCURVE",
"262 -10 OFFCURVE",
"271 -10 CURVE SMOOTH"
);
}
);
width = 469;
}
);
note = V;
unicode = 0056;
},
{
glyphname = W;
lastChange = "2021-11-17 23:20:15 +0000";
layers = (
{
anchors = (
{
name = bottom;
position = "{553, 0}";
},
{
name = top;
position = "{771, 480}";
}
);
layerId = "1A0EDF0C-2B61-4714-947B-2452868211A8";
paths = (
{
closed = 1;
nodes = (
"383 -56 OFFCURVE",
"414 -48 OFFCURVE",
"447 -32 CURVE SMOOTH",
"559 22 OFFCURVE",
"601 100 OFFCURVE",
"660 180 CURVE",
"659 56 OFFCURVE",
"723 -38 OFFCURVE",
"810 -38 CURVE SMOOTH",
"850 -38 OFFCURVE",
"895 -19 OFFCURVE",
"941 27 CURVE SMOOTH",
"993 79 OFFCURVE",
"1032 157 OFFCURVE",
"1050 236 CURVE SMOOTH",
"1057 267 OFFCURVE",
"1061 299 OFFCURVE",
"1061 330 CURVE SMOOTH",
"1061 378 OFFCURVE",
"1052 423 OFFCURVE",
"1032 458 CURVE",
"1053 457 OFFCURVE",
"1076 460 OFFCURVE",
"1096 465 CURVE SMOOTH",
"1101 466 OFFCURVE",
"1103 469 OFFCURVE",
"1103 471 CURVE SMOOTH",
"1103 473 OFFCURVE",
"1101 475 OFFCURVE",
"1097 475 CURVE SMOOTH",
"1096 475 LINE SMOOTH",
"1083 475 OFFCURVE",
"1072 473 OFFCURVE",
"1060 473 CURVE SMOOTH",
"1047 473 OFFCURVE",
"1033 474 OFFCURVE",
"1018 478 CURVE",
"1006 491 OFFCURVE",
"991 500 OFFCURVE",
"973 505 CURVE",
"968 508 OFFCURVE",
"962 503 OFFCURVE",
"962 497 CURVE SMOOTH",
"962 496 OFFCURVE",
"962 494 OFFCURVE",
"963 493 CURVE",
"974 475 OFFCURVE",
"991 465 OFFCURVE",
"1010 461 CURVE",
"1026 434 OFFCURVE",
"1034 396 OFFCURVE",
"1034 351 CURVE SMOOTH",
"1034 317 OFFCURVE",
"1029 279 OFFCURVE",
"1019 239 CURVE SMOOTH",
"1001 169 OFFCURVE",
"968 95 OFFCURVE",
"926 44 CURVE SMOOTH",
"887 -4 OFFCURVE",
"850 -23 OFFCURVE",
"817 -23 CURVE SMOOTH",
"739 -23 OFFCURVE",
"686 91 OFFCURVE",
"686 186 CURVE SMOOTH",
"686 201 OFFCURVE",
"687 216 OFFCURVE",
"690 229 CURVE",
"702 248 OFFCURVE",
"721 278 OFFCURVE",
"721 298 CURVE SMOOTH",
"721 304 OFFCURVE",
"719 309 OFFCURVE",
"714 313 CURVE SMOOTH",
"707 318 OFFCURVE",
"693 310 OFFCURVE",
"687 302 CURVE SMOOTH",
"673 284 OFFCURVE",
"667 254 OFFCURVE",
"668 218 CURVE",
"591 104 OFFCURVE",
"534 28 OFFCURVE",
"448 -14 CURVE SMOOTH",
"417 -29 OFFCURVE",
"389 -36 OFFCURVE",
"365 -36 CURVE SMOOTH",
"300 -36 OFFCURVE",
"260 13 OFFCURVE",
"260 83 CURVE SMOOTH",
"260 157 OFFCURVE",
"306 256 OFFCURVE",
"414 344 CURVE SMOOTH",
"478 396 OFFCURVE",
"551 429 OFFCURVE",
"599 454 CURVE",
"615 447 OFFCURVE",
"627 445 OFFCURVE",
"636 445 CURVE SMOOTH",
"645 445 OFFCURVE",
"650 448 OFFCURVE",
"650 452 CURVE SMOOTH",
"650 459 OFFCURVE",
"637 469 OFFCURVE",
"613 469 CURVE SMOOTH",
"609 469 OFFCURVE",
"604 469 OFFCURVE",
"598 468 CURVE",
"565 481 OFFCURVE",
"531 495 OFFCURVE",
"497 510 CURVE SMOOTH",
"413 545 OFFCURVE",
"331 581 OFFCURVE",
"245 581 CURVE SMOOTH",
"226 581 OFFCURVE",
"207 580 OFFCURVE",
"188 576 CURVE SMOOTH",
"87 557 OFFCURVE",
"35 486 OFFCURVE",
"35 411 CURVE SMOOTH",
"35 337 OFFCURVE",
"87 259 OFFCURVE",
"194 227 CURVE SMOOTH",
"198 226 OFFCURVE",
"200 229 OFFCURVE",
"200 233 CURVE SMOOTH",
"200 235 OFFCURVE",
"199 237 OFFCURVE",
"197 238 CURVE",
"103 266 OFFCURVE",
"59 331 OFFCURVE",
"59 396 CURVE SMOOTH",
"59 463 OFFCURVE",
"106 528 OFFCURVE",
"193 549 CURVE SMOOTH",
"215 554 OFFCURVE",
"237 557 OFFCURVE",
"259 557 CURVE SMOOTH",
"341 557 OFFCURVE",
"422 525 OFFCURVE",
"499 493 CURVE SMOOTH",
"523 483 OFFCURVE",
"552 471 OFFCURVE",
"582 460 CURVE",
"536 440 OFFCURVE",
"466 411 OFFCURVE",
"405 364 CURVE SMOOTH",
"280 267 OFFCURVE",
"229 162 OFFCURVE",
"229 81 CURVE SMOOTH",
"229 0 OFFCURVE",
"279 -56 OFFCURVE",
"355 -56 CURVE SMOOTH"
);
}
);
width = 1077;
}
);
leftKerningGroup = W;
note = W;
rightKerningGroup = W;
unicode = 0057;
},
{
glyphname = X;
lastChange = "2021-11-09 10:50:25 +0000";
layers = (
{
layerId = "1A0EDF0C-2B61-4714-947B-2452868211A8";
paths = (
{
closed = 1;
nodes = (
"663 -82 OFFCURVE",
"700 -64 OFFCURVE",
"729 -25 CURVE SMOOTH",
"731 -22 OFFCURVE",
"732 -20 OFFCURVE",
"732 -17 CURVE SMOOTH",
"732 -15 OFFCURVE",
"731 -13 OFFCURVE",
"728 -13 CURVE SMOOTH",
"726 -13 OFFCURVE",
"723 -15 OFFCURVE",
"719 -19 CURVE SMOOTH",
"695 -46 OFFCURVE",
"666 -58 OFFCURVE",
"637 -58 CURVE SMOOTH",
"594 -58 OFFCURVE",
"550 -30 OFFCURVE",
"518 16 CURVE SMOOTH",
"459 102 OFFCURVE",
"415 258 OFFCURVE",
"405 301 CURVE",
"500 390 OFFCURVE",
"634 519 OFFCURVE",
"751 578 CURVE SMOOTH",
"757 581 OFFCURVE",
"762 587 OFFCURVE",
"762 591 CURVE SMOOTH",
"762 593 OFFCURVE",
"761 595 OFFCURVE",
"757 595 CURVE SMOOTH",
"754 595 OFFCURVE",
"751 594 OFFCURVE",
"746 592 CURVE SMOOTH",
"653 560 OFFCURVE",
"457 370 OFFCURVE",
"401 320 CURVE",
"389 385 OFFCURVE",
"371 479 OFFCURVE",
"365 538 CURVE",
"389 532 OFFCURVE",
"407 522 OFFCURVE",
"408 506 CURVE SMOOTH",
"409 498 OFFCURVE",
"411 495 OFFCURVE",
"413 495 CURVE SMOOTH",
"417 495 OFFCURVE",
"422 509 OFFCURVE",
"422 520 CURVE SMOOTH",
"422 524 LINE",
"418 540 OFFCURVE",
"395 549 OFFCURVE",
"364 554 CURVE",
"362 563 OFFCURVE",
"351 568 OFFCURVE",
"342 568 CURVE SMOOTH",
"334 568 OFFCURVE",
"328 565 OFFCURVE",
"325 558 CURVE",
"314 559 OFFCURVE",
"302 559 OFFCURVE",
"289 559 CURVE SMOOTH",
"201 559 OFFCURVE",
"95 544 OFFCURVE",
"64 532 CURVE SMOOTH",
"30 519 OFFCURVE",
"11 497 OFFCURVE",
"11 475 CURVE SMOOTH",
"11 457 OFFCURVE",
"23 438 OFFCURVE",
"50 423 CURVE SMOOTH",
"54 421 OFFCURVE",
"57 425 OFFCURVE",
"57 429 CURVE SMOOTH",
"57 431 OFFCURVE",
"56 432 OFFCURVE",
"55 433 CURVE",
"34 445 OFFCURVE",
"25 456 OFFCURVE",
"25 467 CURVE SMOOTH",
"25 484 OFFCURVE",
"47 500 OFFCURVE",
"80 513 CURVE SMOOTH",
"115 527 OFFCURVE",
"187 540 OFFCURVE",
"258 545 CURVE SMOOTH",
"262 545 OFFCURVE",
"292 547 OFFCURVE",
"325 544 CURVE",
"330 501 OFFCURVE",
"369 334 OFFCURVE",
"377 301 CURVE",
"333 261 OFFCURVE",
"213 146 OFFCURVE",
"167 65 CURVE SMOOTH",
"161 55 OFFCURVE",
"158 41 OFFCURVE",
"158 28 CURVE SMOOTH",
"158 6 OFFCURVE",
"168 -15 OFFCURVE",
"191 -15 CURVE SMOOTH",
"197 -15 OFFCURVE",
"199 -14 OFFCURVE",
"199 -12 CURVE SMOOTH",
"199 -9 OFFCURVE",
"194 -3 OFFCURVE",
"189 6 CURVE SMOOTH",
"187 10 OFFCURVE",
"186 14 OFFCURVE",
"186 20 CURVE SMOOTH",
"186 86 OFFCURVE",
"350 249 OFFCURVE",
"382 280 CURVE",
"394 231 OFFCURVE",
"429 87 OFFCURVE",
"490 0 CURVE SMOOTH",
"528 -53 OFFCURVE",
"577 -82 OFFCURVE",
"625 -82 CURVE SMOOTH"
);
}
);
width = 595;
}
);
note = X;
unicode = 0058;
},
{
glyphname = Y;
lastChange = "2021-11-17 23:21:04 +0000";
layers = (
{
anchors = (
{
name = bottom;
position = "{192, -203}";
},
{
name = top;
position = "{450, 580}";
},
{
name = topleft;
position = "{20, 580}";
}
);
layerId = "1A0EDF0C-2B61-4714-947B-2452868211A8";
paths = (
{
closed = 1;
nodes = (
"236 -197 OFFCURVE",
"261 -182 OFFCURVE",
"276 -161 CURVE SMOOTH",
"283 -152 OFFCURVE",
"286 -143 OFFCURVE",
"286 -137 CURVE SMOOTH",
"286 -133 OFFCURVE",
"284 -131 OFFCURVE",
"282 -131 CURVE SMOOTH",
"280 -131 OFFCURVE",
"276 -134 OFFCURVE",
"271 -141 CURVE SMOOTH",
"265 -149 OFFCURVE",
"257 -159 OFFCURVE",
"252 -164 CURVE SMOOTH",
"245 -170 OFFCURVE",
"237 -173 OFFCURVE",
"229 -173 CURVE SMOOTH",
"216 -173 OFFCURVE",
"205 -162 OFFCURVE",
"205 -130 CURVE SMOOTH",
"205 -100 OFFCURVE",
"217 -62 OFFCURVE",
"228 -27 CURVE SMOOTH",
"261 70 OFFCURVE",
"330 179 OFFCURVE",
"383 246 CURVE SMOOTH",
"436 313 OFFCURVE",
"501 388 OFFCURVE",
"563 449 CURVE SMOOTH",
"596 481 OFFCURVE",
"643 522 OFFCURVE",
"657 533 CURVE SMOOTH",
"665 539 OFFCURVE",
"655 556 OFFCURVE",
"638 556 CURVE SMOOTH",
"632 556 OFFCURVE",
"625 554 OFFCURVE",
"618 548 CURVE",
"604 539 OFFCURVE",
"575 536 OFFCURVE",
"553 536 CURVE SMOOTH",
"547 536 OFFCURVE",
"540 537 OFFCURVE",
"536 537 CURVE SMOOTH",
"530 537 OFFCURVE",
"526 534 OFFCURVE",
"526 531 CURVE SMOOTH",
"526 528 OFFCURVE",
"528 525 OFFCURVE",
"534 524 CURVE SMOOTH",
"543 522 OFFCURVE",
"553 521 OFFCURVE",
"565 521 CURVE SMOOTH",
"573 521 OFFCURVE",
"582 522 OFFCURVE",
"590 523 CURVE",
"512 448 OFFCURVE",
"421 331 OFFCURVE",
"367 256 CURVE SMOOTH",
"358 244 OFFCURVE",
"349 231 OFFCURVE",
"340 218 CURVE",
"343 303 OFFCURVE",
"324 433 OFFCURVE",
"281 498 CURVE SMOOTH",
"243 557 OFFCURVE",
"189 582 OFFCURVE",
"142 582 CURVE SMOOTH",
"128 582 OFFCURVE",
"115 580 OFFCURVE",
"103 576 CURVE SMOOTH",
"49 557 OFFCURVE",
"9 493 OFFCURVE",
"13 397 CURVE SMOOTH",
"16 336 OFFCURVE",
"71 249 OFFCURVE",
"119 254 CURVE SMOOTH",
"126 254 OFFCURVE",
"125 264 OFFCURVE",
"119 264 CURVE SMOOTH",
"118 264 LINE SMOOTH",
"80 264 OFFCURVE",
"39 337 OFFCURVE",
"36 397 CURVE SMOOTH",
"32 490 OFFCURVE",
"58 549 OFFCURVE",
"108 566 CURVE SMOOTH",
"116 569 OFFCURVE",
"125 570 OFFCURVE",
"134 570 CURVE SMOOTH",
"176 570 OFFCURVE",
"222 539 OFFCURVE",
"259 481 CURVE SMOOTH",
"300 419 OFFCURVE",
"316 262 OFFCURVE",
"312 175 CURVE",
"274 113 OFFCURVE",
"239 48 OFFCURVE",
"209 -19 CURVE SMOOTH",
"200 -41 OFFCURVE",
"170 -105 OFFCURVE",
"170 -150 CURVE SMOOTH",
"170 -177 OFFCURVE",
"181 -197 OFFCURVE",
"213 -197 CURVE SMOOTH"
);
}
);
width = 432;
}
);
leftKerningGroup = Y;
note = Y;
rightKerningGroup = Y;
unicode = 0059;
},
{
glyphname = Z;
lastChange = "2021-11-17 23:07:15 +0000";
layers = (
{
anchors = (
{
name = bottom;
position = "{362, 0}";
},
{
name = center;
position = "{362, 290}";
},
{
name = top;
position = "{465, 580}";
}
);
layerId = "1A0EDF0C-2B61-4714-947B-2452868211A8";
paths = (
{
closed = 1;
nodes = (
"623 -68 OFFCURVE",
"687 -30 OFFCURVE",
"687 28 CURVE SMOOTH",
"687 44 OFFCURVE",
"682 62 OFFCURVE",
"671 81 CURVE SMOOTH",
"659 101 OFFCURVE",
"620 135 OFFCURVE",
"586 145 CURVE SMOOTH",
"582 146 OFFCURVE",
"578 142 OFFCURVE",
"578 139 CURVE SMOOTH",
"578 137 OFFCURVE",
"579 136 OFFCURVE",
"581 136 CURVE",
"612 127 OFFCURVE",
"649 95 OFFCURVE",
"660 75 CURVE SMOOTH",
"669 59 OFFCURVE",
"674 44 OFFCURVE",
"674 31 CURVE SMOOTH",
"674 -13 OFFCURVE",
"626 -39 OFFCURVE",
"564 -39 CURVE SMOOTH",
"547 -39 OFFCURVE",
"530 -37 OFFCURVE",
"512 -33 CURVE SMOOTH",
"394 -10 OFFCURVE",
"261 90 OFFCURVE",
"131 95 CURVE SMOOTH",
"118 96 OFFCURVE",
"107 92 OFFCURVE",
"93 90 CURVE",
"147 144 OFFCURVE",
"220 207 OFFCURVE",
"242 226 CURVE SMOOTH",
"362 327 OFFCURVE",
"498 435 OFFCURVE",
"630 518 CURVE",
"639 518 LINE",
"674 515 LINE SMOOTH",
"684 514 OFFCURVE",
"695 522 OFFCURVE",
"695 534 CURVE SMOOTH",
"695 535 LINE SMOOTH",
"695 548 OFFCURVE",
"680 551 OFFCURVE",
"671 552 CURVE SMOOTH",
"661 552 OFFCURVE",
"650 548 OFFCURVE",
"640 544 CURVE SMOOTH",
"632 540 OFFCURVE",
"623 536 OFFCURVE",
"614 531 CURVE",
"557 533 OFFCURVE",
"473 552 OFFCURVE",
"442 557 CURVE SMOOTH",
"401 564 OFFCURVE",
"343 574 OFFCURVE",
"287 574 CURVE SMOOTH",
"243 574 OFFCURVE",
"200 568 OFFCURVE",
"166 550 CURVE SMOOTH",
"138 535 OFFCURVE",
"127 513 OFFCURVE",
"127 489 CURVE SMOOTH",
"127 444 OFFCURVE",
"161 391 OFFCURVE",
"182 362 CURVE SMOOTH",
"185 357 OFFCURVE",
"192 362 OFFCURVE",
"192 367 CURVE SMOOTH",
"192 368 OFFCURVE",
"192 369 OFFCURVE",
"191 370 CURVE SMOOTH",
"174 393 OFFCURVE",
"153 432 OFFCURVE",
"153 467 CURVE SMOOTH",
"153 492 OFFCURVE",
"163 515 OFFCURVE",
"192 530 CURVE SMOOTH",
"224 546 OFFCURVE",
"263 552 OFFCURVE",
"302 552 CURVE SMOOTH",
"356 552 OFFCURVE",
"411 542 OFFCURVE",
"453 535 CURVE SMOOTH",
"478 531 OFFCURVE",
"539 520 OFFCURVE",
"591 517 CURVE",
"481 451 OFFCURVE",
"313 317 OFFCURVE",
"235 253 CURVE SMOOTH",
"198 222 OFFCURVE",
"73 124 OFFCURVE",
"23 54 CURVE SMOOTH",
"15 41 OFFCURVE",
"5 25 OFFCURVE",
"5 4 CURVE SMOOTH",
"5 -5 OFFCURVE",
"11 -10 OFFCURVE",
"18 -10 CURVE SMOOTH",
"25 -10 OFFCURVE",
"33 -5 OFFCURVE",
"38 7 CURVE",
"50 59 OFFCURVE",
"85 76 OFFCURVE",
"128 76 CURVE SMOOTH",
"169 76 OFFCURVE",
"218 59 OFFCURVE",
"258 42 CURVE SMOOTH",
"319 16 OFFCURVE",
"449 -50 OFFCURVE",
"513 -64 CURVE SMOOTH",
"526 -67 OFFCURVE",
"539 -68 OFFCURVE",
"552 -68 CURVE SMOOTH"
);
}
);
width = 723;
}
);
leftKerningGroup = Z;
note = Z;
rightKerningGroup = Z;
unicode = 005A;
},
{
glyphname = AE.init;
lastChange = "2021-11-09 11:10:08 +0000";
layers = (
{
anchors = (
{
name = bottom;
position = "{726, 0}";
},
{
name = top;
position = "{929, 580}";
}
);
layerId = "1A0EDF0C-2B61-4714-947B-2452868211A8";
paths = (
{
closed = 1;
nodes = (
"907 -72 OFFCURVE",
"1016 -51 OFFCURVE",
"1097 -12 CURVE SMOOTH",
"1163 19 OFFCURVE",
"1246 79 OFFCURVE",
"1254 158 CURVE SMOOTH",
"1255 168 LINE SMOOTH",
"1257 184 OFFCURVE",
"1251 190 OFFCURVE",
"1247 190 CURVE SMOOTH",
"1243 190 OFFCURVE",
"1239 183 OFFCURVE",
"1239 175 CURVE SMOOTH",
"1239 170 OFFCURVE",
"1239 165 OFFCURVE",
"1237 160 CURVE",
"1223 91 OFFCURVE",
"1148 34 OFFCURVE",
"1090 7 CURVE SMOOTH",
"1007 -32 OFFCURVE",
"878 -54 OFFCURVE",
"789 -54 CURVE SMOOTH",
"747 -54 OFFCURVE",
"698 -49 OFFCURVE",
"661 -28 CURVE SMOOTH",
"630 -10 OFFCURVE",
"608 17 OFFCURVE",
"608 57 CURVE SMOOTH",
"608 128 OFFCURVE",
"679 190 OFFCURVE",
"734 222 CURVE SMOOTH",
"798 260 OFFCURVE",
"881 286 OFFCURVE",
"954 296 CURVE",
"984 288 OFFCURVE",
"1016 283 OFFCURVE",
"1047 283 CURVE SMOOTH",
"1057 283 OFFCURVE",
"1096 284 OFFCURVE",
"1096 302 CURVE SMOOTH",
"1096 319 OFFCURVE",
"1025 316 OFFCURVE",
"1013 316 CURVE SMOOTH",
"998 316 OFFCURVE",
"983 316 OFFCURVE",
"968 315 CURVE",
"947 322 OFFCURVE",
"932 331 OFFCURVE",
"924 343 CURVE SMOOTH",
"922 346 OFFCURVE",
"920 349 OFFCURVE",
"919 352 CURVE",
"1017 349 OFFCURVE",
"1184 367 OFFCURVE",
"1249 438 CURVE SMOOTH",
"1267 458 OFFCURVE",
"1275 477 OFFCURVE",
"1275 495 CURVE SMOOTH",
"1275 523 OFFCURVE",
"1256 545 OFFCURVE",
"1223 557 CURVE SMOOTH",
"1208 562 OFFCURVE",
"1189 565 OFFCURVE",
"1167 565 CURVE SMOOTH",
"1123 565 OFFCURVE",
"1070 554 OFFCURVE",
"1024 534 CURVE SMOOTH",
"951 500 OFFCURVE",
"890 447 OFFCURVE",
"882 386 CURVE SMOOTH",
"881 381 OFFCURVE",
"881 375 OFFCURVE",
"881 370 CURVE",
"799 383 OFFCURVE",
"725 439 OFFCURVE",
"725 497 CURVE SMOOTH",
"725 512 OFFCURVE",
"730 527 OFFCURVE",
"741 541 CURVE SMOOTH",
"764 571 OFFCURVE",
"800 580 OFFCURVE",
"835 580 CURVE SMOOTH",
"884 580 OFFCURVE",
"931 562 OFFCURVE",
"944 553 CURVE SMOOTH",
"948 550 OFFCURVE",
"952 554 OFFCURVE",
"952 557 CURVE SMOOTH",
"952 558 OFFCURVE",
"951 559 OFFCURVE",
"950 560 CURVE SMOOTH",
"936 570 OFFCURVE",
"874 592 OFFCURVE",
"815 592 CURVE SMOOTH",
"776 592 OFFCURVE",
"738 583 OFFCURVE",
"716 553 CURVE SMOOTH",
"713 549 OFFCURVE",
"710 544 OFFCURVE",
"708 539 CURVE",
"701 535 OFFCURVE",
"690 531 OFFCURVE",
"672 531 CURVE SMOOTH",
"659 531 OFFCURVE",
"643 533 OFFCURVE",
"621 539 CURVE SMOOTH",
"551 557 OFFCURVE",
"474 582 OFFCURVE",
"399 582 CURVE SMOOTH",
"384 582 OFFCURVE",
"368 580 OFFCURVE",
"353 578 CURVE SMOOTH",
"275 566 OFFCURVE",
"235 519 OFFCURVE",
"235 470 CURVE SMOOTH",
"235 462 OFFCURVE",
"236 455 OFFCURVE",
"238 447 CURVE SMOOTH",
"248 407 OFFCURVE",
"291 363 OFFCURVE",
"361 353 CURVE SMOOTH",
"366 352 OFFCURVE",
"369 354 OFFCURVE",
"369 357 CURVE SMOOTH",
"369 359 OFFCURVE",
"366 363 OFFCURVE",
"360 364 CURVE SMOOTH",
"288 381 OFFCURVE",
"254 423 OFFCURVE",
"254 462 CURVE SMOOTH",
"254 503 OFFCURVE",
"290 543 OFFCURVE",
"358 556 CURVE SMOOTH",
"377 560 OFFCURVE",
"396 562 OFFCURVE",
"416 562 CURVE SMOOTH",
"480 562 OFFCURVE",
"546 543 OFFCURVE",
"608 526 CURVE SMOOTH",
"625 522 OFFCURVE",
"645 519 OFFCURVE",
"663 519 CURVE SMOOTH",
"678 519 OFFCURVE",
"692 521 OFFCURVE",
"701 525 CURVE",
"645 442 OFFCURVE",
"567 340 OFFCURVE",
"485 247 CURVE",
"463 249 OFFCURVE",
"440 250 OFFCURVE",
"416 250 CURVE SMOOTH",
"359 250 OFFCURVE",
"299 244 OFFCURVE",
"245 230 CURVE SMOOTH",
"101 194 OFFCURVE",
"17 92 OFFCURVE",
"17 20 CURVE SMOOTH",
"17 12 OFFCURVE",
"19 4 OFFCURVE",
"21 -4 CURVE SMOOTH",
"27 -25 OFFCURVE",
"45 -38 OFFCURVE",
"71 -42 CURVE SMOOTH",
"81 -44 OFFCURVE",
"90 -44 OFFCURVE",
"100 -44 CURVE SMOOTH",
"237 -44 OFFCURVE",
"391 112 OFFCURVE",
"478 212 CURVE SMOOTH",
"483 218 OFFCURVE",
"489 225 OFFCURVE",
"495 231 CURVE",
"564 225 OFFCURVE",
"620 212 OFFCURVE",
"645 199 CURVE",
"605 166 OFFCURVE",
"572 123 OFFCURVE",
"572 73 CURVE SMOOTH",
"572 17 OFFCURVE",
"614 -20 OFFCURVE",
"659 -41 CURVE SMOOTH",
"708 -64 OFFCURVE",
"766 -72 OFFCURVE",
"819 -72 CURVE SMOOTH"
);
},
{
closed = 1;
nodes = (
"75 -20 OFFCURVE",
"59 0 OFFCURVE",
"59 28 CURVE SMOOTH",
"59 61 OFFCURVE",
"81 103 OFFCURVE",
"110 133 CURVE SMOOTH",
"144 169 OFFCURVE",
"195 202 OFFCURVE",
"263 220 CURVE SMOOTH",
"309 231 OFFCURVE",
"356 236 OFFCURVE",
"403 236 CURVE SMOOTH",
"427 236 OFFCURVE",
"450 235 OFFCURVE",
"473 233 CURVE",
"380 128 OFFCURVE",
"245 -20 OFFCURVE",
"119 -20 CURVE SMOOTH"
);
},
{
closed = 1;
nodes = (
"633 223 OFFCURVE",
"576 238 OFFCURVE",
"506 245 CURVE",
"570 322 OFFCURVE",
"638 414 OFFCURVE",
"688 488 CURVE",
"680 460 OFFCURVE",
"675 431 OFFCURVE",
"674 412 CURVE SMOOTH",
"673 365 OFFCURVE",
"676 313 OFFCURVE",
"676 262 CURVE SMOOTH",
"676 249 OFFCURVE",
"675 236 OFFCURVE",
"675 223 CURVE",
"677 223 LINE",
"656 208 LINE"
);
},
{
closed = 1;
nodes = (
"711 302 OFFCURVE",
"702 362 OFFCURVE",
"703 421 CURVE SMOOTH",
"704 432 OFFCURVE",
"705 454 OFFCURVE",
"707 475 CURVE",
"728 417 OFFCURVE",
"804 362 OFFCURVE",
"884 354 CURVE",
"891 335 OFFCURVE",
"906 321 OFFCURVE",
"926 311 CURVE",
"853 303 OFFCURVE",
"779 282 OFFCURVE",
"715 247 CURVE",
"714 246 OFFCURVE",
"712 246 OFFCURVE",
"711 245 CURVE"
);
},
{
closed = 1;
nodes = (
"946 364 OFFCURVE",
"930 365 OFFCURVE",
"915 366 CURVE",
"914 372 OFFCURVE",
"914 379 OFFCURVE",
"915 385 CURVE SMOOTH",
"929 469 OFFCURVE",
"1072 544 OFFCURVE",
"1167 544 CURVE SMOOTH",
"1186 544 OFFCURVE",
"1202 541 OFFCURVE",
"1216 535 CURVE SMOOTH",
"1236 526 OFFCURVE",
"1246 513 OFFCURVE",
"1246 496 CURVE SMOOTH",
"1246 482 OFFCURVE",
"1239 466 OFFCURVE",
"1223 448 CURVE SMOOTH",
"1177 393 OFFCURVE",
"1067 364 OFFCURVE",
"961 364 CURVE SMOOTH"
);
}
);
width = 1452;
}
);
},
{
glyphname = E.init;
lastChange = "2021-11-09 11:10:08 +0000";
layers = (
{
anchors = (
{
name = bottom;
position = "{391, -53}";
},
{
name = ogonek;
position = "{784, 10}";
},
{
name = top;
position = "{757, 555}";
},
{
name = topleft;
position = "{20, 580}";
}
);
layerId = "1A0EDF0C-2B61-4714-947B-2452868211A8";
paths = (
{
closed = 1;
nodes = (
"530 -60 OFFCURVE",
"650 -38 OFFCURVE",
"739 3 CURVE SMOOTH",
"810 36 OFFCURVE",
"900 100 OFFCURVE",
"910 185 CURVE",
"910 195 LINE SMOOTH",
"910 212 OFFCURVE",
"906 218 OFFCURVE",
"902 218 CURVE SMOOTH",
"898 218 OFFCURVE",
"893 211 OFFCURVE",
"893 203 CURVE SMOOTH",
"893 198 OFFCURVE",
"893 192 OFFCURVE",
"891 186 CURVE",
"876 113 OFFCURVE",
"794 53 OFFCURVE",
"731 24 CURVE SMOOTH",
"640 -17 OFFCURVE",
"499 -41 OFFCURVE",
"401 -41 CURVE SMOOTH",
"355 -41 OFFCURVE",
"303 -35 OFFCURVE",
"262 -13 CURVE SMOOTH",
"228 5 OFFCURVE",
"203 35 OFFCURVE",
"203 77 CURVE SMOOTH",
"203 153 OFFCURVE",
"281 218 OFFCURVE",
"342 253 CURVE SMOOTH",
"412 294 OFFCURVE",
"502 321 OFFCURVE",
"582 331 CURVE",
"614 322 OFFCURVE",
"650 318 OFFCURVE",
"683 318 CURVE SMOOTH",
"695 318 OFFCURVE",
"737 319 OFFCURVE",
"737 338 CURVE SMOOTH",
"737 352 OFFCURVE",
"694 353 OFFCURVE",
"667 353 CURVE SMOOTH",
"637 353 OFFCURVE",
"607 352 OFFCURVE",
"579 351 CURVE",
"552 365 OFFCURVE",
"533 391 OFFCURVE",
"533 426 CURVE SMOOTH",
"533 451 OFFCURVE",
"547 472 OFFCURVE",
"570 489 CURVE",
"616 473 OFFCURVE",
"664 458 OFFCURVE",
"708 446 CURVE SMOOTH",
"727 441 OFFCURVE",
"784 423 OFFCURVE",
"829 423 CURVE SMOOTH",
"869 423 OFFCURVE",
"890 443 OFFCURVE",
"890 468 CURVE SMOOTH",
"890 482 OFFCURVE",
"882 499 OFFCURVE",
"868 513 CURVE SMOOTH",
"835 544 OFFCURVE",
"766 553 OFFCURVE",
"734 553 CURVE SMOOTH",
"696 553 OFFCURVE",
"657 548 OFFCURVE",
"621 538 CURVE SMOOTH",
"599 532 OFFCURVE",
"570 522 OFFCURVE",
"546 507 CURVE",
"472 531 LINE SMOOTH",
"385 559 OFFCURVE",
"301 587 OFFCURVE",
"211 587 CURVE SMOOTH",
"192 587 OFFCURVE",
"173 586 OFFCURVE",
"153 583 CURVE SMOOTH",
"49 568 OFFCURVE",
"-5 512 OFFCURVE",
"-5 453 CURVE SMOOTH",
"-5 395 OFFCURVE",
"49 334 OFFCURVE",
"159 309 CURVE SMOOTH",
"165 308 OFFCURVE",
"167 317 OFFCURVE",
"162 318 CURVE SMOOTH",
"65 340 OFFCURVE",
"19 390 OFFCURVE",
"19 439 CURVE SMOOTH",
"19 490 OFFCURVE",
"68 540 OFFCURVE",
"158 557 CURVE SMOOTH",
"183 561 OFFCURVE",
"207 563 OFFCURVE",
"232 563 CURVE SMOOTH",
"314 563 OFFCURVE",
"396 543 OFFCURVE",
"474 518 CURVE SMOOTH",
"533 499 LINE",
"509 482 OFFCURVE",
"491 460 OFFCURVE",
"491 432 CURVE SMOOTH",
"491 386 OFFCURVE",
"519 363 OFFCURVE",
"546 347 CURVE",
"470 338 OFFCURVE",
"389 316 OFFCURVE",
"321 279 CURVE SMOOTH",
"256 244 OFFCURVE",
"164 178 OFFCURVE",
"164 94 CURVE SMOOTH",
"164 35 OFFCURVE",
"210 -5 OFFCURVE",
"260 -28 CURVE SMOOTH",
"313 -52 OFFCURVE",
"376 -60 OFFCURVE",
"434 -60 CURVE SMOOTH"
);
},
{
closed = 1;
nodes = (
"745 444 OFFCURVE",
"645 476 OFFCURVE",
"581 496 CURVE",
"595 505 OFFCURVE",
"611 512 OFFCURVE",
"628 518 CURVE SMOOTH",
"653 527 OFFCURVE",
"697 535 OFFCURVE",
"742 535 CURVE SMOOTH",
"825 535 OFFCURVE",
"857 504 OFFCURVE",
"857 477 CURVE SMOOTH",
"857 457 OFFCURVE",
"839 440 OFFCURVE",
"811 441 CURVE SMOOTH"
);
}
);
width = 914;
}
);
note = E;
},
{
glyphname = A.ss01;
lastChange = "2021-11-09 11:10:08 +0000";
layers = (
{
anchors = (
{
name = bottom;
position = "{458, 0}";
},
{
name = ogonek;
position = "{768, -154}";
},
{
name = top;
position = "{761, 545}";
}
);
layerId = "1A0EDF0C-2B61-4714-947B-2452868211A8";
paths = (
{
closed = 1;
nodes = (
"777 -168 OFFCURVE",
"803 -155 OFFCURVE",
"822 -126 CURVE SMOOTH",
"826 -121 OFFCURVE",
"819 -115 OFFCURVE",
"813 -115 CURVE SMOOTH",
"811 -115 OFFCURVE",
"809 -116 OFFCURVE",
"808 -118 CURVE SMOOTH",
"790 -145 OFFCURVE",
"768 -154 OFFCURVE",
"747 -154 CURVE SMOOTH",
"672 -154 OFFCURVE",
"646 -56 OFFCURVE",
"646 51 CURVE SMOOTH",
"646 82 OFFCURVE",
"648 114 OFFCURVE",
"652 145 CURVE",
"653 147 OFFCURVE",
"653 149 OFFCURVE",
"653 150 CURVE SMOOTH",
"656 173 OFFCURVE",
"660 195 OFFCURVE",
"664 216 CURVE SMOOTH",
"695 351 OFFCURVE",
"766 493 OFFCURVE",
"797 543 CURVE SMOOTH",
"800 548 OFFCURVE",
"795 550 OFFCURVE",
"788 550 CURVE SMOOTH",
"777 550 OFFCURVE",
"761 545 OFFCURVE",
"755 536 CURVE SMOOTH",
"729 494 OFFCURVE",
"651 330 OFFCURVE",
"624 188 CURVE SMOOTH",
"621 172 LINE",
"592 183 OFFCURVE",
"546 193 OFFCURVE",
"492 198 CURVE",
"575 298 OFFCURVE",
"665 425 OFFCURVE",
"715 501 CURVE SMOOTH",
"718 505 OFFCURVE",
"714 510 OFFCURVE",
"711 510 CURVE SMOOTH",
"709 510 OFFCURVE",
"708 510 OFFCURVE",
"707 508 CURVE SMOOTH",
"698 495 LINE",
"691 491 OFFCURVE",
"680 484 OFFCURVE",
"658 484 CURVE SMOOTH",
"645 484 OFFCURVE",
"628 486 OFFCURVE",
"607 492 CURVE SMOOTH",
"537 510 OFFCURVE",
"460 535 OFFCURVE",
"385 535 CURVE SMOOTH",
"370 535 OFFCURVE",
"354 533 OFFCURVE",
"339 531 CURVE SMOOTH",
"261 519 OFFCURVE",
"220 471 OFFCURVE",
"220 422 CURVE SMOOTH",
"220 378 OFFCURVE",
"264 318 OFFCURVE",
"347 306 CURVE SMOOTH",
"352 305 OFFCURVE",
"355 307 OFFCURVE",
"355 309 CURVE SMOOTH",
"355 312 OFFCURVE",
"352 315 OFFCURVE",
"346 317 CURVE SMOOTH",
"274 334 OFFCURVE",
"240 376 OFFCURVE",
"240 415 CURVE SMOOTH",
"240 456 OFFCURVE",
"276 496 OFFCURVE",
"343 509 CURVE SMOOTH",
"362 513 OFFCURVE",
"381 514 OFFCURVE",
"400 514 CURVE SMOOTH",
"466 514 OFFCURVE",
"532 496 OFFCURVE",
"594 479 CURVE SMOOTH",
"611 475 OFFCURVE",
"631 472 OFFCURVE",
"649 472 CURVE SMOOTH",
"664 472 OFFCURVE",
"677 474 OFFCURVE",
"687 478 CURVE",
"631 395 OFFCURVE",
"552 293 OFFCURVE",
"471 200 CURVE",
"449 202 OFFCURVE",
"426 203 OFFCURVE",
"402 203 CURVE SMOOTH",
"345 203 OFFCURVE",
"285 197 OFFCURVE",
"231 183 CURVE SMOOTH",
"87 146 OFFCURVE",
"3 45 OFFCURVE",
"3 -27 CURVE SMOOTH",
"3 -35 OFFCURVE",
"5 -43 OFFCURVE",
"7 -51 CURVE SMOOTH",
"13 -72 OFFCURVE",
"31 -85 OFFCURVE",
"57 -90 CURVE SMOOTH",
"66 -92 OFFCURVE",
"76 -92 OFFCURVE",
"85 -92 CURVE SMOOTH",
"222 -92 OFFCURVE",
"375 66 OFFCURVE",
"463 165 CURVE SMOOTH",
"480 184 LINE",
"540 179 OFFCURVE",
"590 169 OFFCURVE",
"619 158 CURVE",
"616 134 OFFCURVE",
"614 107 OFFCURVE",
"614 79 CURVE SMOOTH",
"614 -28 OFFCURVE",
"643 -145 OFFCURVE",
"728 -165 CURVE SMOOTH",
"735 -167 OFFCURVE",
"742 -168 OFFCURVE",
"750 -168 CURVE SMOOTH"
);
},
{
closed = 1;
nodes = (
"61 -67 OFFCURVE",
"44 -47 OFFCURVE",
"44 -18 CURVE SMOOTH",
"44 14 OFFCURVE",
"66 56 OFFCURVE",
"95 86 CURVE SMOOTH",
"130 122 OFFCURVE",
"181 155 OFFCURVE",
"249 173 CURVE SMOOTH",
"295 184 OFFCURVE",
"342 189 OFFCURVE",
"389 189 CURVE SMOOTH",
"413 189 OFFCURVE",
"436 188 OFFCURVE",
"459 186 CURVE",
"365 81 OFFCURVE",
"231 -67 OFFCURVE",
"105 -67 CURVE SMOOTH"
);
}
);
width = 765;
}
);
note = A;
},
{
glyphname = B.ss01;
lastChange = "2021-11-09 11:01:09 +0000";
layers = (
{
layerId = "1A0EDF0C-2B61-4714-947B-2452868211A8";
paths = (
{
closed = 1;
nodes = (
"503 -72 OFFCURVE",
"748 -31 OFFCURVE",
"748 90 CURVE SMOOTH",
"748 181 OFFCURVE",
"593 244 OFFCURVE",
"509 273 CURVE",
"587 277 OFFCURVE",
"721 305 OFFCURVE",
"721 405 CURVE SMOOTH",
"721 482 OFFCURVE",
"646 524 OFFCURVE",
"568 547 CURVE",
"578 555 OFFCURVE",
"589 561 OFFCURVE",
"601 564 CURVE SMOOTH",
"606 565 OFFCURVE",
"608 567 OFFCURVE",
"608 569 CURVE SMOOTH",
"608 573 OFFCURVE",
"603 576 OFFCURVE",
"593 576 CURVE SMOOTH",
"591 576 OFFCURVE",
"587 576 OFFCURVE",
"584 575 CURVE SMOOTH",
"572 572 OFFCURVE",
"560 564 OFFCURVE",
"549 552 CURVE",
"504 564 OFFCURVE",
"459 570 OFFCURVE",
"426 574 CURVE SMOOTH",
"400 577 OFFCURVE",
"355 580 OFFCURVE",
"306 580 CURVE SMOOTH",
"217 580 OFFCURVE",
"115 569 OFFCURVE",
"94 520 CURVE SMOOTH",
"92 516 OFFCURVE",
"91 511 OFFCURVE",
"91 507 CURVE SMOOTH",
"91 463 OFFCURVE",
"202 440 OFFCURVE",
"231 437 CURVE SMOOTH",
"235 437 OFFCURVE",
"237 440 OFFCURVE",
"237 443 CURVE SMOOTH",
"237 445 OFFCURVE",
"235 448 OFFCURVE",
"232 448 CURVE SMOOTH",
"208 451 OFFCURVE",
"129 471 OFFCURVE",
"129 507 CURVE SMOOTH",
"129 510 OFFCURVE",
"130 513 OFFCURVE",
"131 516 CURVE SMOOTH",
"148 555 OFFCURVE",
"245 564 OFFCURVE",
"327 564 CURVE SMOOTH",
"368 564 OFFCURVE",
"406 562 OFFCURVE",
"426 560 CURVE SMOOTH",
"456 557 OFFCURVE",
"497 551 OFFCURVE",
"537 540 CURVE",
"488 480 OFFCURVE",
"445 360 OFFCURVE",
"423 304 CURVE",
"422 304 OFFCURVE",
"420 305 OFFCURVE",
"418 305 CURVE SMOOTH",
"414 306 OFFCURVE",
"410 306 OFFCURVE",
"406 306 CURVE SMOOTH",
"390 306 OFFCURVE",
"380 300 OFFCURVE",
"380 292 CURVE SMOOTH",
"380 287 OFFCURVE",
"385 281 OFFCURVE",
"394 276 CURVE SMOOTH",
"397 274 OFFCURVE",
"404 273 OFFCURVE",
"411 273 CURVE",
"400 246 OFFCURVE",
"391 222 OFFCURVE",
"382 202 CURVE SMOOTH",
"360 154 OFFCURVE",
"300 14 OFFCURVE",
"236 23 CURVE SMOOTH",
"232 24 OFFCURVE",
"226 20 OFFCURVE",
"226 17 CURVE SMOOTH",
"226 15 OFFCURVE",
"231 12 OFFCURVE",
"247 12 CURVE SMOOTH",
"339 12 OFFCURVE",
"382 112 OFFCURVE",
"412 192 CURVE SMOOTH",
"440 272 LINE",
"445 273 OFFCURVE",
"450 273 OFFCURVE",
"454 273 CURVE",
"522 253 OFFCURVE",
"706 189 OFFCURVE",
"706 89 CURVE SMOOTH",
"706 -18 OFFCURVE",
"513 -52 OFFCURVE",
"356 -52 CURVE SMOOTH",
"293 -52 OFFCURVE",
"237 -47 OFFCURVE",
"201 -38 CURVE SMOOTH",
"100 -13 OFFCURVE",
"54 38 OFFCURVE",
"54 94 CURVE SMOOTH",
"54 148 OFFCURVE",
"98 208 OFFCURVE",
"176 252 CURVE SMOOTH",
"182 255 OFFCURVE",
"185 259 OFFCURVE",
"185 261 CURVE SMOOTH",
"185 262 OFFCURVE",
"184 263 OFFCURVE",
"182 263 CURVE SMOOTH",
"180 263 OFFCURVE",
"178 262 OFFCURVE",
"175 261 CURVE SMOOTH",
"74 220 OFFCURVE",
"17 150 OFFCURVE",
"17 84 CURVE SMOOTH",
"17 22 OFFCURVE",
"68 -36 OFFCURVE",
"179 -60 CURVE SMOOTH",
"213 -67 OFFCURVE",
"264 -72 OFFCURVE",
"323 -72 CURVE SMOOTH"
);
},
{
closed = 1;
nodes = (
"448 296 LINE",
"466 355 OFFCURVE",
"499 478 OFFCURVE",
"554 535 CURVE",
"624 513 OFFCURVE",
"686 473 OFFCURVE",
"686 403 CURVE SMOOTH",
"686 306 OFFCURVE",
"554 284 OFFCURVE",
"480 284 CURVE"
);
}
);
width = 768;
}
);
note = B;
},
{
glyphname = C.ss01;
lastChange = "2021-11-09 11:01:09 +0000";
layers = (
{
anchors = (
{
name = bottom;
position = "{345, -42}";
},
{
name = top;
position = "{731, 580}";
}
);
layerId = "1A0EDF0C-2B61-4714-947B-2452868211A8";
paths = (
{
closed = 1;
nodes = (
"546 -49 OFFCURVE",
"707 37 OFFCURVE",
"792 159 CURVE SMOOTH",
"794 162 OFFCURVE",
"795 166 OFFCURVE",
"795 169 CURVE SMOOTH",
"795 173 OFFCURVE",
"794 175 OFFCURVE",
"792 175 CURVE",
"792 175 OFFCURVE",
"790 175 OFFCURVE",
"789 173 CURVE",
"684 58 OFFCURVE",
"546 -29 OFFCURVE",
"387 -29 CURVE SMOOTH",
"249 -29 OFFCURVE",
"201 34 OFFCURVE",
"201 114 CURVE SMOOTH",
"201 187 OFFCURVE",
"240 272 OFFCURVE",
"288 335 CURVE",
"310 334 OFFCURVE",
"333 334 OFFCURVE",
"357 334 CURVE SMOOTH",
"489 334 OFFCURVE",
"646 350 OFFCURVE",
"754 407 CURVE SMOOTH",
"811 437 OFFCURVE",
"842 482 OFFCURVE",
"842 519 CURVE SMOOTH",
"842 560 OFFCURVE",
"804 592 OFFCURVE",
"718 588 CURVE SMOOTH",
"554 580 OFFCURVE",
"375 499 OFFCURVE",
"258 354 CURVE",
"219 357 OFFCURVE",
"182 363 OFFCURVE",
"148 372 CURVE SMOOTH",
"78 390 OFFCURVE",
"47 427 OFFCURVE",
"47 463 CURVE SMOOTH",
"47 508 OFFCURVE",
"93 553 OFFCURVE",
"172 566 CURVE SMOOTH",
"195 570 OFFCURVE",
"220 572 OFFCURVE",
"245 572 CURVE SMOOTH",
"303 572 OFFCURVE",
"361 563 OFFCURVE",
"385 553 CURVE SMOOTH",
"389 551 OFFCURVE",
"393 554 OFFCURVE",
"393 558 CURVE SMOOTH",
"393 560 OFFCURVE",
"392 562 OFFCURVE",
"389 563 CURVE SMOOTH",
"362 575 OFFCURVE",
"298 586 OFFCURVE",
"236 586 CURVE SMOOTH",
"213 586 OFFCURVE",
"190 584 OFFCURVE",
"169 581 CURVE SMOOTH",
"74 566 OFFCURVE",
"10 513 OFFCURVE",
"10 460 CURVE SMOOTH",
"10 420 OFFCURVE",
"47 380 OFFCURVE",
"135 357 CURVE SMOOTH",
"169 348 OFFCURVE",
"209 341 OFFCURVE",
"247 338 CURVE",
"197 271 OFFCURVE",
"165 193 OFFCURVE",
"165 125 CURVE SMOOTH",
"165 30 OFFCURVE",
"227 -49 OFFCURVE",
"394 -49 CURVE SMOOTH"
);
},
{
closed = 1;
nodes = (
"341 350 OFFCURVE",
"320 350 OFFCURVE",
"301 351 CURVE",
"396 483 OFFCURVE",
"546 565 OFFCURVE",
"710 573 CURVE SMOOTH",
"780 576 OFFCURVE",
"812 550 OFFCURVE",
"812 516 CURVE SMOOTH",
"812 488 OFFCURVE",
"789 454 OFFCURVE",
"747 428 CURVE SMOOTH",
"645 365 OFFCURVE",
"489 350 OFFCURVE",
"362 350 CURVE SMOOTH"
);
}
);
width = 807;
}
);
note = C;
},
{
glyphname = D.ss01;
lastChange = "2021-11-09 11:10:08 +0000";
layers = (
{
anchors = (
{
name = bottom;
position = "{305, -84}";
},
{
name = center;
position = "{411, 290}";
},
{
name = top;
position = "{657, 531}";
}
);
layerId = "1A0EDF0C-2B61-4714-947B-2452868211A8";
paths = (
{
closed = 1;
nodes = (
"548 -72 OFFCURVE",
"812 5 OFFCURVE",
"812 235 CURVE SMOOTH",
"812 373 OFFCURVE",
"722 467 OFFCURVE",
"598 524 CURVE SMOOTH",
"583 530 OFFCURVE",
"567 537 OFFCURVE",
"552 542 CURVE",
"564 553 OFFCURVE",
"578 561 OFFCURVE",
"592 564 CURVE SMOOTH",
"597 565 OFFCURVE",
"599 567 OFFCURVE",
"599 569 CURVE SMOOTH",
"599 573 OFFCURVE",
"594 576 OFFCURVE",
"584 576 CURVE SMOOTH",
"582 576 OFFCURVE",
"578 576 OFFCURVE",
"575 575 CURVE SMOOTH",
"562 572 OFFCURVE",
"548 562 OFFCURVE",
"535 548 CURVE",
"491 562 OFFCURVE",
"449 570 OFFCURVE",
"417 574 CURVE SMOOTH",
"391 577 OFFCURVE",
"346 580 OFFCURVE",
"297 580 CURVE SMOOTH",
"208 580 OFFCURVE",
"105 569 OFFCURVE",
"84 520 CURVE SMOOTH",
"82 516 OFFCURVE",
"81 512 OFFCURVE",
"81 508 CURVE SMOOTH",
"81 463 OFFCURVE",
"193 440 OFFCURVE",
"222 437 CURVE SMOOTH",
"226 437 OFFCURVE",
"228 440 OFFCURVE",
"228 443 CURVE SMOOTH",
"228 445 OFFCURVE",
"226 448 OFFCURVE",
"223 448 CURVE SMOOTH",
"199 451 OFFCURVE",
"120 471 OFFCURVE",
"120 506 CURVE SMOOTH",
"120 509 OFFCURVE",
"121 513 OFFCURVE",
"122 516 CURVE SMOOTH",
"138 555 OFFCURVE",
"236 564 OFFCURVE",
"318 564 CURVE SMOOTH",
"359 564 OFFCURVE",
"397 562 OFFCURVE",
"417 560 CURVE SMOOTH",
"448 557 OFFCURVE",
"485 550 OFFCURVE",
"525 536 CURVE",
"473 469 OFFCURVE",
"428 339 OFFCURVE",
"409 291 CURVE SMOOTH",
"396 257 OFFCURVE",
"383 227 OFFCURVE",
"372 202 CURVE SMOOTH",
"351 154 OFFCURVE",
"291 14 OFFCURVE",
"227 23 CURVE SMOOTH",
"223 24 OFFCURVE",
"217 20 OFFCURVE",
"217 17 CURVE SMOOTH",
"217 15 OFFCURVE",
"222 12 OFFCURVE",
"238 12 CURVE SMOOTH",
"330 12 OFFCURVE",
"374 112 OFFCURVE",
"404 192 CURVE SMOOTH",
"414 220 OFFCURVE",
"424 252 OFFCURVE",
"435 284 CURVE SMOOTH",
"451 334 OFFCURVE",
"484 466 OFFCURVE",
"540 530 CURVE",
"657 483 OFFCURVE",
"772 379 OFFCURVE",
"772 247 CURVE SMOOTH",
"772 239 OFFCURVE",
"772 231 OFFCURVE",
"771 222 CURVE SMOOTH",
"748 17 OFFCURVE",
"551 -54 OFFCURVE",
"366 -54 CURVE SMOOTH",
"306 -54 OFFCURVE",
"247 -47 OFFCURVE",
"196 -34 CURVE SMOOTH",
"93 -8 OFFCURVE",
"44 42 OFFCURVE",
"44 97 CURVE SMOOTH",
"44 149 OFFCURVE",
"87 206 OFFCURVE",
"167 252 CURVE SMOOTH",
"172 255 OFFCURVE",
"175 259 OFFCURVE",
"175 261 CURVE SMOOTH",
"175 262 OFFCURVE",
"174 263 OFFCURVE",
"173 263 CURVE SMOOTH",
"171 263 OFFCURVE",
"169 262 OFFCURVE",
"166 261 CURVE SMOOTH",
"59 218 OFFCURVE",
"3 150 OFFCURVE",
"3 87 CURVE SMOOTH",
"3 25 OFFCURVE",
"57 -32 OFFCURVE",
"170 -56 CURVE SMOOTH",
"216 -66 OFFCURVE",
"272 -72 OFFCURVE",
"331 -72 CURVE SMOOTH"
);
}
);
width = 821;
}
);
note = D;
},
{
glyphname = Eth.ss01;
lastChange = "2021-11-09 11:01:09 +0000";
layers = (
{
layerId = "1A0EDF0C-2B61-4714-947B-2452868211A8";
paths = (
{
closed = 1;
nodes = (
"548 -72 OFFCURVE",
"812 5 OFFCURVE",
"812 235 CURVE SMOOTH",
"812 373 OFFCURVE",
"722 467 OFFCURVE",
"598 524 CURVE SMOOTH",
"583 530 OFFCURVE",
"567 537 OFFCURVE",
"552 542 CURVE",
"564 553 OFFCURVE",
"578 561 OFFCURVE",
"592 564 CURVE SMOOTH",
"597 565 OFFCURVE",
"599 567 OFFCURVE",
"599 569 CURVE SMOOTH",
"599 573 OFFCURVE",
"594 576 OFFCURVE",
"584 576 CURVE SMOOTH",
"582 576 OFFCURVE",
"578 576 OFFCURVE",
"575 575 CURVE SMOOTH",
"562 572 OFFCURVE",
"548 562 OFFCURVE",
"535 548 CURVE",
"491 562 OFFCURVE",
"449 570 OFFCURVE",
"417 574 CURVE SMOOTH",
"391 577 OFFCURVE",
"346 580 OFFCURVE",
"297 580 CURVE SMOOTH",
"208 580 OFFCURVE",
"105 569 OFFCURVE",
"84 520 CURVE SMOOTH",
"82 516 OFFCURVE",
"81 512 OFFCURVE",
"81 508 CURVE SMOOTH",
"81 463 OFFCURVE",
"193 440 OFFCURVE",
"222 437 CURVE SMOOTH",
"226 437 OFFCURVE",
"228 440 OFFCURVE",
"228 443 CURVE SMOOTH",
"228 445 OFFCURVE",
"226 448 OFFCURVE",
"223 448 CURVE SMOOTH",
"199 451 OFFCURVE",
"120 471 OFFCURVE",
"120 506 CURVE SMOOTH",
"120 509 OFFCURVE",
"121 513 OFFCURVE",
"122 516 CURVE SMOOTH",
"138 555 OFFCURVE",
"236 564 OFFCURVE",
"318 564 CURVE SMOOTH",
"359 564 OFFCURVE",
"397 562 OFFCURVE",
"417 560 CURVE SMOOTH",
"448 557 OFFCURVE",
"485 550 OFFCURVE",
"525 536 CURVE",
"473 469 OFFCURVE",
"428 339 OFFCURVE",
"409 291 CURVE SMOOTH",
"396 257 OFFCURVE",
"383 227 OFFCURVE",
"372 202 CURVE",
"372 201 OFFCURVE",
"371 200 OFFCURVE",
"371 199 CURVE",
"291 185 LINE SMOOTH",
"286 184 OFFCURVE",
"277 167 OFFCURVE",
"277 160 CURVE SMOOTH",
"277 159 OFFCURVE",
"278 158 OFFCURVE",
"279 158 CURVE SMOOTH",
"303 164 OFFCURVE",
"332 170 OFFCURVE",
"361 177 CURVE",
"334 117 OFFCURVE",
"282 15 OFFCURVE",
"227 23 CURVE SMOOTH",
"223 24 OFFCURVE",
"217 20 OFFCURVE",
"217 17 CURVE SMOOTH",
"217 15 OFFCURVE",
"222 12 OFFCURVE",
"238 12 CURVE SMOOTH",
"328 12 OFFCURVE",
"372 107 OFFCURVE",
"402 186 CURVE",
"444 196 OFFCURVE",
"480 203 OFFCURVE",
"492 206 CURVE SMOOTH",
"498 207 OFFCURVE",
"497 220 OFFCURVE",
"490 220 CURVE SMOOTH",
"489 220 LINE",
"409 206 LINE",
"435 284 LINE SMOOTH",
"451 334 OFFCURVE",
"484 466 OFFCURVE",
"540 530 CURVE",
"657 483 OFFCURVE",
"772 379 OFFCURVE",
"772 247 CURVE SMOOTH",
"772 239 OFFCURVE",
"772 231 OFFCURVE",
"771 222 CURVE SMOOTH",
"748 17 OFFCURVE",
"551 -54 OFFCURVE",
"366 -54 CURVE SMOOTH",
"306 -54 OFFCURVE",
"247 -47 OFFCURVE",
"196 -34 CURVE SMOOTH",
"93 -8 OFFCURVE",
"44 42 OFFCURVE",
"44 97 CURVE SMOOTH",
"44 149 OFFCURVE",
"87 206 OFFCURVE",
"167 252 CURVE SMOOTH",
"172 255 OFFCURVE",
"175 259 OFFCURVE",
"175 261 CURVE SMOOTH",
"175 262 OFFCURVE",
"174 263 OFFCURVE",
"173 263 CURVE SMOOTH",
"171 263 OFFCURVE",
"169 262 OFFCURVE",
"166 261 CURVE SMOOTH",
"59 218 OFFCURVE",
"3 150 OFFCURVE",
"3 87 CURVE SMOOTH",
"3 25 OFFCURVE",
"57 -32 OFFCURVE",
"170 -56 CURVE SMOOTH",
"216 -66 OFFCURVE",
"272 -72 OFFCURVE",
"331 -72 CURVE SMOOTH"
);
}
);
width = 821;
}
);
note = Eth;
},
{
glyphname = F.ss01;
lastChange = "2021-11-09 11:01:09 +0000";
layers = (
{
layerId = "1A0EDF0C-2B61-4714-947B-2452868211A8";
paths = (
{
closed = 1;
nodes = (
"374 -50 OFFCURVE",
"474 76 OFFCURVE",
"539 213 CURVE SMOOTH",
"554 245 OFFCURVE",
"565 277 OFFCURVE",
"576 310 CURVE",
"601 310 OFFCURVE",
"624 309 OFFCURVE",
"644 309 CURVE SMOOTH",
"651 309 OFFCURVE",
"663 314 OFFCURVE",
"663 319 CURVE SMOOTH",
"663 322 OFFCURVE",
"659 325 OFFCURVE",
"647 326 CURVE SMOOTH",
"624 328 OFFCURVE",
"603 330 OFFCURVE",
"583 330 CURVE",
"589 349 LINE SMOOTH",
"602 385 OFFCURVE",
"632 459 OFFCURVE",
"666 509 CURVE",
"705 499 OFFCURVE",
"746 491 OFFCURVE",
"778 491 CURVE SMOOTH",
"792 491 OFFCURVE",
"804 492 OFFCURVE",
"814 496 CURVE SMOOTH",
"825 500 OFFCURVE",
"833 512 OFFCURVE",
"833 518 CURVE SMOOTH",
"833 520 OFFCURVE",
"832 522 OFFCURVE",
"829 522 CURVE SMOOTH",
"827 522 OFFCURVE",
"824 521 OFFCURVE",
"820 519 CURVE SMOOTH",
"809 514 OFFCURVE",
"799 508 OFFCURVE",
"776 508 CURVE SMOOTH",
"756 508 OFFCURVE",
"726 512 OFFCURVE",
"678 524 CURVE",
"692 542 OFFCURVE",
"707 555 OFFCURVE",
"722 558 CURVE SMOOTH",
"727 559 OFFCURVE",
"729 561 OFFCURVE",
"729 563 CURVE SMOOTH",
"729 567 OFFCURVE",
"723 570 OFFCURVE",
"714 570 CURVE SMOOTH",
"711 570 OFFCURVE",
"708 570 OFFCURVE",
"705 569 CURVE SMOOTH",
"688 565 OFFCURVE",
"671 550 OFFCURVE",
"655 529 CURVE",
"539 559 OFFCURVE",
"422 593 OFFCURVE",
"302 593 CURVE SMOOTH",
"276 593 OFFCURVE",
"250 592 OFFCURVE",
"223 588 CURVE SMOOTH",
"88 568 OFFCURVE",
"18 495 OFFCURVE",
"18 418 CURVE SMOOTH",
"18 342 OFFCURVE",
"88 262 OFFCURVE",
"232 229 CURVE SMOOTH",
"236 228 OFFCURVE",
"239 232 OFFCURVE",
"239 236 CURVE SMOOTH",
"239 238 OFFCURVE",
"238 240 OFFCURVE",
"235 241 CURVE SMOOTH",
"108 270 OFFCURVE",
"49 335 OFFCURVE",
"49 400 CURVE SMOOTH",
"49 466 OFFCURVE",
"112 531 OFFCURVE",
"230 553 CURVE SMOOTH",
"267 559 OFFCURVE",
"304 562 OFFCURVE",
"341 562 CURVE SMOOTH",
"369 562 OFFCURVE",
"396 561 OFFCURVE",
"423 558 CURVE SMOOTH",
"499 550 OFFCURVE",
"571 533 OFFCURVE",
"645 514 CURVE",
"613 466 OFFCURVE",
"587 401 OFFCURVE",
"574 372 CURVE SMOOTH",
"556 331 LINE",
"486 332 OFFCURVE",
"424 326 OFFCURVE",
"359 319 CURVE",
"348 315 OFFCURVE",
"336 309 OFFCURVE",
"336 302 CURVE SMOOTH",
"336 299 OFFCURVE",
"338 296 OFFCURVE",
"341 293 CURVE",
"390 301 OFFCURVE",
"472 308 OFFCURVE",
"547 310 CURVE",
"537 286 OFFCURVE",
"526 262 OFFCURVE",
"515 239 CURVE SMOOTH",
"455 115 OFFCURVE",
"354 -36 OFFCURVE",
"226 -36 CURVE SMOOTH",
"160 -36 OFFCURVE",
"116 15 OFFCURVE",
"98 60 CURVE SMOOTH",
"91 78 OFFCURVE",
"87 97 OFFCURVE",
"87 116 CURVE SMOOTH",
"87 135 OFFCURVE",
"91 153 OFFCURVE",
"98 171 CURVE",
"99 172 OFFCURVE",
"99 172 OFFCURVE",
"99 173 CURVE SMOOTH",
"99 176 OFFCURVE",
"95 178 OFFCURVE",
"92 178 CURVE SMOOTH",
"89 178 OFFCURVE",
"86 177 OFFCURVE",
"85 174 CURVE",
"74 153 OFFCURVE",
"69 117 OFFCURVE",
"69 94 CURVE SMOOTH",
"69 17 OFFCURVE",
"114 -50 OFFCURVE",
"222 -50 CURVE SMOOTH"
);
}
);
width = 665;
}
);
note = F;
},
{
glyphname = G.ss01;
lastChange = "2021-11-09 11:10:08 +0000";
layers = (
{
anchors = (
{
name = bottom;
position = "{299, -341}";
},
{
name = top;
position = "{760, 580}";
}
);
layerId = "1A0EDF0C-2B61-4714-947B-2452868211A8";
paths = (
{
closed = 1;
nodes = (
"470 -349 OFFCURVE",
"577 -223 OFFCURVE",
"642 -86 CURVE SMOOTH",
"677 -11 OFFCURVE",
"702 83 OFFCURVE",
"734 156 CURVE SMOOTH",
"752 195 OFFCURVE",
"772 254 OFFCURVE",
"819 264 CURVE SMOOTH",
"824 265 OFFCURVE",
"826 267 OFFCURVE",
"826 269 CURVE SMOOTH",
"826 273 OFFCURVE",
"820 276 OFFCURVE",
"811 276 CURVE SMOOTH",
"808 276 OFFCURVE",
"805 276 OFFCURVE",
"802 275 CURVE SMOOTH",
"778 269 OFFCURVE",
"755 249 OFFCURVE",
"734 216 CURVE SMOOTH",
"682 133 OFFCURVE",
"628 73 OFFCURVE",
"535 31 CURVE SMOOTH",
"480 6 OFFCURVE",
"432 -5 OFFCURVE",
"392 -5 CURVE SMOOTH",
"298 -5 OFFCURVE",
"247 55 OFFCURVE",
"247 139 CURVE SMOOTH",
"247 200 OFFCURVE",
"273 272 OFFCURVE",
"329 345 CURVE",
"349 344 OFFCURVE",
"369 344 OFFCURVE",
"389 344 CURVE SMOOTH",
"514 344 OFFCURVE",
"651 361 OFFCURVE",
"759 407 CURVE SMOOTH",
"811 430 OFFCURVE",
"854 481 OFFCURVE",
"854 522 CURVE SMOOTH",
"854 559 OFFCURVE",
"820 588 OFFCURVE",
"731 584 CURVE SMOOTH",
"575 576 OFFCURVE",
"404 500 OFFCURVE",
"293 363 CURVE",
"254 366 OFFCURVE",
"218 372 OFFCURVE",
"187 380 CURVE SMOOTH",
"122 397 OFFCURVE",
"94 430 OFFCURVE",
"94 463 CURVE SMOOTH",
"94 506 OFFCURVE",
"141 551 OFFCURVE",
"218 563 CURVE SMOOTH",
"240 567 OFFCURVE",
"263 568 OFFCURVE",
"286 568 CURVE SMOOTH",
"339 568 OFFCURVE",
"389 560 OFFCURVE",
"413 550 CURVE SMOOTH",
"417 548 OFFCURVE",
"421 551 OFFCURVE",
"421 555 CURVE SMOOTH",
"421 557 OFFCURVE",
"420 559 OFFCURVE",
"417 560 CURVE SMOOTH",
"391 571 OFFCURVE",
"331 581 OFFCURVE",
"272 581 CURVE SMOOTH",
"250 581 OFFCURVE",
"227 579 OFFCURVE",
"207 576 CURVE SMOOTH",
"116 562 OFFCURVE",
"54 512 OFFCURVE",
"54 463 CURVE SMOOTH",
"54 425 OFFCURVE",
"89 388 OFFCURVE",
"174 366 CURVE SMOOTH",
"207 357 OFFCURVE",
"244 352 OFFCURVE",
"281 348 CURVE",
"232 283 OFFCURVE",
"210 216 OFFCURVE",
"210 157 CURVE SMOOTH",
"210 54 OFFCURVE",
"277 -24 OFFCURVE",
"393 -24 CURVE SMOOTH",
"438 -24 OFFCURVE",
"490 -12 OFFCURVE",
"548 14 CURVE SMOOTH",
"607 41 OFFCURVE",
"657 87 OFFCURVE",
"700 138 CURVE",
"676 84 LINE SMOOTH",
"657 41 OFFCURVE",
"639 -2 OFFCURVE",
"618 -44 CURVE SMOOTH",
"560 -165 OFFCURVE",
"450 -335 OFFCURVE",
"322 -335 CURVE SMOOTH",
"256 -335 OFFCURVE",
"212 -284 OFFCURVE",
"195 -239 CURVE SMOOTH",
"187 -221 OFFCURVE",
"183 -202 OFFCURVE",
"183 -183 CURVE SMOOTH",
"183 -165 OFFCURVE",
"187 -146 OFFCURVE",
"195 -128 CURVE",
"195 -126 LINE SMOOTH",
"195 -123 OFFCURVE",
"192 -121 OFFCURVE",
"188 -121 CURVE SMOOTH",
"185 -121 OFFCURVE",
"183 -122 OFFCURVE",
"181 -125 CURVE SMOOTH",
"170 -146 OFFCURVE",
"165 -182 OFFCURVE",
"165 -205 CURVE SMOOTH",
"165 -282 OFFCURVE",
"210 -349 OFFCURVE",
"318 -349 CURVE SMOOTH"
);
},
{
closed = 1;
nodes = (
"346 366 LINE SMOOTH",
"443 483 OFFCURVE",
"577 562 OFFCURVE",
"724 569 CURVE SMOOTH",
"790 572 OFFCURVE",
"817 551 OFFCURVE",
"817 522 CURVE SMOOTH",
"817 490 OFFCURVE",
"783 449 OFFCURVE",
"733 426 CURVE SMOOTH",
"641 383 OFFCURVE",
"501 360 OFFCURVE",
"371 360 CURVE SMOOTH",
"341 360 LINE"
);
}
);
width = 774;
}
);
note = G;
},
{
glyphname = H.ss01;
lastChange = "2021-11-09 11:10:08 +0000";
layers = (
{
anchors = (
{
name = bottom;
position = "{447, 0}";
},
{
name = center;
position = "{447, 290}";
},
{
name = top;
position = "{768, 580}";
},
{
name = topleft;
position = "{20, 580}";
}
);
layerId = "1A0EDF0C-2B61-4714-947B-2452868211A8";
paths = (
{
closed = 1;
nodes = (
"147 -107 OFFCURVE",
"179 -102 OFFCURVE",
"214 -92 CURVE SMOOTH",
"344 -54 OFFCURVE",
"466 80 OFFCURVE",
"547 216 CURVE",
"733 212 LINE",
"723 175 OFFCURVE",
"716 137 OFFCURVE",
"716 101 CURVE SMOOTH",
"716 31 OFFCURVE",
"741 -28 OFFCURVE",
"807 -44 CURVE SMOOTH",
"815 -46 OFFCURVE",
"822 -47 OFFCURVE",
"830 -47 CURVE SMOOTH",
"855 -47 OFFCURVE",
"880 -36 OFFCURVE",
"901 -12 CURVE SMOOTH",
"905 -8 OFFCURVE",
"899 -4 OFFCURVE",
"893 -4 CURVE SMOOTH",
"891 -4 OFFCURVE",
"889 -4 OFFCURVE",
"888 -6 CURVE",
"869 -27 OFFCURVE",
"848 -35 OFFCURVE",
"828 -35 CURVE SMOOTH",
"822 -35 OFFCURVE",
"816 -34 OFFCURVE",
"810 -33 CURVE SMOOTH",
"764 -22 OFFCURVE",
"746 21 OFFCURVE",
"746 78 CURVE SMOOTH",
"746 118 OFFCURVE",
"755 164 OFFCURVE",
"768 212 CURVE",
"812 213 OFFCURVE",
"851 218 OFFCURVE",
"862 235 CURVE SMOOTH",
"865 239 OFFCURVE",
"861 243 OFFCURVE",
"857 243 CURVE SMOOTH",
"855 243 OFFCURVE",
"853 243 OFFCURVE",
"852 241 CURVE SMOOTH",
"845 229 OFFCURVE",
"812 224 OFFCURVE",
"772 223 CURVE",
"776 236 OFFCURVE",
"780 250 OFFCURVE",
"785 263 CURVE SMOOTH",
"833 397 OFFCURVE",
"923 537 OFFCURVE",
"960 587 CURVE SMOOTH",
"964 592 OFFCURVE",
"959 594 OFFCURVE",
"952 594 CURVE SMOOTH",
"941 594 OFFCURVE",
"924 589 OFFCURVE",
"917 580 CURVE SMOOTH",
"886 539 OFFCURVE",
"785 378 OFFCURVE",
"741 236 CURVE SMOOTH",
"737 223 LINE",
"673 223 OFFCURVE",
"602 228 OFFCURVE",
"580 230 CURVE SMOOTH",
"556 232 LINE",
"586 284 OFFCURVE",
"609 335 OFFCURVE",
"625 382 CURVE SMOOTH",
"638 422 OFFCURVE",
"644 455 OFFCURVE",
"644 482 CURVE SMOOTH",
"644 564 OFFCURVE",
"592 596 OFFCURVE",
"522 596 CURVE SMOOTH",
"439 596 OFFCURVE",
"331 549 OFFCURVE",
"264 487 CURVE SMOOTH",
"238 463 OFFCURVE",
"202 409 OFFCURVE",
"202 363 CURVE SMOOTH",
"202 339 OFFCURVE",
"212 318 OFFCURVE",
"237 304 CURVE SMOOTH",
"249 297 OFFCURVE",
"265 292 OFFCURVE",
"286 291 CURVE SMOOTH",
"292 291 OFFCURVE",
"302 296 OFFCURVE",
"302 298 CURVE SMOOTH",
"302 299 OFFCURVE",
"301 299 OFFCURVE",
"299 299 CURVE SMOOTH",
"275 300 OFFCURVE",
"259 306 OFFCURVE",
"248 315 CURVE SMOOTH",
"235 325 OFFCURVE",
"230 339 OFFCURVE",
"230 355 CURVE SMOOTH",
"230 399 OFFCURVE",
"273 456 OFFCURVE",
"297 480 CURVE SMOOTH",
"357 541 OFFCURVE",
"446 585 OFFCURVE",
"514 585 CURVE SMOOTH",
"567 585 OFFCURVE",
"607 557 OFFCURVE",
"607 487 CURVE SMOOTH",
"607 461 OFFCURVE",
"602 428 OFFCURVE",
"589 389 CURVE SMOOTH",
"573 341 OFFCURVE",
"550 287 OFFCURVE",
"520 233 CURVE",
"498 234 OFFCURVE",
"475 234 OFFCURVE",
"451 234 CURVE SMOOTH",
"332 234 OFFCURVE",
"204 224 OFFCURVE",
"125 188 CURVE SMOOTH",
"19 140 OFFCURVE",
"-32 66 OFFCURVE",
"-32 5 CURVE SMOOTH",
"-32 -58 OFFCURVE",
"25 -107 OFFCURVE",
"119 -107 CURVE SMOOTH"
);
},
{
closed = 1;
nodes = (
"48 -91 OFFCURVE",
"-1 -48 OFFCURVE",
"-1 7 CURVE SMOOTH",
"-1 58 OFFCURVE",
"44 120 OFFCURVE",
"131 163 CURVE SMOOTH",
"226 210 OFFCURVE",
"381 217 OFFCURVE",
"511 216 CURVE",
"435 85 OFFCURVE",
"324 -42 OFFCURVE",
"205 -79 CURVE SMOOTH",
"177 -87 OFFCURVE",
"151 -91 OFFCURVE",
"128 -91 CURVE SMOOTH"
);
}
);
width = 893;
}
);
note = H;
},
{
glyphname = I.ss01;
lastChange = "2021-11-09 11:10:08 +0000";
layers = (
{
anchors = (
{
name = bottom;
position = "{174, -57}";
},
{
name = ogonek;
position = "{192, -49}";
},
{
name = top;
position = "{595, 570}";
},
{
name = topleft;
position = "{20, 580}";
}
);
layerId = "1A0EDF0C-2B61-4714-947B-2452868211A8";
paths = (
{
closed = 1;
nodes = (
"335 -57 OFFCURVE",
"429 78 OFFCURVE",
"484 222 CURVE SMOOTH",
"501 267 OFFCURVE",
"510 314 OFFCURVE",
"523 361 CURVE SMOOTH",
"536 408 OFFCURVE",
"566 513 OFFCURVE",
"604 550 CURVE",
"607 552 OFFCURVE",
"608 555 OFFCURVE",
"608 558 CURVE SMOOTH",
"608 561 LINE SMOOTH",
"608 563 OFFCURVE",
"607 565 OFFCURVE",
"604 565 CURVE",
"595 570 OFFCURVE",
"580 573 OFFCURVE",
"562 573 CURVE SMOOTH",
"465 573 OFFCURVE",
"269 498 OFFCURVE",
"269 418 CURVE SMOOTH",
"269 384 OFFCURVE",
"300 352 OFFCURVE",
"352 350 CURVE",
"358 349 OFFCURVE",
"356 360 OFFCURVE",
"350 360 CURVE SMOOTH",
"317 364 OFFCURVE",
"301 381 OFFCURVE",
"301 404 CURVE SMOOTH",
"301 407 OFFCURVE",
"301 411 OFFCURVE",
"302 414 CURVE",
"314 485 OFFCURVE",
"488 561 OFFCURVE",
"562 561 CURVE SMOOTH",
"573 561 OFFCURVE",
"583 559 OFFCURVE",
"588 555 CURVE",
"548 515 OFFCURVE",
"519 422 OFFCURVE",
"505 382 CURVE SMOOTH",
"489 337 OFFCURVE",
"474 291 OFFCURVE",
"457 246 CURVE SMOOTH",
"406 117 OFFCURVE",
"315 -43 OFFCURVE",
"185 -43 CURVE SMOOTH",
"122 -43 OFFCURVE",
"75 4 OFFCURVE",
"55 46 CURVE SMOOTH",
"45 68 OFFCURVE",
"39 91 OFFCURVE",
"39 114 CURVE SMOOTH",
"39 128 OFFCURVE",
"41 143 OFFCURVE",
"46 157 CURVE",
"46 159 LINE SMOOTH",
"46 162 OFFCURVE",
"43 164 OFFCURVE",
"39 164 CURVE SMOOTH",
"36 164 OFFCURVE",
"33 163 OFFCURVE",
"32 160 CURVE SMOOTH",
"25 144 OFFCURVE",
"22 118 OFFCURVE",
"22 97 CURVE SMOOTH",
"22 15 OFFCURVE",
"68 -57 OFFCURVE",
"174 -57 CURVE SMOOTH"
);
}
);
width = 531;
}
);
note = I;
},
{
glyphname = J.ss01;
lastChange = "2021-11-09 11:01:09 +0000";
layers = (
{
anchors = (
{
name = bottom;
position = "{340, 0}";
},
{
name = top;
position = "{773, 580}";
}
);
layerId = "1A0EDF0C-2B61-4714-947B-2452868211A8";
paths = (
{
closed = 1;
nodes = (
"389 -225 OFFCURVE",
"490 -113 OFFCURVE",
"558 15 CURVE SMOOTH",
"619 129 OFFCURVE",
"655 264 OFFCURVE",
"696 370 CURVE SMOOTH",
"722 437 OFFCURVE",
"765 555 OFFCURVE",
"827 576 CURVE SMOOTH",
"832 578 OFFCURVE",
"838 582 OFFCURVE",
"838 585 CURVE SMOOTH",
"838 587 OFFCURVE",
"834 589 OFFCURVE",
"824 589 CURVE SMOOTH",
"813 589 OFFCURVE",
"802 583 OFFCURVE",
"791 574 CURVE",
"790 579 OFFCURVE",
"786 584 OFFCURVE",
"782 585 CURVE SMOOTH",
"772 588 OFFCURVE",
"760 589 OFFCURVE",
"748 589 CURVE SMOOTH",
"614 589 OFFCURVE",
"371 421 OFFCURVE",
"371 304 CURVE SMOOTH",
"371 292 OFFCURVE",
"373 280 OFFCURVE",
"379 269 CURVE SMOOTH",
"393 240 OFFCURVE",
"421 224 OFFCURVE",
"463 224 CURVE SMOOTH",
"476 224 OFFCURVE",
"491 226 OFFCURVE",
"508 229 CURVE SMOOTH",
"513 230 OFFCURVE",
"515 233 OFFCURVE",
"515 235 CURVE SMOOTH",
"515 238 OFFCURVE",
"513 240 OFFCURVE",
"509 240 CURVE SMOOTH",
"508 240 LINE SMOOTH",
"500 240 OFFCURVE",
"492 238 OFFCURVE",
"485 238 CURVE SMOOTH",
"443 238 OFFCURVE",
"414 259 OFFCURVE",
"410 288 CURVE SMOOTH",
"391 425 OFFCURVE",
"650 573 OFFCURVE",
"750 573 CURVE SMOOTH",
"763 573 OFFCURVE",
"773 571 OFFCURVE",
"780 566 CURVE",
"782 566 LINE",
"734 518 OFFCURVE",
"691 413 OFFCURVE",
"673 369 CURVE SMOOTH",
"630 260 OFFCURVE",
"585 135 OFFCURVE",
"525 28 CURVE SMOOTH",
"464 -80 OFFCURVE",
"368 -206 OFFCURVE",
"231 -206 CURVE SMOOTH",
"185 -206 OFFCURVE",
"139 -193 OFFCURVE",
"99 -157 CURVE SMOOTH",
"56 -119 OFFCURVE",
"36 -62 OFFCURVE",
"36 -3 CURVE SMOOTH",
"36 65 OFFCURVE",
"63 137 OFFCURVE",
"114 189 CURVE SMOOTH",
"153 229 OFFCURVE",
"209 251 OFFCURVE",
"259 251 CURVE SMOOTH",
"321 251 OFFCURVE",
"374 216 OFFCURVE",
"374 139 CURVE SMOOTH",
"374 98 OFFCURVE",
"358 56 OFFCURVE",
"338 27 CURVE SMOOTH",
"320 1 OFFCURVE",
"285 -20 OFFCURVE",
"253 -20 CURVE SMOOTH",
"240 -20 OFFCURVE",
"228 -17 OFFCURVE",
"218 -9 CURVE SMOOTH",
"214 -6 OFFCURVE",
"209 -10 OFFCURVE",
"209 -14 CURVE SMOOTH",
"209 -15 OFFCURVE",
"209 -17 OFFCURVE",
"211 -18 CURVE SMOOTH",
"223 -27 OFFCURVE",
"237 -31 OFFCURVE",
"253 -31 CURVE SMOOTH",
"293 -31 OFFCURVE",
"339 -4 OFFCURVE",
"359 22 CURVE SMOOTH",
"381 52 OFFCURVE",
"398 96 OFFCURVE",
"398 138 CURVE SMOOTH",
"398 225 OFFCURVE",
"333 261 OFFCURVE",
"259 261 CURVE SMOOTH",
"201 261 OFFCURVE",
"138 238 OFFCURVE",
"99 199 CURVE SMOOTH",
"47 147 OFFCURVE",
"12 70 OFFCURVE",
"12 -7 CURVE SMOOTH",
"12 -66 OFFCURVE",
"34 -126 OFFCURVE",
"85 -172 CURVE SMOOTH",
"126 -208 OFFCURVE",
"176 -225 OFFCURVE",
"229 -225 CURVE SMOOTH"
);
}
);
width = 680;
}
);
note = J;
},
{
glyphname = K.ss01;
lastChange = "2021-11-09 11:10:08 +0000";
layers = (
{
anchors = (
{
name = bottom;
position = "{547, 0}";
},
{
name = top;
position = "{506, 580}";
}
);
layerId = "1A0EDF0C-2B61-4714-947B-2452868211A8";
paths = (
{
closed = 1;
nodes = (
"335 -57 OFFCURVE",
"429 78 OFFCURVE",
"484 222 CURVE SMOOTH",
"485 226 OFFCURVE",
"486 229 OFFCURVE",
"488 233 CURVE",
"508 217 OFFCURVE",
"527 200 OFFCURVE",
"544 183 CURVE SMOOTH",
"597 134 OFFCURVE",
"720 7 OFFCURVE",
"779 -28 CURVE SMOOTH",
"804 -43 OFFCURVE",
"832 -50 OFFCURVE",
"858 -50 CURVE SMOOTH",
"920 -50 OFFCURVE",
"974 -10 OFFCURVE",
"974 61 CURVE SMOOTH",
"974 73 OFFCURVE",
"973 87 OFFCURVE",
"969 101 CURVE SMOOTH",
"957 149 OFFCURVE",
"921 178 OFFCURVE",
"893 193 CURVE SMOOTH",
"889 195 OFFCURVE",
"884 192 OFFCURVE",
"884 188 CURVE SMOOTH",
"884 186 OFFCURVE",
"884 185 OFFCURVE",
"886 184 CURVE SMOOTH",
"914 164 OFFCURVE",
"942 116 OFFCURVE",
"948 91 CURVE SMOOTH",
"952 76 OFFCURVE",
"953 63 OFFCURVE",
"953 51 CURVE SMOOTH",
"953 -2 OFFCURVE",
"920 -30 OFFCURVE",
"876 -30 CURVE SMOOTH",
"853 -30 OFFCURVE",
"828 -23 OFFCURVE",
"804 -8 CURVE SMOOTH",
"731 36 OFFCURVE",
"635 142 OFFCURVE",
"560 208 CURVE SMOOTH",
"547 220 OFFCURVE",
"532 232 OFFCURVE",
"517 243 CURVE",
"557 322 OFFCURVE",
"664 416 OFFCURVE",
"746 459 CURVE SMOOTH",
"805 489 OFFCURVE",
"870 517 OFFCURVE",
"937 532 CURVE SMOOTH",
"958 536 OFFCURVE",
"977 539 OFFCURVE",
"994 539 CURVE SMOOTH",
"1002 539 OFFCURVE",
"1009 538 OFFCURVE",
"1016 537 CURVE SMOOTH",
"1033 533 OFFCURVE",
"1044 526 OFFCURVE",
"1039 511 CURVE",
"1039 509 OFFCURVE",
"1037 506 OFFCURVE",
"1036 504 CURVE",
"1036 502 OFFCURVE",
"1036 501 OFFCURVE",
"1038 500 CURVE",
"1044 499 OFFCURVE",
"1046 508 OFFCURVE",
"1047 511 CURVE SMOOTH",
"1053 531 OFFCURVE",
"1034 554 OFFCURVE",
"1012 559 CURVE SMOOTH",
"1000 561 OFFCURVE",
"986 563 OFFCURVE",
"972 563 CURVE SMOOTH",
"950 563 OFFCURVE",
"928 560 OFFCURVE",
"908 556 CURVE SMOOTH",
"843 541 OFFCURVE",
"782 510 OFFCURVE",
"728 477 CURVE SMOOTH",
"657 433 OFFCURVE",
"545 333 OFFCURVE",
"508 250 CURVE",
"496 258 LINE",
"506 292 OFFCURVE",
"513 326 OFFCURVE",
"523 361 CURVE SMOOTH",
"536 408 OFFCURVE",
"566 513 OFFCURVE",
"604 550 CURVE",
"607 552 OFFCURVE",
"608 555 OFFCURVE",
"608 558 CURVE SMOOTH",
"608 561 LINE SMOOTH",
"608 563 OFFCURVE",
"607 565 OFFCURVE",
"604 565 CURVE",
"595 570 OFFCURVE",
"580 573 OFFCURVE",
"562 573 CURVE SMOOTH",
"465 573 OFFCURVE",
"269 498 OFFCURVE",
"269 418 CURVE SMOOTH",
"269 384 OFFCURVE",
"300 352 OFFCURVE",
"352 350 CURVE",
"358 349 OFFCURVE",
"356 360 OFFCURVE",
"350 360 CURVE SMOOTH",
"317 364 OFFCURVE",
"301 381 OFFCURVE",
"301 404 CURVE SMOOTH",
"301 407 OFFCURVE",
"301 411 OFFCURVE",
"302 414 CURVE",
"314 485 OFFCURVE",
"488 561 OFFCURVE",
"562 561 CURVE SMOOTH",
"573 561 OFFCURVE",
"583 559 OFFCURVE",
"588 555 CURVE",
"548 515 OFFCURVE",
"519 421 OFFCURVE",
"505 382 CURVE SMOOTH",
"467 274 LINE",
"445 285 OFFCURVE",
"423 291 OFFCURVE",
"400 291 CURVE SMOOTH",
"387 291 OFFCURVE",
"373 289 OFFCURVE",
"359 283 CURVE SMOOTH",
"339 274 OFFCURVE",
"323 259 OFFCURVE",
"314 233 CURVE SMOOTH",
"312 229 OFFCURVE",
"312 225 OFFCURVE",
"312 222 CURVE SMOOTH",
"312 217 OFFCURVE",
"314 214 OFFCURVE",
"316 214 CURVE SMOOTH",
"320 214 OFFCURVE",
"325 219 OFFCURVE",
"331 233 CURVE SMOOTH",
"339 252 OFFCURVE",
"350 264 OFFCURVE",
"362 271 CURVE SMOOTH",
"371 277 OFFCURVE",
"380 279 OFFCURVE",
"391 279 CURVE SMOOTH",
"412 279 OFFCURVE",
"435 268 OFFCURVE",
"459 253 CURVE",
"457 246 LINE SMOOTH",
"419 113 OFFCURVE",
"315 -43 OFFCURVE",
"185 -43 CURVE SMOOTH",
"122 -43 OFFCURVE",
"75 4 OFFCURVE",
"55 46 CURVE SMOOTH",
"45 68 OFFCURVE",
"39 91 OFFCURVE",
"39 114 CURVE SMOOTH",
"39 128 OFFCURVE",
"41 143 OFFCURVE",
"46 157 CURVE",
"46 159 LINE SMOOTH",
"46 162 OFFCURVE",
"43 164 OFFCURVE",
"39 164 CURVE SMOOTH",
"36 164 OFFCURVE",
"33 163 OFFCURVE",
"32 160 CURVE SMOOTH",
"25 144 OFFCURVE",
"22 118 OFFCURVE",
"22 97 CURVE SMOOTH",
"22 15 OFFCURVE",
"68 -57 OFFCURVE",
"174 -57 CURVE SMOOTH"
);
}
);
width = 1012;
}
);
note = K;
},
{
glyphname = L.ss01;
lastChange = "2021-11-09 11:10:08 +0000";
layers = (
{
anchors = (
{
name = bottom;
position = "{579, -101}";
},
{
name = center;
position = "{324, 290}";
},
{
name = top;
position = "{830, 580}";
},
{
name = topright;
position = "{929, 580}";
}
);
layerId = "1A0EDF0C-2B61-4714-947B-2452868211A8";
paths = (
{
closed = 1;
nodes = (
"869 -146 OFFCURVE",
"911 -124 OFFCURVE",
"911 -73 CURVE SMOOTH",
"911 -64 OFFCURVE",
"910 -54 OFFCURVE",
"907 -43 CURVE SMOOTH",
"906 -37 OFFCURVE",
"895 -42 OFFCURVE",
"896 -48 CURVE SMOOTH",
"903 -90 OFFCURVE",
"867 -117 OFFCURVE",
"828 -117 CURVE SMOOTH",
"722 -117 OFFCURVE",
"568 -32 OFFCURVE",
"465 13 CURVE",
"511 55 OFFCURVE",
"544 105 OFFCURVE",
"576 161 CURVE SMOOTH",
"590 186 OFFCURVE",
"604 217 OFFCURVE",
"619 251 CURVE",
"733 295 OFFCURVE",
"849 380 OFFCURVE",
"880 499 CURVE SMOOTH",
"883 509 OFFCURVE",
"884 518 OFFCURVE",
"884 527 CURVE SMOOTH",
"884 563 OFFCURVE",
"861 583 OFFCURVE",
"830 583 CURVE SMOOTH",
"805 583 OFFCURVE",
"774 569 OFFCURVE",
"747 540 CURVE SMOOTH",
"695 485 OFFCURVE",
"632 355 OFFCURVE",
"579 251 CURVE",
"566 247 OFFCURVE",
"553 244 OFFCURVE",
"540 241 CURVE SMOOTH",
"497 231 OFFCURVE",
"451 226 OFFCURVE",
"405 226 CURVE SMOOTH",
"290 226 OFFCURVE",
"177 261 OFFCURVE",
"137 356 CURVE SMOOTH",
"130 373 OFFCURVE",
"126 389 OFFCURVE",
"126 406 CURVE SMOOTH",
"126 469 OFFCURVE",
"179 525 OFFCURVE",
"278 525 CURVE SMOOTH",
"331 525 OFFCURVE",
"394 507 OFFCURVE",
"426 483 CURVE",
"432 480 OFFCURVE",
"431 489 OFFCURVE",
"426 493 CURVE SMOOTH",
"391 518 OFFCURVE",
"334 535 OFFCURVE",
"278 535 CURVE SMOOTH",
"169 535 OFFCURVE",
"93 464 OFFCURVE",
"93 391 CURVE SMOOTH",
"93 376 OFFCURVE",
"96 361 OFFCURVE",
"102 347 CURVE SMOOTH",
"144 248 OFFCURVE",
"271 213 OFFCURVE",
"397 213 CURVE SMOOTH",
"449 213 OFFCURVE",
"501 218 OFFCURVE",
"547 229 CURVE SMOOTH",
"571 235 LINE",
"556 205 OFFCURVE",
"542 179 OFFCURVE",
"530 158 CURVE SMOOTH",
"503 111 OFFCURVE",
"469 66 OFFCURVE",
"433 28 CURVE",
"331 77 OFFCURVE",
"176 170 OFFCURVE",
"85 170 CURVE SMOOTH",
"20 170 OFFCURVE",
"-14 122 OFFCURVE",
"-14 68 CURVE SMOOTH",
"-14 -7 OFFCURVE",
"49 -95 OFFCURVE",
"186 -95 CURVE SMOOTH",
"290 -95 OFFCURVE",
"377 -59 OFFCURVE",
"444 -5 CURVE",
"528 -46 OFFCURVE",
"692 -146 OFFCURVE",
"810 -146 CURVE SMOOTH"
);
},
{
closed = 1;
nodes = (
"76 -80 OFFCURVE",
"11 13 OFFCURVE",
"11 83 CURVE SMOOTH",
"11 125 OFFCURVE",
"35 159 OFFCURVE",
"85 159 CURVE SMOOTH",
"92 159 OFFCURVE",
"98 158 OFFCURVE",
"105 157 CURVE SMOOTH",
"170 148 OFFCURVE",
"336 53 OFFCURVE",
"414 11 CURVE",
"355 -42 OFFCURVE",
"280 -80 OFFCURVE",
"191 -80 CURVE SMOOTH"
);
},
{
closed = 1;
nodes = (
"642 306 OFFCURVE",
"658 344 OFFCURVE",
"674 380 CURVE SMOOTH",
"699 434 OFFCURVE",
"760 566 OFFCURVE",
"826 566 CURVE SMOOTH",
"846 566 OFFCURVE",
"857 549 OFFCURVE",
"857 523 CURVE SMOOTH",
"857 519 OFFCURVE",
"857 514 OFFCURVE",
"856 509 CURVE SMOOTH",
"843 400 OFFCURVE",
"733 316 OFFCURVE",
"627 270 CURVE"
);
}
);
width = 647;
}
);
note = L;
},
{
glyphname = M.ss01;
lastChange = "2021-11-09 11:01:09 +0000";
layers = (
{
layerId = "1A0EDF0C-2B61-4714-947B-2452868211A8";
paths = (
{
closed = 1;
nodes = (
"1034 -266 OFFCURVE",
"1043 -264 OFFCURVE",
"1054 -260 CURVE SMOOTH",
"1063 -256 OFFCURVE",
"1067 -250 OFFCURVE",
"1067 -246 CURVE SMOOTH",
"1067 -242 OFFCURVE",
"1064 -239 OFFCURVE",
"1059 -239 CURVE SMOOTH",
"1057 -239 OFFCURVE",
"1055 -240 OFFCURVE",
"1052 -241 CURVE SMOOTH",
"1043 -245 OFFCURVE",
"1035 -246 OFFCURVE",
"1028 -246 CURVE SMOOTH",
"1005 -246 OFFCURVE",
"989 -229 OFFCURVE",
"979 -199 CURVE SMOOTH",
"969 -169 OFFCURVE",
"965 -122 OFFCURVE",
"965 -80 CURVE SMOOTH",
"965 -56 OFFCURVE",
"966 -33 OFFCURVE",
"968 -16 CURVE SMOOTH",
"993 209 OFFCURVE",
"1059 366 OFFCURVE",
"1154 569 CURVE SMOOTH",
"1160 581 OFFCURVE",
"1143 595 OFFCURVE",
"1130 595 CURVE SMOOTH",
"1126 595 OFFCURVE",
"1123 593 OFFCURVE",
"1121 591 CURVE",
"1057 442 OFFCURVE",
"913 245 OFFCURVE",
"800 133 CURVE SMOOTH",
"762 95 OFFCURVE",
"730 77 OFFCURVE",
"704 77 CURVE SMOOTH",
"653 77 OFFCURVE",
"624 168 OFFCURVE",
"617 273 CURVE SMOOTH",
"616 289 OFFCURVE",
"616 305 OFFCURVE",
"616 321 CURVE SMOOTH",
"616 411 OFFCURVE",
"626 508 OFFCURVE",
"631 557 CURVE",
"645 577 OFFCURVE",
"598 577 OFFCURVE",
"588 576 CURVE",
"488 575 OFFCURVE",
"283 497 OFFCURVE",
"283 416 CURVE SMOOTH",
"283 382 OFFCURVE",
"311 353 OFFCURVE",
"360 352 CURVE",
"366 351 OFFCURVE",
"366 362 OFFCURVE",
"360 362 CURVE SMOOTH",
"329 365 OFFCURVE",
"313 381 OFFCURVE",
"313 403 CURVE SMOOTH",
"313 407 OFFCURVE",
"314 412 OFFCURVE",
"315 416 CURVE SMOOTH",
"333 487 OFFCURVE",
"507 560 OFFCURVE",
"581 562 CURVE SMOOTH",
"591 562 OFFCURVE",
"603 564 OFFCURVE",
"609 561 CURVE",
"578 527 OFFCURVE",
"544 449 OFFCURVE",
"516 385 CURVE SMOOTH",
"497 340 OFFCURVE",
"478 294 OFFCURVE",
"457 249 CURVE SMOOTH",
"396 120 OFFCURVE",
"292 -42 OFFCURVE",
"160 -42 CURVE SMOOTH",
"99 -42 OFFCURVE",
"56 5 OFFCURVE",
"39 46 CURVE SMOOTH",
"32 64 OFFCURVE",
"28 83 OFFCURVE",
"28 102 CURVE SMOOTH",
"28 121 OFFCURVE",
"32 139 OFFCURVE",
"39 158 CURVE",
"39 158 OFFCURVE",
"40 159 OFFCURVE",
"40 160 CURVE SMOOTH",
"40 163 OFFCURVE",
"37 165 OFFCURVE",
"33 165 CURVE SMOOTH",
"30 165 OFFCURVE",
"27 163 OFFCURVE",
"26 160 CURVE",
"15 139 OFFCURVE",
"9 102 OFFCURVE",
"9 79 CURVE SMOOTH",
"10 5 OFFCURVE",
"52 -56 OFFCURVE",
"150 -56 CURVE SMOOTH",
"311 -56 OFFCURVE",
"415 80 OFFCURVE",
"482 225 CURVE SMOOTH",
"503 270 OFFCURVE",
"516 317 OFFCURVE",
"532 364 CURVE SMOOTH",
"545 398 OFFCURVE",
"568 463 OFFCURVE",
"595 510 CURVE",
"588 463 OFFCURVE",
"581 396 OFFCURVE",
"581 327 CURVE SMOOTH",
"581 195 OFFCURVE",
"606 59 OFFCURVE",
"701 59 CURVE SMOOTH",
"741 59 OFFCURVE",
"773 75 OFFCURVE",
"818 120 CURVE SMOOTH",
"904 205 OFFCURVE",
"1003 343 OFFCURVE",
"1069 466 CURVE",
"1001 296 OFFCURVE",
"943 118 OFFCURVE",
"933 -59 CURVE SMOOTH",
"930 -113 OFFCURVE",
"932 -236 OFFCURVE",
"1006 -263 CURVE SMOOTH",
"1012 -265 OFFCURVE",
"1018 -266 OFFCURVE",
"1025 -266 CURVE SMOOTH"
);
}
);
width = 1092;
}
);
note = M;
},
{
glyphname = N.ss01;
lastChange = "2021-11-09 11:10:08 +0000";
layers = (
{
anchors = (
{
name = bottom;
position = "{546, 0}";
},
{
name = top;
position = "{828, 580}";
}
);
layerId = "1A0EDF0C-2B61-4714-947B-2452868211A8";
paths = (
{
closed = 1;
nodes = (
"324 -50 OFFCURVE",
"424 67 OFFCURVE",
"489 204 CURVE SMOOTH",
"513 255 OFFCURVE",
"547 376 OFFCURVE",
"589 462 CURVE",
"585 446 OFFCURVE",
"584 430 OFFCURVE",
"584 414 CURVE SMOOTH",
"584 299 OFFCURVE",
"676 215 OFFCURVE",
"735 116 CURVE SMOOTH",
"746 97 OFFCURVE",
"762 64 OFFCURVE",
"762 33 CURVE SMOOTH",
"762 18 OFFCURVE",
"758 3 OFFCURVE",
"747 -8 CURVE SMOOTH",
"740 -15 OFFCURVE",
"745 -23 OFFCURVE",
"753 -23 CURVE SMOOTH",
"757 -23 OFFCURVE",
"761 -21 OFFCURVE",
"765 -17 CURVE SMOOTH",
"775 -7 OFFCURVE",
"775 3 OFFCURVE",
"778 16 CURVE SMOOTH",
"795 101 OFFCURVE",
"821 197 OFFCURVE",
"852 287 CURVE SMOOTH",
"882 374 OFFCURVE",
"939 516 OFFCURVE",
"1013 572 CURVE SMOOTH",
"1020 578 OFFCURVE",
"1027 580 OFFCURVE",
"1032 580 CURVE SMOOTH",
"1034 580 OFFCURVE",
"1036 580 OFFCURVE",
"1037 579 CURVE",
"1042 577 OFFCURVE",
"1043 572 OFFCURVE",
"1043 566 CURVE SMOOTH",
"1043 554 OFFCURVE",
"1036 537 OFFCURVE",
"1034 532 CURVE SMOOTH",
"1031 526 OFFCURVE",
"1036 527 OFFCURVE",
"1039 530 CURVE SMOOTH",
"1048 539 OFFCURVE",
"1058 556 OFFCURVE",
"1058 572 CURVE SMOOTH",
"1058 577 OFFCURVE",
"1056 582 OFFCURVE",
"1053 587 CURVE SMOOTH",
"1049 593 OFFCURVE",
"1038 596 OFFCURVE",
"1026 596 CURVE SMOOTH",
"1012 596 OFFCURVE",
"996 592 OFFCURVE",
"983 582 CURVE SMOOTH",
"922 536 OFFCURVE",
"875 417 OFFCURVE",
"832 291 CURVE SMOOTH",
"808 222 OFFCURVE",
"788 152 OFFCURVE",
"776 91 CURVE",
"770 124 OFFCURVE",
"757 153 OFFCURVE",
"750 165 CURVE SMOOTH",
"690 266 OFFCURVE",
"601 365 OFFCURVE",
"601 449 CURVE SMOOTH",
"601 459 OFFCURVE",
"602 469 OFFCURVE",
"605 479 CURVE SMOOTH",
"609 495 OFFCURVE",
"615 507 OFFCURVE",
"621 518 CURVE",
"637 539 OFFCURVE",
"654 554 OFFCURVE",
"671 558 CURVE SMOOTH",
"676 559 OFFCURVE",
"678 561 OFFCURVE",
"678 563 CURVE SMOOTH",
"678 567 OFFCURVE",
"672 570 OFFCURVE",
"663 570 CURVE SMOOTH",
"660 570 OFFCURVE",
"657 570 OFFCURVE",
"654 569 CURVE SMOOTH",
"644 566 OFFCURVE",
"634 560 OFFCURVE",
"624 550 CURVE",
"623 551 LINE",
"614 555 OFFCURVE",
"597 557 OFFCURVE",
"579 557 CURVE SMOOTH",
"544 557 OFFCURVE",
"502 551 OFFCURVE",
"482 548 CURVE SMOOTH",
"380 528 OFFCURVE",
"247 465 OFFCURVE",
"247 399 CURVE SMOOTH",
"247 365 OFFCURVE",
"278 333 OFFCURVE",
"330 331 CURVE",
"336 330 OFFCURVE",
"334 341 OFFCURVE",
"328 341 CURVE SMOOTH",
"295 345 OFFCURVE",
"279 362 OFFCURVE",
"279 385 CURVE SMOOTH",
"279 388 OFFCURVE",
"279 392 OFFCURVE",
"280 395 CURVE",
"289 451 OFFCURVE",
"400 511 OFFCURVE",
"482 533 CURVE SMOOTH",
"494 536 OFFCURVE",
"540 545 OFFCURVE",
"572 545 CURVE SMOOTH",
"587 545 OFFCURVE",
"599 543 OFFCURVE",
"605 538 CURVE SMOOTH",
"610 534 LINE",
"574 487 OFFCURVE",
"546 405 OFFCURVE",
"531 372 CURVE SMOOTH",
"511 328 OFFCURVE",
"492 283 OFFCURVE",
"471 239 CURVE SMOOTH",
"411 115 OFFCURVE",
"303 -36 OFFCURVE",
"175 -36 CURVE SMOOTH",
"110 -36 OFFCURVE",
"65 15 OFFCURVE",
"48 60 CURVE SMOOTH",
"40 78 OFFCURVE",
"36 97 OFFCURVE",
"36 116 CURVE SMOOTH",
"36 135 OFFCURVE",
"40 153 OFFCURVE",
"48 171 CURVE",
"48 173 LINE SMOOTH",
"48 176 OFFCURVE",
"45 178 OFFCURVE",
"41 178 CURVE SMOOTH",
"38 178 OFFCURVE",
"36 177 OFFCURVE",
"34 174 CURVE SMOOTH",
"23 153 OFFCURVE",
"18 117 OFFCURVE",
"18 94 CURVE SMOOTH",
"18 17 OFFCURVE",
"64 -50 OFFCURVE",
"171 -50 CURVE SMOOTH"
);
}
);
width = 880;
}
);
note = N;
},
{
glyphname = O.ss01;
lastChange = "2021-11-09 11:10:08 +0000";
layers = (
{
anchors = (
{
name = bottom;
position = "{200, -18}";
},
{
name = center;
position = "{395, 290}";
},
{
name = ogonek;
position = "{255, -8}";
},
{
name = top;
position = "{604, 580}";
},
{
name = topleft;
position = "{20, 580}";
},
{
name = topright;
position = "{659, 560}";
}
);
layerId = "1A0EDF0C-2B61-4714-947B-2452868211A8";
paths = (
{
closed = 1;
nodes = (
"565 -25 OFFCURVE",
"781 201 OFFCURVE",
"781 378 CURVE SMOOTH",
"781 449 OFFCURVE",
"747 512 OFFCURVE",
"670 550 CURVE SMOOTH",
"623 573 OFFCURVE",
"559 584 OFFCURVE",
"489 584 CURVE SMOOTH",
"431 584 OFFCURVE",
"369 576 OFFCURVE",
"311 560 CURVE",
"267 582 OFFCURVE",
"217 596 OFFCURVE",
"169 596 CURVE SMOOTH",
"86 596 OFFCURVE",
"19 555 OFFCURVE",
"19 498 CURVE SMOOTH",
"19 471 OFFCURVE",
"33 440 OFFCURVE",
"68 408 CURVE SMOOTH",
"89 389 OFFCURVE",
"116 373 OFFCURVE",
"142 361 CURVE",
"88 302 OFFCURVE",
"52 230 OFFCURVE",
"52 156 CURVE SMOOTH",
"52 46 OFFCURVE",
"146 -25 OFFCURVE",
"284 -25 CURVE SMOOTH"
);
},
{
closed = 1;
nodes = (
"156 0 OFFCURVE",
"91 72 OFFCURVE",
"91 167 CURVE SMOOTH",
"91 230 OFFCURVE",
"122 294 OFFCURVE",
"168 350 CURVE",
"190 341 OFFCURVE",
"209 335 OFFCURVE",
"224 332 CURVE SMOOTH",
"280 317 OFFCURVE",
"341 311 OFFCURVE",
"397 311 CURVE SMOOTH",
"484 311 OFFCURVE",
"562 326 OFFCURVE",
"605 349 CURVE SMOOTH",
"640 368 OFFCURVE",
"659 399 OFFCURVE",
"659 429 CURVE SMOOTH",
"659 449 OFFCURVE",
"651 469 OFFCURVE",
"634 485 CURVE SMOOTH",
"604 513 OFFCURVE",
"553 523 OFFCURVE",
"500 523 CURVE SMOOTH",
"453 523 OFFCURVE",
"405 515 OFFCURVE",
"370 505 CURVE SMOOTH",
"294 484 OFFCURVE",
"214 436 OFFCURVE",
"154 374 CURVE",
"129 386 OFFCURVE",
"105 402 OFFCURVE",
"86 421 CURVE SMOOTH",
"61 446 OFFCURVE",
"50 472 OFFCURVE",
"50 496 CURVE SMOOTH",
"50 545 OFFCURVE",
"98 584 OFFCURVE",
"173 584 CURVE SMOOTH",
"215 584 OFFCURVE",
"255 573 OFFCURVE",
"292 555 CURVE",
"245 540 OFFCURVE",
"200 520 OFFCURVE",
"163 494 CURVE SMOOTH",
"157 489 OFFCURVE",
"154 485 OFFCURVE",
"154 483 CURVE SMOOTH",
"154 480 OFFCURVE",
"156 479 OFFCURVE",
"159 479 CURVE SMOOTH",
"162 479 OFFCURVE",
"166 480 OFFCURVE",
"170 483 CURVE SMOOTH",
"213 510 OFFCURVE",
"262 530 OFFCURVE",
"313 544 CURVE",
"343 526 LINE SMOOTH",
"350 522 OFFCURVE",
"356 519 OFFCURVE",
"360 519 CURVE SMOOTH",
"363 519 OFFCURVE",
"365 521 OFFCURVE",
"365 523 CURVE SMOOTH",
"365 526 OFFCURVE",
"362 531 OFFCURVE",
"354 536 CURVE SMOOTH",
"347 540 OFFCURVE",
"340 545 OFFCURVE",
"332 549 CURVE",
"382 561 OFFCURVE",
"433 567 OFFCURVE",
"481 567 CURVE SMOOTH",
"551 567 OFFCURVE",
"615 554 OFFCURVE",
"658 530 CURVE SMOOTH",
"720 495 OFFCURVE",
"747 443 OFFCURVE",
"747 384 CURVE SMOOTH",
"747 217 OFFCURVE",
"531 0 OFFCURVE",
"279 0 CURVE SMOOTH"
);
},
{
closed = 1;
nodes = (
"333 327 OFFCURVE",
"275 333 OFFCURVE",
"223 347 CURVE SMOOTH",
"211 350 OFFCURVE",
"195 355 OFFCURVE",
"179 362 CURVE",
"234 423 OFFCURVE",
"306 471 OFFCURVE",
"376 493 CURVE SMOOTH",
"405 502 OFFCURVE",
"446 509 OFFCURVE",
"486 509 CURVE SMOOTH",
"535 509 OFFCURVE",
"583 499 OFFCURVE",
"610 473 CURVE SMOOTH",
"622 461 OFFCURVE",
"628 447 OFFCURVE",
"628 431 CURVE SMOOTH",
"628 407 OFFCURVE",
"613 380 OFFCURVE",
"580 362 CURVE SMOOTH",
"542 340 OFFCURVE",
"468 327 OFFCURVE",
"389 327 CURVE SMOOTH"
);
}
);
width = 790;
}
);
note = O;
},
{
glyphname = P.ss01;
lastChange = "2021-11-09 11:01:09 +0000";
layers = (
{
layerId = "1A0EDF0C-2B61-4714-947B-2452868211A8";
paths = (
{
closed = 1;
nodes = (
"324 -50 OFFCURVE",
"424 67 OFFCURVE",
"489 204 CURVE SMOOTH",
"496 219 LINE",
"505 218 OFFCURVE",
"517 218 OFFCURVE",
"531 218 CURVE SMOOTH",
"592 218 OFFCURVE",
"688 226 OFFCURVE",
"761 268 CURVE SMOOTH",
"805 294 OFFCURVE",
"830 334 OFFCURVE",
"830 378 CURVE SMOOTH",
"830 439 OFFCURVE",
"779 506 OFFCURVE",
"663 540 CURVE",
"657 541 OFFCURVE",
"651 543 OFFCURVE",
"645 544 CURVE",
"654 551 OFFCURVE",
"662 556 OFFCURVE",
"671 558 CURVE SMOOTH",
"676 559 OFFCURVE",
"678 561 OFFCURVE",
"678 563 CURVE SMOOTH",
"678 567 OFFCURVE",
"672 570 OFFCURVE",
"663 570 CURVE SMOOTH",
"660 570 OFFCURVE",
"657 570 OFFCURVE",
"654 569 CURVE SMOOTH",
"644 566 OFFCURVE",
"633 560 OFFCURVE",
"624 550 CURVE",
"543 570 OFFCURVE",
"455 580 OFFCURVE",
"378 580 CURVE SMOOTH",
"237 580 OFFCURVE",
"167 548 OFFCURVE",
"167 507 CURVE SMOOTH",
"167 463 OFFCURVE",
"278 440 OFFCURVE",
"307 437 CURVE SMOOTH",
"311 437 OFFCURVE",
"313 440 OFFCURVE",
"313 443 CURVE SMOOTH",
"313 445 OFFCURVE",
"311 448 OFFCURVE",
"308 448 CURVE SMOOTH",
"284 451 OFFCURVE",
"205 471 OFFCURVE",
"205 507 CURVE SMOOTH",
"205 510 OFFCURVE",
"206 513 OFFCURVE",
"207 516 CURVE SMOOTH",
"218 541 OFFCURVE",
"280 566 OFFCURVE",
"395 566 CURVE SMOOTH",
"462 566 OFFCURVE",
"540 556 OFFCURVE",
"612 537 CURVE",
"575 490 OFFCURVE",
"546 406 OFFCURVE",
"531 372 CURVE SMOOTH",
"511 328 OFFCURVE",
"492 283 OFFCURVE",
"471 239 CURVE SMOOTH",
"469 235 LINE",
"460 236 OFFCURVE",
"453 239 OFFCURVE",
"449 242 CURVE SMOOTH",
"448 243 OFFCURVE",
"442 249 OFFCURVE",
"438 249 CURVE SMOOTH",
"436 249 OFFCURVE",
"434 248 OFFCURVE",
"434 243 CURVE SMOOTH",
"434 233 OFFCURVE",
"450 226 OFFCURVE",
"463 223 CURVE",
"402 102 OFFCURVE",
"297 -36 OFFCURVE",
"175 -36 CURVE SMOOTH",
"110 -36 OFFCURVE",
"65 15 OFFCURVE",
"48 60 CURVE SMOOTH",
"40 78 OFFCURVE",
"36 97 OFFCURVE",
"36 116 CURVE SMOOTH",
"36 135 OFFCURVE",
"40 153 OFFCURVE",
"48 171 CURVE",
"48 173 LINE SMOOTH",
"48 176 OFFCURVE",
"45 178 OFFCURVE",
"41 178 CURVE SMOOTH",
"38 178 OFFCURVE",
"36 177 OFFCURVE",
"34 174 CURVE SMOOTH",
"23 153 OFFCURVE",
"18 117 OFFCURVE",
"18 94 CURVE SMOOTH",
"18 17 OFFCURVE",
"64 -50 OFFCURVE",
"171 -50 CURVE SMOOTH"
);
},
{
closed = 1;
nodes = (
"532 313 OFFCURVE",
"576 468 OFFCURVE",
"632 531 CURVE",
"637 530 OFFCURVE",
"642 529 OFFCURVE",
"647 527 CURVE SMOOTH",
"750 494 OFFCURVE",
"791 435 OFFCURVE",
"791 380 CURVE SMOOTH",
"791 340 OFFCURVE",
"770 303 OFFCURVE",
"734 280 CURVE SMOOTH",
"659 232 OFFCURVE",
"551 230 OFFCURVE",
"501 232 CURVE"
);
}
);
width = 743;
}
);
note = P;
},
{
glyphname = Q.ss01;
lastChange = "2021-11-09 11:01:09 +0000";
layers = (
{
layerId = "1A0EDF0C-2B61-4714-947B-2452868211A8";
paths = (
{
closed = 1;
nodes = (
"976 -332 OFFCURVE",
"1032 -276 OFFCURVE",
"1032 -207 CURVE SMOOTH",
"1032 -175 OFFCURVE",
"1021 -141 OFFCURVE",
"994 -108 CURVE SMOOTH",
"974 -84 OFFCURVE",
"940 -58 OFFCURVE",
"915 -47 CURVE SMOOTH",
"909 -44 OFFCURVE",
"902 -48 OFFCURVE",
"902 -52 CURVE SMOOTH",
"902 -54 OFFCURVE",
"903 -56 OFFCURVE",
"906 -57 CURVE",
"933 -73 OFFCURVE",
"960 -95 OFFCURVE",
"981 -122 CURVE SMOOTH",
"1004 -151 OFFCURVE",
"1014 -182 OFFCURVE",
"1014 -210 CURVE SMOOTH",
"1014 -262 OFFCURVE",
"976 -304 OFFCURVE",
"917 -304 CURVE SMOOTH",
"881 -304 OFFCURVE",
"836 -288 OFFCURVE",
"787 -249 CURVE SMOOTH",
"719 -194 OFFCURVE",
"616 -57 OFFCURVE",
"555 18 CURVE",
"720 87 OFFCURVE",
"868 234 OFFCURVE",
"868 414 CURVE SMOOTH",
"868 480 OFFCURVE",
"835 543 OFFCURVE",
"767 562 CURVE SMOOTH",
"754 566 OFFCURVE",
"740 567 OFFCURVE",
"726 567 CURVE SMOOTH",
"709 567 OFFCURVE",
"692 565 OFFCURVE",
"676 560 CURVE",
"654 571 OFFCURVE",
"630 576 OFFCURVE",
"603 576 CURVE SMOOTH",
"519 576 OFFCURVE",
"421 527 OFFCURVE",
"363 488 CURVE SMOOTH",
"312 454 OFFCURVE",
"266 412 OFFCURVE",
"228 364 CURVE",
"130 374 OFFCURVE",
"54 405 OFFCURVE",
"54 463 CURVE SMOOTH",
"54 494 OFFCURVE",
"75 527 OFFCURVE",
"121 548 CURVE SMOOTH",
"148 561 OFFCURVE",
"200 571 OFFCURVE",
"253 571 CURVE SMOOTH",
"290 571 OFFCURVE",
"327 566 OFFCURVE",
"359 554 CURVE SMOOTH",
"363 552 OFFCURVE",
"367 556 OFFCURVE",
"367 559 CURVE SMOOTH",
"367 561 OFFCURVE",
"366 563 OFFCURVE",
"363 564 CURVE SMOOTH",
"326 578 OFFCURVE",
"283 584 OFFCURVE",
"242 584 CURVE SMOOTH",
"192 584 OFFCURVE",
"146 575 OFFCURVE",
"119 563 CURVE SMOOTH",
"53 532 OFFCURVE",
"25 495 OFFCURVE",
"25 460 CURVE SMOOTH",
"25 454 OFFCURVE",
"26 448 OFFCURVE",
"28 442 CURVE SMOOTH",
"44 389 OFFCURVE",
"120 359 OFFCURVE",
"216 348 CURVE",
"169 282 OFFCURVE",
"143 213 OFFCURVE",
"143 152 CURVE SMOOTH",
"143 53 OFFCURVE",
"210 -23 OFFCURVE",
"363 -23 CURVE SMOOTH",
"418 -23 OFFCURVE",
"476 -11 OFFCURVE",
"534 10 CURVE",
"597 -71 OFFCURVE",
"704 -226 OFFCURVE",
"771 -280 CURVE SMOOTH",
"816 -316 OFFCURVE",
"861 -332 OFFCURVE",
"900 -332 CURVE SMOOTH"
);
},
{
closed = 1;
nodes = (
"240 3 OFFCURVE",
"183 68 OFFCURVE",
"183 156 CURVE SMOOTH",
"183 213 OFFCURVE",
"207 280 OFFCURVE",
"249 345 CURVE",
"267 344 OFFCURVE",
"286 343 OFFCURVE",
"305 343 CURVE SMOOTH",
"423 343 OFFCURVE",
"551 367 OFFCURVE",
"633 408 CURVE SMOOTH",
"692 437 OFFCURVE",
"717 473 OFFCURVE",
"717 503 CURVE SMOOTH",
"717 522 OFFCURVE",
"707 540 OFFCURVE",
"689 553 CURVE",
"698 555 OFFCURVE",
"707 556 OFFCURVE",
"715 556 CURVE SMOOTH",
"732 556 OFFCURVE",
"748 553 OFFCURVE",
"762 546 CURVE SMOOTH",
"812 524 OFFCURVE",
"834 458 OFFCURVE",
"834 407 CURVE SMOOTH",
"834 246 OFFCURVE",
"693 104 OFFCURVE",
"538 39 CURVE",
"489 99 OFFCURVE",
"414 181 OFFCURVE",
"334 189 CURVE SMOOTH",
"328 190 OFFCURVE",
"321 190 OFFCURVE",
"315 190 CURVE SMOOTH",
"271 190 OFFCURVE",
"239 171 OFFCURVE",
"225 141 CURVE SMOOTH",
"223 136 OFFCURVE",
"222 132 OFFCURVE",
"222 128 CURVE SMOOTH",
"222 120 OFFCURVE",
"227 115 OFFCURVE",
"231 115 CURVE SMOOTH",
"234 115 OFFCURVE",
"236 117 OFFCURVE",
"237 121 CURVE",
"237 126 OFFCURVE",
"239 130 OFFCURVE",
"241 134 CURVE SMOOTH",
"251 152 OFFCURVE",
"283 161 OFFCURVE",
"319 161 CURVE SMOOTH",
"338 161 OFFCURVE",
"359 158 OFFCURVE",
"377 153 CURVE SMOOTH",
"441 135 OFFCURVE",
"479 78 OFFCURVE",
"517 31 CURVE",
"467 13 OFFCURVE",
"416 3 OFFCURVE",
"369 3 CURVE SMOOTH"
);
},
{
closed = 1;
nodes = (
"285 361 OFFCURVE",
"272 361 OFFCURVE",
"260 362 CURVE",
"296 411 OFFCURVE",
"325 437 OFFCURVE",
"374 472 CURVE SMOOTH",
"426 509 OFFCURVE",
"522 564 OFFCURVE",
"600 564 CURVE SMOOTH",
"620 564 OFFCURVE",
"639 560 OFFCURVE",
"656 552 CURVE",
"645 546 OFFCURVE",
"635 540 OFFCURVE",
"628 531 CURVE",
"623 527 OFFCURVE",
"627 522 OFFCURVE",
"631 522 CURVE SMOOTH",
"632 522 OFFCURVE",
"634 523 OFFCURVE",
"635 524 CURVE SMOOTH",
"644 533 OFFCURVE",
"654 540 OFFCURVE",
"666 546 CURVE",
"683 534 OFFCURVE",
"692 518 OFFCURVE",
"692 501 CURVE SMOOTH",
"692 476 OFFCURVE",
"673 447 OFFCURVE",
"627 424 CURVE SMOOTH",
"551 386 OFFCURVE",
"417 361 OFFCURVE",
"298 361 CURVE SMOOTH"
);
}
);
width = 860;
}
);
note = Q;
},
{
glyphname = R.ss01;
lastChange = "2021-11-09 11:16:46 +0000";
layers = (
{
anchors = (
{
name = bottom;
position = "{511, 0}";
},
{
name = top;
position = "{776, 537}";
}
);
layerId = "1A0EDF0C-2B61-4714-947B-2452868211A8";
paths = (
{
closed = 1;
nodes = (
"324 -50 OFFCURVE",
"425 67 OFFCURVE",
"489 204 CURVE SMOOTH",
"496 219 LINE",
"500 219 OFFCURVE",
"505 218 OFFCURVE",
"510 218 CURVE",
"571 198 OFFCURVE",
"711 39 OFFCURVE",
"792 -5 CURVE SMOOTH",
"821 -21 OFFCURVE",
"851 -28 OFFCURVE",
"880 -28 CURVE SMOOTH",
"937 -28 OFFCURVE",
"985 3 OFFCURVE",
"985 63 CURVE SMOOTH",
"985 76 OFFCURVE",
"983 90 OFFCURVE",
"978 105 CURVE SMOOTH",
"970 130 OFFCURVE",
"935 173 OFFCURVE",
"904 193 CURVE SMOOTH",
"900 196 OFFCURVE",
"895 192 OFFCURVE",
"895 189 CURVE SMOOTH",
"895 187 OFFCURVE",
"895 186 OFFCURVE",
"897 185 CURVE SMOOTH",
"925 166 OFFCURVE",
"955 121 OFFCURVE",
"962 98 CURVE SMOOTH",
"967 83 OFFCURVE",
"969 69 OFFCURVE",
"969 57 CURVE SMOOTH",
"969 11 OFFCURVE",
"939 -12 OFFCURVE",
"898 -12 CURVE SMOOTH",
"875 -12 OFFCURVE",
"849 -5 OFFCURVE",
"822 10 CURVE SMOOTH",
"747 51 OFFCURVE",
"669 133 OFFCURVE",
"597 194 CURVE SMOOTH",
"587 203 OFFCURVE",
"576 211 OFFCURVE",
"564 219 CURVE",
"623 222 OFFCURVE",
"701 233 OFFCURVE",
"761 268 CURVE SMOOTH",
"805 294 OFFCURVE",
"830 334 OFFCURVE",
"830 378 CURVE SMOOTH",
"830 439 OFFCURVE",
"781 514 OFFCURVE",
"663 540 CURVE SMOOTH",
"645 544 LINE",
"654 551 OFFCURVE",
"662 556 OFFCURVE",
"671 558 CURVE SMOOTH",
"676 559 OFFCURVE",
"678 561 OFFCURVE",
"678 563 CURVE SMOOTH",
"678 567 OFFCURVE",
"672 570 OFFCURVE",
"663 570 CURVE SMOOTH",
"660 570 OFFCURVE",
"657 570 OFFCURVE",
"654 569 CURVE SMOOTH",
"644 566 OFFCURVE",
"633 560 OFFCURVE",
"624 550 CURVE",
"543 570 OFFCURVE",
"455 580 OFFCURVE",
"378 580 CURVE SMOOTH",
"237 580 OFFCURVE",
"167 548 OFFCURVE",
"167 507 CURVE SMOOTH",
"167 463 OFFCURVE",
"278 440 OFFCURVE",
"307 437 CURVE SMOOTH",
"311 437 OFFCURVE",
"313 440 OFFCURVE",
"313 443 CURVE SMOOTH",
"313 445 OFFCURVE",
"311 448 OFFCURVE",
"308 448 CURVE SMOOTH",
"284 451 OFFCURVE",
"205 471 OFFCURVE",
"205 507 CURVE SMOOTH",
"205 510 OFFCURVE",
"206 513 OFFCURVE",
"207 516 CURVE SMOOTH",
"218 541 OFFCURVE",
"280 566 OFFCURVE",
"395 566 CURVE SMOOTH",
"462 566 OFFCURVE",
"540 556 OFFCURVE",
"612 537 CURVE",
"575 490 OFFCURVE",
"546 406 OFFCURVE",
"531 372 CURVE SMOOTH",
"478 254 LINE",
"471 255 OFFCURVE",
"464 256 OFFCURVE",
"457 256 CURVE SMOOTH",
"451 256 LINE SMOOTH",
"439 256 OFFCURVE",
"433 250 OFFCURVE",
"433 243 CURVE SMOOTH",
"433 240 OFFCURVE",
"435 236 OFFCURVE",
"439 233 CURVE SMOOTH",
"445 229 OFFCURVE",
"455 225 OFFCURVE",
"463 223 CURVE",
"402 102 OFFCURVE",
"297 -36 OFFCURVE",
"175 -36 CURVE SMOOTH",
"110 -36 OFFCURVE",
"65 15 OFFCURVE",
"48 60 CURVE SMOOTH",
"40 78 OFFCURVE",
"36 97 OFFCURVE",
"36 116 CURVE SMOOTH",
"36 135 OFFCURVE",
"40 153 OFFCURVE",
"48 171 CURVE",
"48 173 LINE SMOOTH",
"48 176 OFFCURVE",
"45 178 OFFCURVE",
"41 178 CURVE SMOOTH",
"38 178 OFFCURVE",
"36 177 OFFCURVE",
"34 174 CURVE SMOOTH",
"23 153 OFFCURVE",
"18 117 OFFCURVE",
"18 94 CURVE SMOOTH",
"18 17 OFFCURVE",
"64 -50 OFFCURVE",
"171 -50 CURVE SMOOTH"
);
},
{
closed = 1;
nodes = (
"531 238 OFFCURVE",
"519 243 OFFCURVE",
"506 247 CURVE",
"537 331 OFFCURVE",
"580 472 OFFCURVE",
"632 531 CURVE",
"637 530 OFFCURVE",
"642 529 OFFCURVE",
"647 527 CURVE SMOOTH",
"750 494 OFFCURVE",
"791 435 OFFCURVE",
"791 380 CURVE SMOOTH",
"791 340 OFFCURVE",
"770 303 OFFCURVE",
"734 280 CURVE SMOOTH",
"676 243 OFFCURVE",
"598 233 OFFCURVE",
"543 231 CURVE"
);
}
);
width = 1021;
}
);
note = R;
},
{
glyphname = S.ss01;
lastChange = "2021-11-09 11:10:08 +0000";
layers = (
{
anchors = (
{
name = bottom;
position = "{223, -42}";
},
{
name = top;
position = "{493, 580}";
}
);
layerId = "1A0EDF0C-2B61-4714-947B-2452868211A8";
paths = (
{
closed = 1;
nodes = (
"330 -52 OFFCURVE",
"466 -11 OFFCURVE",
"539 67 CURVE SMOOTH",
"566 96 OFFCURVE",
"583 130 OFFCURVE",
"583 164 CURVE SMOOTH",
"583 196 OFFCURVE",
"568 229 OFFCURVE",
"536 260 CURVE SMOOTH",
"478 315 OFFCURVE",
"313 364 OFFCURVE",
"313 448 CURVE SMOOTH",
"313 509 OFFCURVE",
"355 539 OFFCURVE",
"410 556 CURVE SMOOTH",
"432 563 OFFCURVE",
"466 569 OFFCURVE",
"499 569 CURVE SMOOTH",
"528 569 OFFCURVE",
"557 565 OFFCURVE",
"576 552 CURVE SMOOTH",
"595 540 OFFCURVE",
"602 523 OFFCURVE",
"602 505 CURVE SMOOTH",
"602 483 OFFCURVE",
"591 460 OFFCURVE",
"577 444 CURVE SMOOTH",
"573 440 OFFCURVE",
"571 436 OFFCURVE",
"571 433 CURVE SMOOTH",
"571 430 OFFCURVE",
"573 428 OFFCURVE",
"575 428 CURVE SMOOTH",
"577 428 OFFCURVE",
"580 429 OFFCURVE",
"584 433 CURVE SMOOTH",
"610 457 OFFCURVE",
"629 486 OFFCURVE",
"629 519 CURVE SMOOTH",
"629 583 OFFCURVE",
"534 599 OFFCURVE",
"491 599 CURVE SMOOTH",
"406 599 OFFCURVE",
"272 561 OFFCURVE",
"272 454 CURVE SMOOTH",
"272 422 OFFCURVE",
"288 400 OFFCURVE",
"317 376 CURVE SMOOTH",
"381 326 OFFCURVE",
"470 301 OFFCURVE",
"517 243 CURVE SMOOTH",
"537 218 OFFCURVE",
"545 193 OFFCURVE",
"545 169 CURVE SMOOTH",
"545 130 OFFCURVE",
"524 96 OFFCURVE",
"507 78 CURVE SMOOTH",
"452 19 OFFCURVE",
"313 -24 OFFCURVE",
"195 -24 CURVE SMOOTH",
"161 -24 OFFCURVE",
"128 -20 OFFCURVE",
"100 -12 CURVE SMOOTH",
"64 -1 OFFCURVE",
"44 24 OFFCURVE",
"44 51 CURVE SMOOTH",
"44 75 OFFCURVE",
"60 101 OFFCURVE",
"93 120 CURVE SMOOTH",
"170 164 OFFCURVE",
"295 188 OFFCURVE",
"376 188 CURVE SMOOTH",
"399 188 OFFCURVE",
"418 186 OFFCURVE",
"432 182 CURVE SMOOTH",
"437 181 OFFCURVE",
"440 185 OFFCURVE",
"440 188 CURVE SMOOTH",
"440 191 OFFCURVE",
"438 193 OFFCURVE",
"435 194 CURVE SMOOTH",
"422 198 OFFCURVE",
"402 200 OFFCURVE",
"377 200 CURVE SMOOTH",
"297 200 OFFCURVE",
"170 178 OFFCURVE",
"89 133 CURVE SMOOTH",
"44 108 OFFCURVE",
"11 69 OFFCURVE",
"11 33 CURVE SMOOTH",
"11 6 OFFCURVE",
"30 -19 OFFCURVE",
"78 -34 CURVE SMOOTH",
"117 -46 OFFCURVE",
"161 -52 OFFCURVE",
"208 -52 CURVE SMOOTH"
);
}
);
width = 633;
}
);
note = S;
},
{
glyphname = T.ss01;
lastChange = "2021-11-09 11:01:09 +0000";
layers = (
{
anchors = (
{
name = bottom;
position = "{185, -42}";
},
{
name = center;
position = "{573, 349}";
},
{
name = top;
position = "{711, 570}";
}
);
layerId = "1A0EDF0C-2B61-4714-947B-2452868211A8";
paths = (
{
closed = 1;
nodes = (
"374 -50 OFFCURVE",
"474 76 OFFCURVE",
"539 213 CURVE SMOOTH",
"560 257 OFFCURVE",
"573 304 OFFCURVE",
"589 349 CURVE SMOOTH",
"602 385 OFFCURVE",
"632 459 OFFCURVE",
"666 509 CURVE",
"705 499 OFFCURVE",
"746 491 OFFCURVE",
"778 491 CURVE SMOOTH",
"792 491 OFFCURVE",
"804 492 OFFCURVE",
"814 496 CURVE SMOOTH",
"825 500 OFFCURVE",
"833 512 OFFCURVE",
"833 518 CURVE SMOOTH",
"833 520 OFFCURVE",
"832 522 OFFCURVE",
"829 522 CURVE SMOOTH",
"827 522 OFFCURVE",
"824 521 OFFCURVE",
"820 519 CURVE SMOOTH",
"809 514 OFFCURVE",
"799 508 OFFCURVE",
"776 508 CURVE SMOOTH",
"756 508 OFFCURVE",
"726 512 OFFCURVE",
"678 524 CURVE",
"692 542 OFFCURVE",
"707 555 OFFCURVE",
"722 558 CURVE SMOOTH",
"727 559 OFFCURVE",
"729 561 OFFCURVE",
"729 563 CURVE SMOOTH",
"729 567 OFFCURVE",
"723 570 OFFCURVE",
"714 570 CURVE SMOOTH",
"711 570 OFFCURVE",
"708 570 OFFCURVE",
"705 569 CURVE SMOOTH",
"688 565 OFFCURVE",
"671 550 OFFCURVE",
"655 529 CURVE",
"539 559 OFFCURVE",
"422 593 OFFCURVE",
"302 593 CURVE SMOOTH",
"276 593 OFFCURVE",
"250 592 OFFCURVE",
"223 588 CURVE SMOOTH",
"88 568 OFFCURVE",
"18 495 OFFCURVE",
"18 418 CURVE SMOOTH",
"18 342 OFFCURVE",
"88 262 OFFCURVE",
"232 229 CURVE SMOOTH",
"236 228 OFFCURVE",
"239 232 OFFCURVE",
"239 236 CURVE SMOOTH",
"239 238 OFFCURVE",
"238 240 OFFCURVE",
"235 241 CURVE SMOOTH",
"108 270 OFFCURVE",
"49 335 OFFCURVE",
"49 400 CURVE SMOOTH",
"49 466 OFFCURVE",
"112 531 OFFCURVE",
"230 553 CURVE SMOOTH",
"267 559 OFFCURVE",
"304 562 OFFCURVE",
"341 562 CURVE SMOOTH",
"369 562 OFFCURVE",
"396 561 OFFCURVE",
"423 558 CURVE SMOOTH",
"499 550 OFFCURVE",
"571 533 OFFCURVE",
"645 514 CURVE",
"613 466 OFFCURVE",
"587 401 OFFCURVE",
"574 372 CURVE SMOOTH",
"555 328 OFFCURVE",
"536 283 OFFCURVE",
"515 239 CURVE SMOOTH",
"455 115 OFFCURVE",
"354 -36 OFFCURVE",
"226 -36 CURVE SMOOTH",
"160 -36 OFFCURVE",
"116 15 OFFCURVE",
"98 60 CURVE SMOOTH",
"91 78 OFFCURVE",
"87 97 OFFCURVE",
"87 116 CURVE SMOOTH",
"87 135 OFFCURVE",
"91 153 OFFCURVE",
"98 171 CURVE",
"99 172 OFFCURVE",
"99 172 OFFCURVE",
"99 173 CURVE SMOOTH",
"99 176 OFFCURVE",
"95 178 OFFCURVE",
"92 178 CURVE SMOOTH",
"89 178 OFFCURVE",
"86 177 OFFCURVE",
"85 174 CURVE",
"74 153 OFFCURVE",
"69 117 OFFCURVE",
"69 94 CURVE SMOOTH",
"69 17 OFFCURVE",
"114 -50 OFFCURVE",
"222 -50 CURVE SMOOTH"
);
}
);
width = 665;
}
);
note = T;
},
{
glyphname = U.ss01;
lastChange = "2021-11-09 11:10:08 +0000";
layers = (
{
anchors = (
{
name = bottom;
position = "{429, -49}";
},
{
name = ogonek;
position = "{749, -240}";
},
{
name = top;
position = "{759, 580}";
},
{
name = topright;
position = "{853, 580}";
}
);
layerId = "1A0EDF0C-2B61-4714-947B-2452868211A8";
paths = (
{
closed = 1;
nodes = (
"750 -266 OFFCURVE",
"759 -264 OFFCURVE",
"770 -260 CURVE SMOOTH",
"780 -256 OFFCURVE",
"784 -250 OFFCURVE",
"784 -246 CURVE SMOOTH",
"784 -242 OFFCURVE",
"781 -239 OFFCURVE",
"776 -239 CURVE SMOOTH",
"774 -239 OFFCURVE",
"771 -240 OFFCURVE",
"769 -241 CURVE SMOOTH",
"760 -245 OFFCURVE",
"752 -246 OFFCURVE",
"745 -246 CURVE SMOOTH",
"722 -246 OFFCURVE",
"705 -229 OFFCURVE",
"695 -199 CURVE SMOOTH",
"684 -168 OFFCURVE",
"680 -119 OFFCURVE",
"680 -76 CURVE SMOOTH",
"680 -54 OFFCURVE",
"681 -33 OFFCURVE",
"683 -17 CURVE SMOOTH",
"708 208 OFFCURVE",
"779 366 OFFCURVE",
"874 569 CURVE SMOOTH",
"880 581 OFFCURVE",
"861 595 OFFCURVE",
"847 595 CURVE SMOOTH",
"843 595 OFFCURVE",
"839 593 OFFCURVE",
"837 591 CURVE",
"797 497 OFFCURVE",
"756 398 OFFCURVE",
"723 298 CURVE",
"722 298 OFFCURVE",
"722 298 OFFCURVE",
"721 297 CURVE",
"676 195 OFFCURVE",
"572 72 OFFCURVE",
"499 23 CURVE SMOOTH",
"450 -11 OFFCURVE",
"406 -25 OFFCURVE",
"369 -25 CURVE SMOOTH",
"305 -25 OFFCURVE",
"265 22 OFFCURVE",
"265 94 CURVE SMOOTH",
"265 128 OFFCURVE",
"273 166 OFFCURVE",
"292 208 CURVE SMOOTH",
"341 318 OFFCURVE",
"462 445 OFFCURVE",
"568 480 CURVE",
"578 478 OFFCURVE",
"596 475 OFFCURVE",
"611 475 CURVE SMOOTH",
"615 475 OFFCURVE",
"619 476 OFFCURVE",
"623 476 CURVE",
"633 478 OFFCURVE",
"638 486 OFFCURVE",
"638 492 CURVE SMOOTH",
"638 496 OFFCURVE",
"636 499 OFFCURVE",
"630 499 CURVE SMOOTH",
"628 499 OFFCURVE",
"626 498 OFFCURVE",
"623 497 CURVE SMOOTH",
"610 493 OFFCURVE",
"599 491 OFFCURVE",
"588 491 CURVE SMOOTH",
"559 491 OFFCURVE",
"534 503 OFFCURVE",
"504 513 CURVE SMOOTH",
"410 545 OFFCURVE",
"308 581 OFFCURVE",
"212 581 CURVE SMOOTH",
"195 581 OFFCURVE",
"178 580 OFFCURVE",
"161 577 CURVE SMOOTH",
"62 561 OFFCURVE",
"11 505 OFFCURVE",
"11 446 CURVE SMOOTH",
"11 387 OFFCURVE",
"62 325 OFFCURVE",
"167 300 CURVE SMOOTH",
"173 299 OFFCURVE",
"175 307 OFFCURVE",
"170 309 CURVE",
"77 331 OFFCURVE",
"34 382 OFFCURVE",
"34 432 CURVE SMOOTH",
"34 483 OFFCURVE",
"80 533 OFFCURVE",
"166 550 CURVE SMOOTH",
"190 554 OFFCURVE",
"213 556 OFFCURVE",
"236 556 CURVE SMOOTH",
"346 556 OFFCURVE",
"445 511 OFFCURVE",
"539 484 CURVE",
"432 445 OFFCURVE",
"316 325 OFFCURVE",
"264 223 CURVE SMOOTH",
"239 173 OFFCURVE",
"227 127 OFFCURVE",
"227 87 CURVE SMOOTH",
"227 6 OFFCURVE",
"274 -48 OFFCURVE",
"349 -48 CURVE SMOOTH",
"391 -48 OFFCURVE",
"443 -30 OFFCURVE",
"501 9 CURVE SMOOTH",
"578 62 OFFCURVE",
"658 164 OFFCURVE",
"706 241 CURVE",
"676 142 OFFCURVE",
"655 41 OFFCURVE",
"649 -59 CURVE SMOOTH",
"646 -113 OFFCURVE",
"648 -236 OFFCURVE",
"722 -263 CURVE SMOOTH",
"728 -265 OFFCURVE",
"734 -266 OFFCURVE",
"741 -266 CURVE SMOOTH"
);
}
);
width = 808;
}
);
note = U;
},
{
glyphname = V.ss01;
lastChange = "2021-11-09 11:01:09 +0000";
layers = (
{
layerId = "1A0EDF0C-2B61-4714-947B-2452868211A8";
paths = (
{
closed = 1;
nodes = (
"416 -37 OFFCURVE",
"470 -18 OFFCURVE",
"526 21 CURVE SMOOTH",
"622 88 OFFCURVE",
"710 176 OFFCURVE",
"774 274 CURVE SMOOTH",
"819 344 OFFCURVE",
"846 414 OFFCURVE",
"846 472 CURVE SMOOTH",
"846 496 OFFCURVE",
"841 518 OFFCURVE",
"831 536 CURVE",
"860 535 OFFCURVE",
"891 538 OFFCURVE",
"919 543 CURVE SMOOTH",
"926 544 OFFCURVE",
"930 547 OFFCURVE",
"930 550 CURVE SMOOTH",
"930 551 OFFCURVE",
"928 553 OFFCURVE",
"923 553 CURVE SMOOTH",
"921 553 LINE SMOOTH",
"901 552 OFFCURVE",
"886 550 OFFCURVE",
"865 551 CURVE SMOOTH",
"860 551 OFFCURVE",
"832 552 OFFCURVE",
"810 556 CURVE",
"796 569 OFFCURVE",
"778 579 OFFCURVE",
"754 584 CURVE",
"748 587 OFFCURVE",
"737 581 OFFCURVE",
"737 575 CURVE SMOOTH",
"737 574 OFFCURVE",
"737 573 OFFCURVE",
"738 572 CURVE SMOOTH",
"750 553 OFFCURVE",
"771 543 OFFCURVE",
"797 539 CURVE",
"806 523 OFFCURVE",
"810 503 OFFCURVE",
"810 481 CURVE SMOOTH",
"810 424 OFFCURVE",
"784 349 OFFCURVE",
"744 278 CURVE SMOOTH",
"692 187 OFFCURVE",
"599 97 OFFCURVE",
"513 36 CURVE SMOOTH",
"462 0 OFFCURVE",
"418 -16 OFFCURVE",
"383 -16 CURVE SMOOTH",
"320 -16 OFFCURVE",
"285 36 OFFCURVE",
"285 116 CURVE SMOOTH",
"285 150 OFFCURVE",
"291 189 OFFCURVE",
"304 231 CURVE SMOOTH",
"342 356 OFFCURVE",
"416 462 OFFCURVE",
"504 537 CURVE",
"513 536 OFFCURVE",
"530 535 OFFCURVE",
"550 535 CURVE SMOOTH",
"563 535 OFFCURVE",
"576 536 OFFCURVE",
"589 537 CURVE SMOOTH",
"626 541 OFFCURVE",
"642 558 OFFCURVE",
"642 573 CURVE SMOOTH",
"642 586 OFFCURVE",
"629 598 OFFCURVE",
"607 598 CURVE SMOOTH",
"598 598 OFFCURVE",
"588 596 OFFCURVE",
"576 591 CURVE SMOOTH",
"543 578 OFFCURVE",
"504 552 OFFCURVE",
"499 548 CURVE",
"398 559 LINE SMOOTH",
"351 565 OFFCURVE",
"304 570 OFFCURVE",
"258 570 CURVE SMOOTH",
"204 570 OFFCURVE",
"152 562 OFFCURVE",
"102 537 CURVE SMOOTH",
"32 503 OFFCURVE",
"0 446 OFFCURVE",
"0 392 CURVE SMOOTH",
"0 311 OFFCURVE",
"70 234 OFFCURVE",
"195 233 CURVE SMOOTH",
"200 233 OFFCURVE",
"200 243 OFFCURVE",
"194 243 CURVE SMOOTH",
"85 244 OFFCURVE",
"26 307 OFFCURVE",
"26 376 CURVE SMOOTH",
"26 425 OFFCURVE",
"55 476 OFFCURVE",
"115 509 CURVE SMOOTH",
"173 541 OFFCURVE",
"238 551 OFFCURVE",
"303 551 CURVE SMOOTH",
"337 551 OFFCURVE",
"371 548 OFFCURVE",
"404 545 CURVE SMOOTH",
"429 542 OFFCURVE",
"457 539 OFFCURVE",
"487 538 CURVE",
"398 456 OFFCURVE",
"303 328 OFFCURVE",
"263 198 CURVE SMOOTH",
"252 162 OFFCURVE",
"247 129 OFFCURVE",
"247 101 CURVE SMOOTH",
"247 11 OFFCURVE",
"297 -37 OFFCURVE",
"370 -37 CURVE SMOOTH"
);
},
{
closed = 1;
nodes = (
"537 544 OFFCURVE",
"527 545 OFFCURVE",
"517 546 CURVE",
"532 558 OFFCURVE",
"549 568 OFFCURVE",
"565 576 CURVE SMOOTH",
"579 582 OFFCURVE",
"590 585 OFFCURVE",
"599 585 CURVE SMOOTH",
"612 585 OFFCURVE",
"619 579 OFFCURVE",
"619 572 CURVE SMOOTH",
"619 564 OFFCURVE",
"609 554 OFFCURVE",
"587 549 CURVE SMOOTH",
"574 546 OFFCURVE",
"560 544 OFFCURVE",
"545 544 CURVE SMOOTH"
);
}
);
width = 774;
}
);
note = V;
},
{
glyphname = W.ss01;
lastChange = "2021-11-09 11:10:08 +0000";
layers = (
{
anchors = (
{
name = bottom;
position = "{699, 0}";
},
{
name = top;
position = "{934, 516}";
}
);
layerId = "1A0EDF0C-2B61-4714-947B-2452868211A8";
paths = (
{
closed = 1;
nodes = (
"432 -106 OFFCURVE",
"479 -96 OFFCURVE",
"532 -72 CURVE SMOOTH",
"688 -2 OFFCURVE",
"808 118 OFFCURVE",
"868 201 CURVE",
"886 152 OFFCURVE",
"921 96 OFFCURVE",
"970 52 CURVE SMOOTH",
"1035 -7 OFFCURVE",
"1098 -33 OFFCURVE",
"1155 -33 CURVE SMOOTH",
"1197 -33 OFFCURVE",
"1234 -19 OFFCURVE",
"1266 5 CURVE SMOOTH",
"1335 58 OFFCURVE",
"1375 165 OFFCURVE",
"1375 268 CURVE SMOOTH",
"1375 346 OFFCURVE",
"1351 423 OFFCURVE",
"1300 470 CURVE",
"1329 470 OFFCURVE",
"1358 474 OFFCURVE",
"1384 479 CURVE SMOOTH",
"1389 480 OFFCURVE",
"1391 483 OFFCURVE",
"1391 485 CURVE SMOOTH",
"1391 488 OFFCURVE",
"1388 490 OFFCURVE",
"1382 490 CURVE SMOOTH",
"1380 490 LINE SMOOTH",
"1361 490 OFFCURVE",
"1347 486 OFFCURVE",
"1326 486 CURVE SMOOTH",
"1321 486 OFFCURVE",
"1293 486 OFFCURVE",
"1269 490 CURVE",
"1249 503 OFFCURVE",
"1226 512 OFFCURVE",
"1200 516 CURVE",
"1193 519 OFFCURVE",
"1187 515 OFFCURVE",
"1187 509 CURVE SMOOTH",
"1187 507 OFFCURVE",
"1188 505 OFFCURVE",
"1190 503 CURVE SMOOTH",
"1211 485 OFFCURVE",
"1237 476 OFFCURVE",
"1264 473 CURVE",
"1317 425 OFFCURVE",
"1342 336 OFFCURVE",
"1342 248 CURVE SMOOTH",
"1342 153 OFFCURVE",
"1313 59 OFFCURVE",
"1259 16 CURVE SMOOTH",
"1233 -5 OFFCURVE",
"1201 -17 OFFCURVE",
"1166 -17 CURVE SMOOTH",
"1116 -17 OFFCURVE",
"1058 8 OFFCURVE",
"997 63 CURVE SMOOTH",
"937 118 OFFCURVE",
"903 181 OFFCURVE",
"889 232 CURVE",
"900 249 OFFCURVE",
"915 275 OFFCURVE",
"915 295 CURVE SMOOTH",
"915 305 OFFCURVE",
"911 313 OFFCURVE",
"901 318 CURVE SMOOTH",
"890 323 OFFCURVE",
"873 315 OFFCURVE",
"867 307 CURVE SMOOTH",
"859 296 OFFCURVE",
"855 282 OFFCURVE",
"855 265 CURVE SMOOTH",
"855 251 OFFCURVE",
"858 236 OFFCURVE",
"862 220 CURVE",
"786 103 OFFCURVE",
"654 1 OFFCURVE",
"534 -53 CURVE SMOOTH",
"486 -74 OFFCURVE",
"445 -84 OFFCURVE",
"412 -84 CURVE SMOOTH",
"342 -84 OFFCURVE",
"306 -41 OFFCURVE",
"306 19 CURVE SMOOTH",
"306 69 OFFCURVE",
"331 132 OFFCURVE",
"381 193 CURVE SMOOTH",
"483 316 OFFCURVE",
"628 409 OFFCURVE",
"779 462 CURVE",
"840 446 OFFCURVE",
"903 434 OFFCURVE",
"957 434 CURVE SMOOTH",
"969 434 OFFCURVE",
"980 435 OFFCURVE",
"991 436 CURVE SMOOTH",
"1026 440 OFFCURVE",
"1048 461 OFFCURVE",
"1048 480 CURVE SMOOTH",
"1048 499 OFFCURVE",
"1026 516 OFFCURVE",
"976 516 CURVE SMOOTH",
"912 516 OFFCURVE",
"842 500 OFFCURVE",
"777 477 CURVE",
"733 489 OFFCURVE",
"687 505 OFFCURVE",
"642 519 CURVE SMOOTH",
"527 556 OFFCURVE",
"417 593 OFFCURVE",
"299 593 CURVE SMOOTH",
"274 593 OFFCURVE",
"249 592 OFFCURVE",
"223 588 CURVE SMOOTH",
"88 568 OFFCURVE",
"18 495 OFFCURVE",
"18 418 CURVE SMOOTH",
"18 342 OFFCURVE",
"88 262 OFFCURVE",
"232 229 CURVE SMOOTH",
"236 228 OFFCURVE",
"239 232 OFFCURVE",
"239 236 CURVE SMOOTH",
"239 238 OFFCURVE",
"238 240 OFFCURVE",
"235 241 CURVE SMOOTH",
"108 270 OFFCURVE",
"49 335 OFFCURVE",
"49 400 CURVE SMOOTH",
"49 466 OFFCURVE",
"112 531 OFFCURVE",
"230 553 CURVE SMOOTH",
"263 559 OFFCURVE",
"295 561 OFFCURVE",
"328 561 CURVE SMOOTH",
"436 561 OFFCURVE",
"543 533 OFFCURVE",
"644 502 CURVE SMOOTH",
"677 492 OFFCURVE",
"715 480 OFFCURVE",
"756 469 CURVE",
"600 407 OFFCURVE",
"429 305 OFFCURVE",
"323 177 CURVE SMOOTH",
"279 124 OFFCURVE",
"258 68 OFFCURVE",
"258 20 CURVE SMOOTH",
"258 -52 OFFCURVE",
"306 -106 OFFCURVE",
"394 -106 CURVE SMOOTH"
);
},
{
closed = 1;
nodes = (
"897 448 OFFCURVE",
"850 457 OFFCURVE",
"801 470 CURVE",
"862 489 OFFCURVE",
"926 503 OFFCURVE",
"977 501 CURVE SMOOTH",
"1001 500 OFFCURVE",
"1015 488 OFFCURVE",
"1015 475 CURVE SMOOTH",
"1015 464 OFFCURVE",
"1004 453 OFFCURVE",
"978 450 CURVE SMOOTH",
"966 448 OFFCURVE",
"954 448 OFFCURVE",
"941 448 CURVE SMOOTH"
);
}
);
width = 1397;
}
);
note = W;
},
{
glyphname = X.ss01;
lastChange = "2021-11-09 11:01:09 +0000";
layers = (
{
layerId = "1A0EDF0C-2B61-4714-947B-2452868211A8";
paths = (
{
closed = 1;
nodes = (
"731 -209 OFFCURVE",
"769 -182 OFFCURVE",
"782 -123 CURVE SMOOTH",
"783 -120 OFFCURVE",
"783 -116 OFFCURVE",
"783 -112 CURVE SMOOTH",
"783 -81 OFFCURVE",
"765 -26 OFFCURVE",
"752 -6 CURVE",
"751 -3 OFFCURVE",
"748 -2 OFFCURVE",
"745 -2 CURVE SMOOTH",
"742 -2 OFFCURVE",
"740 -3 OFFCURVE",
"740 -5 CURVE SMOOTH",
"740 -6 OFFCURVE",
"740 -7 OFFCURVE",
"741 -8 CURVE",
"751 -26 OFFCURVE",
"759 -74 OFFCURVE",
"759 -103 CURVE SMOOTH",
"759 -110 OFFCURVE",
"759 -116 OFFCURVE",
"758 -120 CURVE SMOOTH",
"746 -171 OFFCURVE",
"718 -194 OFFCURVE",
"685 -194 CURVE SMOOTH",
"558 -194 OFFCURVE",
"435 187 OFFCURVE",
"405 301 CURVE",
"423 318 LINE SMOOTH",
"516 405 OFFCURVE",
"641 523 OFFCURVE",
"751 578 CURVE SMOOTH",
"757 581 OFFCURVE",
"762 587 OFFCURVE",
"762 591 CURVE SMOOTH",
"762 593 OFFCURVE",
"761 595 OFFCURVE",
"757 595 CURVE SMOOTH",
"754 595 OFFCURVE",
"751 594 OFFCURVE",
"746 592 CURVE SMOOTH",
"653 560 OFFCURVE",
"457 370 OFFCURVE",
"401 320 CURVE",
"389 385 OFFCURVE",
"371 479 OFFCURVE",
"365 538 CURVE",
"389 532 OFFCURVE",
"407 522 OFFCURVE",
"408 506 CURVE SMOOTH",
"409 498 OFFCURVE",
"411 495 OFFCURVE",
"413 495 CURVE SMOOTH",
"417 495 OFFCURVE",
"422 509 OFFCURVE",
"422 520 CURVE SMOOTH",
"422 524 LINE",
"418 540 OFFCURVE",
"395 549 OFFCURVE",
"364 554 CURVE",
"362 563 OFFCURVE",
"351 568 OFFCURVE",
"342 568 CURVE SMOOTH",
"334 568 OFFCURVE",
"328 565 OFFCURVE",
"325 558 CURVE",
"314 559 OFFCURVE",
"302 559 OFFCURVE",
"289 559 CURVE SMOOTH",
"201 559 OFFCURVE",
"95 544 OFFCURVE",
"64 532 CURVE SMOOTH",
"30 519 OFFCURVE",
"11 497 OFFCURVE",
"11 475 CURVE SMOOTH",
"11 457 OFFCURVE",
"23 438 OFFCURVE",
"50 423 CURVE SMOOTH",
"54 421 OFFCURVE",
"57 425 OFFCURVE",
"57 429 CURVE SMOOTH",
"57 431 OFFCURVE",
"56 432 OFFCURVE",
"55 433 CURVE",
"34 445 OFFCURVE",
"25 456 OFFCURVE",
"25 467 CURVE SMOOTH",
"25 484 OFFCURVE",
"47 500 OFFCURVE",
"80 513 CURVE SMOOTH",
"115 527 OFFCURVE",
"187 540 OFFCURVE",
"258 545 CURVE SMOOTH",
"262 545 OFFCURVE",
"292 547 OFFCURVE",
"325 544 CURVE",
"330 501 OFFCURVE",
"369 334 OFFCURVE",
"377 301 CURVE",
"333 261 OFFCURVE",
"182 121 OFFCURVE",
"130 28 CURVE SMOOTH",
"123 16 OFFCURVE",
"119 1 OFFCURVE",
"119 -13 CURVE SMOOTH",
"119 -39 OFFCURVE",
"131 -63 OFFCURVE",
"158 -63 CURVE SMOOTH",
"165 -63 OFFCURVE",
"167 -62 OFFCURVE",
"167 -59 CURVE SMOOTH",
"167 -56 OFFCURVE",
"161 -49 OFFCURVE",
"155 -39 CURVE SMOOTH",
"153 -35 OFFCURVE",
"151 -30 OFFCURVE",
"151 -24 CURVE SMOOTH",
"151 44 OFFCURVE",
"310 209 OFFCURVE",
"367 265 CURVE SMOOTH",
"382 280 LINE",
"403 139 OFFCURVE",
"544 -209 OFFCURVE",
"688 -209 CURVE SMOOTH"
);
}
);
width = 595;
}
);
note = X;
},
{
glyphname = Y.ss01;
lastChange = "2021-11-09 11:10:08 +0000";
layers = (
{
anchors = (
{
name = bottom;
position = "{780, 12}";
},
{
name = top;
position = "{774, 580}";
},
{
name = topleft;
position = "{20, 580}";
}
);
layerId = "1A0EDF0C-2B61-4714-947B-2452868211A8";
paths = (
{
closed = 1;
nodes = (
"455 -368 OFFCURVE",
"583 -209 OFFCURVE",
"668 0 CURVE SMOOTH",
"714 114 OFFCURVE",
"750 319 OFFCURVE",
"793 431 CURVE SMOOTH",
"815 489 OFFCURVE",
"855 545 OFFCURVE",
"915 561 CURVE SMOOTH",
"926 564 OFFCURVE",
"931 569 OFFCURVE",
"931 574 CURVE SMOOTH",
"931 579 OFFCURVE",
"923 585 OFFCURVE",
"909 585 CURVE SMOOTH",
"903 585 OFFCURVE",
"895 584 OFFCURVE",
"887 582 CURVE SMOOTH",
"856 573 OFFCURVE",
"826 543 OFFCURVE",
"798 492 CURVE SMOOTH",
"786 470 OFFCURVE",
"771 428 OFFCURVE",
"753 378 CURVE SMOOTH",
"734 325 OFFCURVE",
"678 218 OFFCURVE",
"650 180 CURVE SMOOTH",
"602 114 OFFCURVE",
"544 53 OFFCURVE",
"499 23 CURVE SMOOTH",
"450 -11 OFFCURVE",
"406 -25 OFFCURVE",
"369 -25 CURVE SMOOTH",
"305 -25 OFFCURVE",
"265 22 OFFCURVE",
"265 94 CURVE SMOOTH",
"265 128 OFFCURVE",
"273 166 OFFCURVE",
"292 208 CURVE SMOOTH",
"341 318 OFFCURVE",
"462 445 OFFCURVE",
"568 480 CURVE",
"578 478 OFFCURVE",
"596 475 OFFCURVE",
"611 475 CURVE SMOOTH",
"615 475 OFFCURVE",
"619 476 OFFCURVE",
"623 476 CURVE",
"633 478 OFFCURVE",
"638 486 OFFCURVE",
"638 492 CURVE SMOOTH",
"638 496 OFFCURVE",
"636 499 OFFCURVE",
"630 499 CURVE SMOOTH",
"628 499 OFFCURVE",
"626 498 OFFCURVE",
"623 497 CURVE SMOOTH",
"610 493 OFFCURVE",
"599 491 OFFCURVE",
"588 491 CURVE SMOOTH",
"559 491 OFFCURVE",
"534 503 OFFCURVE",
"504 513 CURVE SMOOTH",
"410 545 OFFCURVE",
"308 581 OFFCURVE",
"212 581 CURVE SMOOTH",
"195 581 OFFCURVE",
"178 580 OFFCURVE",
"161 577 CURVE SMOOTH",
"62 561 OFFCURVE",
"11 505 OFFCURVE",
"11 446 CURVE SMOOTH",
"11 387 OFFCURVE",
"62 325 OFFCURVE",
"167 300 CURVE SMOOTH",
"173 299 OFFCURVE",
"175 307 OFFCURVE",
"170 309 CURVE",
"77 331 OFFCURVE",
"34 382 OFFCURVE",
"34 432 CURVE SMOOTH",
"34 483 OFFCURVE",
"80 533 OFFCURVE",
"166 550 CURVE SMOOTH",
"190 554 OFFCURVE",
"213 556 OFFCURVE",
"236 556 CURVE SMOOTH",
"346 556 OFFCURVE",
"445 511 OFFCURVE",
"539 484 CURVE",
"432 445 OFFCURVE",
"316 325 OFFCURVE",
"264 223 CURVE SMOOTH",
"239 173 OFFCURVE",
"227 127 OFFCURVE",
"227 87 CURVE SMOOTH",
"227 6 OFFCURVE",
"274 -48 OFFCURVE",
"349 -48 CURVE SMOOTH",
"391 -48 OFFCURVE",
"443 -30 OFFCURVE",
"501 9 CURVE SMOOTH",
"556 47 OFFCURVE",
"619 114 OFFCURVE",
"664 175 CURVE SMOOTH",
"680 196 OFFCURVE",
"699 233 OFFCURVE",
"717 269 CURVE",
"683 165 OFFCURVE",
"648 55 OFFCURVE",
"626 1 CURVE SMOOTH",
"551 -182 OFFCURVE",
"428 -346 OFFCURVE",
"262 -346 CURVE SMOOTH",
"176 -346 OFFCURVE",
"114 -277 OFFCURVE",
"91 -209 CURVE SMOOTH",
"80 -177 OFFCURVE",
"77 -149 OFFCURVE",
"77 -125 CURVE SMOOTH",
"77 -76 OFFCURVE",
"92 -43 OFFCURVE",
"96 -29 CURVE SMOOTH",
"98 -24 OFFCURVE",
"93 -21 OFFCURVE",
"88 -21 CURVE SMOOTH",
"84 -21 OFFCURVE",
"80 -23 OFFCURVE",
"78 -27 CURVE SMOOTH",
"64 -59 OFFCURVE",
"57 -114 OFFCURVE",
"57 -149 CURVE SMOOTH",
"57 -266 OFFCURVE",
"116 -368 OFFCURVE",
"256 -368 CURVE SMOOTH"
);
}
);
width = 808;
}
);
note = Y;
},
{
glyphname = Z.ss01;
lastChange = "2021-11-09 11:10:08 +0000";
layers = (
{
anchors = (
{
name = bottom;
position = "{398, 0}";
},
{
name = center;
position = "{315, 290}";
},
{
name = top;
position = "{479, 564}";
}
);
layerId = "1A0EDF0C-2B61-4714-947B-2452868211A8";
paths = (
{
closed = 1;
nodes = (
"739 -132 OFFCURVE",
"791 -90 OFFCURVE",
"791 -27 CURVE SMOOTH",
"791 100 OFFCURVE",
"637 160 OFFCURVE",
"513 160 CURVE SMOOTH",
"433 160 OFFCURVE",
"360 146 OFFCURVE",
"340 92 CURVE SMOOTH",
"339 89 OFFCURVE",
"338 86 OFFCURVE",
"338 83 CURVE SMOOTH",
"338 72 OFFCURVE",
"345 61 OFFCURVE",
"352 57 CURVE SMOOTH",
"356 55 OFFCURVE",
"359 59 OFFCURVE",
"359 62 CURVE SMOOTH",
"359 64 OFFCURVE",
"358 66 OFFCURVE",
"356 67 CURVE",
"355 67 OFFCURVE",
"353 71 OFFCURVE",
"353 77 CURVE SMOOTH",
"353 80 OFFCURVE",
"354 83 OFFCURVE",
"355 87 CURVE SMOOTH",
"373 137 OFFCURVE",
"491 138 OFFCURVE",
"533 136 CURVE SMOOTH",
"626 132 OFFCURVE",
"784 93 OFFCURVE",
"776 -28 CURVE SMOOTH",
"773 -79 OFFCURVE",
"722 -105 OFFCURVE",
"659 -105 CURVE SMOOTH",
"569 -105 OFFCURVE",
"466 -52 OFFCURVE",
"402 -17 CURVE SMOOTH",
"304 35 OFFCURVE",
"203 92 OFFCURVE",
"117 92 CURVE SMOOTH",
"109 92 OFFCURVE",
"101 91 OFFCURVE",
"93 90 CURVE",
"147 144 OFFCURVE",
"220 207 OFFCURVE",
"242 226 CURVE SMOOTH",
"362 327 OFFCURVE",
"498 435 OFFCURVE",
"630 518 CURVE",
"639 518 LINE",
"674 515 LINE SMOOTH",
"684 514 OFFCURVE",
"695 522 OFFCURVE",
"695 534 CURVE SMOOTH",
"695 535 LINE SMOOTH",
"695 548 OFFCURVE",
"680 551 OFFCURVE",
"671 552 CURVE SMOOTH",
"661 552 OFFCURVE",
"650 549 OFFCURVE",
"640 544 CURVE SMOOTH",
"614 531 LINE",
"557 533 OFFCURVE",
"473 552 OFFCURVE",
"442 557 CURVE SMOOTH",
"401 564 OFFCURVE",
"343 574 OFFCURVE",
"287 574 CURVE SMOOTH",
"243 574 OFFCURVE",
"200 568 OFFCURVE",
"166 550 CURVE SMOOTH",
"138 535 OFFCURVE",
"127 513 OFFCURVE",
"127 489 CURVE SMOOTH",
"127 444 OFFCURVE",
"161 391 OFFCURVE",
"182 362 CURVE SMOOTH",
"185 357 OFFCURVE",
"192 362 OFFCURVE",
"192 367 CURVE SMOOTH",
"192 368 OFFCURVE",
"192 369 OFFCURVE",
"191 370 CURVE SMOOTH",
"174 393 OFFCURVE",
"153 432 OFFCURVE",
"153 467 CURVE SMOOTH",
"153 492 OFFCURVE",
"163 515 OFFCURVE",
"192 530 CURVE SMOOTH",
"224 546 OFFCURVE",
"263 552 OFFCURVE",
"302 552 CURVE SMOOTH",
"356 552 OFFCURVE",
"411 542 OFFCURVE",
"453 535 CURVE SMOOTH",
"478 531 OFFCURVE",
"539 520 OFFCURVE",
"591 517 CURVE",
"481 451 OFFCURVE",
"313 317 OFFCURVE",
"235 253 CURVE SMOOTH",
"198 222 OFFCURVE",
"73 124 OFFCURVE",
"23 54 CURVE SMOOTH",
"15 41 OFFCURVE",
"5 25 OFFCURVE",
"5 4 CURVE SMOOTH",
"5 -5 OFFCURVE",
"11 -10 OFFCURVE",
"18 -10 CURVE SMOOTH",
"25 -10 OFFCURVE",
"33 -5 OFFCURVE",
"38 7 CURVE",
"48 51 OFFCURVE",
"79 68 OFFCURVE",
"119 68 CURVE SMOOTH",
"207 68 OFFCURVE",
"339 -9 OFFCURVE",
"393 -37 CURVE SMOOTH",
"462 -72 OFFCURVE",
"565 -132 OFFCURVE",
"657 -132 CURVE SMOOTH"
);
}
);
width = 795;
}
);
note = Z;
},
{
glyphname = A.ss03;
lastChange = "2021-11-09 11:17:25 +0000";
layers = (
{
anchors = (
{
name = bottom;
position = "{387, -49}";
},
{
name = ogonek;
position = "{716, -153}";
},
{
name = top;
position = "{756, 580}";
}
);
layerId = "1A0EDF0C-2B61-4714-947B-2452868211A8";
paths = (
{
closed = 1;
nodes = (
"760 -193 OFFCURVE",
"773 -192 OFFCURVE",
"786 -188 CURVE SMOOTH",
"793 -186 OFFCURVE",
"791 -178 OFFCURVE",
"786 -178 CURVE SMOOTH",
"784 -178 LINE",
"773 -181 OFFCURVE",
"762 -182 OFFCURVE",
"753 -182 CURVE SMOOTH",
"696 -182 OFFCURVE",
"662 -135 OFFCURVE",
"649 -62 CURVE SMOOTH",
"645 -38 OFFCURVE",
"643 -12 OFFCURVE",
"643 16 CURVE SMOOTH",
"643 88 OFFCURVE",
"656 171 OFFCURVE",
"680 247 CURVE SMOOTH",
"695 297 OFFCURVE",
"716 344 OFFCURVE",
"733 380 CURVE",
"783 399 OFFCURVE",
"827 422 OFFCURVE",
"860 446 CURVE SMOOTH",
"896 472 OFFCURVE",
"918 504 OFFCURVE",
"918 531 CURVE SMOOTH",
"918 560 OFFCURVE",
"892 582 OFFCURVE",
"827 582 CURVE SMOOTH",
"657 582 OFFCURVE",
"437 454 OFFCURVE",
"302 314 CURVE",
"239 314 OFFCURVE",
"181 319 OFFCURVE",
"135 330 CURVE SMOOTH",
"71 346 OFFCURVE",
"40 381 OFFCURVE",
"40 416 CURVE SMOOTH",
"40 454 OFFCURVE",
"76 493 OFFCURVE",
"145 513 CURVE SMOOTH",
"176 522 OFFCURVE",
"228 529 OFFCURVE",
"279 529 CURVE SMOOTH",
"314 529 OFFCURVE",
"349 526 OFFCURVE",
"375 517 CURVE SMOOTH",
"379 515 OFFCURVE",
"383 519 OFFCURVE",
"383 522 CURVE SMOOTH",
"383 524 OFFCURVE",
"382 526 OFFCURVE",
"379 527 CURVE SMOOTH",
"348 538 OFFCURVE",
"305 542 OFFCURVE",
"263 542 CURVE SMOOTH",
"212 542 OFFCURVE",
"161 536 OFFCURVE",
"130 527 CURVE SMOOTH",
"48 504 OFFCURVE",
"2 459 OFFCURVE",
"2 415 CURVE SMOOTH",
"2 375 OFFCURVE",
"39 336 OFFCURVE",
"119 317 CURVE SMOOTH",
"167 305 OFFCURVE",
"225 300 OFFCURVE",
"288 300 CURVE",
"265 275 OFFCURVE",
"245 250 OFFCURVE",
"229 226 CURVE SMOOTH",
"180 153 OFFCURVE",
"158 90 OFFCURVE",
"158 42 CURVE SMOOTH",
"158 -8 OFFCURVE",
"182 -41 OFFCURVE",
"224 -52 CURVE SMOOTH",
"235 -55 OFFCURVE",
"247 -56 OFFCURVE",
"259 -56 CURVE SMOOTH",
"340 -56 OFFCURVE",
"456 4 OFFCURVE",
"567 159 CURVE SMOOTH",
"610 219 OFFCURVE",
"653 289 OFFCURVE",
"685 345 CURVE",
"674 317 OFFCURVE",
"663 286 OFFCURVE",
"651 252 CURVE SMOOTH",
"625 173 OFFCURVE",
"610 89 OFFCURVE",
"610 14 CURVE SMOOTH",
"610 -15 OFFCURVE",
"612 -42 OFFCURVE",
"617 -67 CURVE SMOOTH",
"631 -142 OFFCURVE",
"682 -193 OFFCURVE",
"748 -193 CURVE SMOOTH"
);
},
{
closed = 1;
nodes = (
"224 -33 OFFCURVE",
"192 -3 OFFCURVE",
"192 53 CURVE SMOOTH",
"192 95 OFFCURVE",
"211 153 OFFCURVE",
"257 224 CURVE SMOOTH",
"273 249 OFFCURVE",
"293 275 OFFCURVE",
"317 300 CURVE",
"436 304 OFFCURVE",
"568 326 OFFCURVE",
"680 361 CURVE",
"648 307 OFFCURVE",
"604 236 OFFCURVE",
"559 173 CURVE SMOOTH",
"453 28 OFFCURVE",
"341 -33 OFFCURVE",
"271 -33 CURVE SMOOTH"
);
},
{
closed = 1;
nodes = (
"457 446 OFFCURVE",
"658 564 OFFCURVE",
"814 564 CURVE SMOOTH",
"869 564 OFFCURVE",
"891 548 OFFCURVE",
"891 525 CURVE SMOOTH",
"891 503 OFFCURVE",
"870 475 OFFCURVE",
"840 453 CURVE SMOOTH",
"814 433 OFFCURVE",
"780 415 OFFCURVE",
"742 399 CURVE",
"763 441 LINE SMOOTH",
"767 449 OFFCURVE",
"755 455 OFFCURVE",
"744 455 CURVE SMOOTH",
"738 455 OFFCURVE",
"732 453 OFFCURVE",
"729 450 CURVE",
"729 450 OFFCURVE",
"728 449 OFFCURVE",
"728 448 CURVE",
"726 445 LINE SMOOTH",
"719 435 OFFCURVE",
"708 410 OFFCURVE",
"690 379 CURVE",
"582 343 OFFCURVE",
"449 319 OFFCURVE",
"330 315 CURVE"
);
}
);
width = 750;
}
);
note = A;
},
